<?xml version="1.0" encoding="UTF-8"?>
<svg version="1.1" viewBox="0 0 100 100" xml:space="preserve" xmlns="http://www.w3.org/2000/svg" xmlns:xlink="http://www.w3.org/1999/xlink"><defs><linearGradient id="SVGID_2_-3" x1="73.8" x2="73.8" y1="1532.1" y2="1574" gradientTransform="translate(3.8,-1480.3)" gradientUnits="userSpaceOnUse"><stop stop-color="#d69029" offset="0"/><stop stop-color="#af7125" offset="1"/></linearGradient><linearGradient id="linearGradient5199" x1="53.239" x2="53.239" y1="12.753" y2="86.357" gradientTransform="translate(-50.413 11.364)" gradientUnits="userSpaceOnUse"><stop stop-color="#226e23" offset="0"/><stop stop-color="#63ab3a" offset="1"/></linearGradient><radialGradient id="radialGradient9501" cx="15.324" cy="16.191" r="29.132" gradientUnits="userSpaceOnUse"><stop stop-color="#37ff2d" stop-opacity=".99216" offset=".42315"/><stop stop-color="#6aae45" stop-opacity=".99216" offset="1"/></radialGradient></defs><linearGradient id="SVGID_1_" x1="50.269" x2="49.697" y1="-1470.9" y2="-1392.8" gradientTransform="matrix(1 0 0 -1 -50.207 -1373.2)" gradientUnits="userSpaceOnUse"><stop stop-color="gray" offset="0"/><stop stop-color="#4b4b4d" offset="1"/></linearGradient><g><g stroke="#0c0c0c" stroke-opacity=".85"><circle cx="50" cy="50" r="45.9" clip-rule="evenodd" fill="none" stroke-linecap="round" stroke-linejoin="round" stroke-width="3.1319"/><path d="m56.7 13.7c0.1 0.5 0.2 1 0.2 1.5 0 3.8-3.1 6.9-6.9 6.9s-6.9-3.1-6.9-6.9c0-0.5 0.1-1 0.2-1.5 2.2-0.4 4.5-0.6 6.7-0.6 2.3-0.1 4.5 0.2 6.7 0.6zm-26.1 8.4c0 7.7 4.5 14.4 11.1 17.5v35.1l8.3 8.3 8.3-8.3-0.5-7.3 3.9-3.9-3.9-3.9 5.9-5.9-5.9-5.9 0.5-8.2c6.5-3.1 11.1-9.8 11.1-17.5 0-1.3-0.1-2.5-0.4-3.8 11.1 6.7 17.9 18.7 18 31.7 0 20.4-16.5 37-37 37-20.4 0-37-16.5-37-37 0-13 6.8-25 18-31.7-0.2 1.3-0.4 2.5-0.4 3.8zm13.9 22.1h2.8v27.7h-2.8z" fill="#0c0c0c" fill-opacity=".85"/></g><g display="none" stroke="#0c0c0c" stroke-opacity=".4"><circle cx="50" cy="50" r="45.9" clip-rule="evenodd" display="inline" fill="none" stroke-linecap="round" stroke-linejoin="round" stroke-width="3.1319"/><path d="m56.7 13.7c0.1 0.5 0.2 1 0.2 1.5 0 3.8-3.1 6.9-6.9 6.9s-6.9-3.1-6.9-6.9c0-0.5 0.1-1 0.2-1.5 2.2-0.4 4.5-0.6 6.7-0.6 2.3-0.1 4.5 0.2 6.7 0.6zm-26.1 8.4c0 7.7 4.5 14.4 11.1 17.5v35.1l8.3 8.3 8.3-8.3-0.5-7.3 3.9-3.9-3.9-3.9 5.9-5.9-5.9-5.9 0.5-8.2c6.5-3.1 11.1-9.8 11.1-17.5 0-1.3-0.1-2.5-0.4-3.8 11.1 6.7 17.9 18.7 18 31.7 0 20.4-16.5 37-37 37-20.4 0-37-16.5-37-37 0-13 6.8-25 18-31.7-0.2 1.3-0.4 2.5-0.4 3.8zm13.9 22.1h2.8v27.7h-2.8z" fill="#0c0c0c" fill-opacity=".4"/></g><g transform="translate(-2.0168 -1.718)" display="none"><path transform="matrix(.94486 0 0 .94486 15.063 13.945)" d="m15.324 42.4c-2.0753-0.068456-5.7194-18.012-7.1876-19.48-1.4267-1.4267-19.088-4.7122-19.021-6.7287 0.068457-2.0753 18.012-5.7194 19.48-7.1876 1.4267-1.4267 4.7122-19.088 6.7287-19.021 2.0753 0.068457 5.7194 18.012 7.1876 19.48 1.4267 1.4267 19.088 4.7122 19.021 6.7287-0.06846 2.0753-18.012 5.7194-19.48 7.1876-1.4267 1.4267-4.7122 19.088-6.7287 19.021z" fill="#00e900" stroke="#000" stroke-linecap="round" stroke-linejoin="round" stroke-opacity=".85" stroke-width="5.8451" style="paint-order:markers stroke fill"/></g><g transform="translate(2.9829 .81217)" stroke-linecap="round"><rect x="62.107" y="49.702" width="33.41" height="47.986" ry="5.2592" fill="#f00" stroke="#000" stroke-linejoin="round" stroke-opacity=".85" stroke-width="3"/><path d="m74.336 79.39v-1.7344q0-2.25 0.96094-3.9141 0.96094-1.6641 3.5156-3.5391 2.4609-1.7578 3.2344-2.8594 0.79688-1.1016 0.79688-2.4609 0-1.5234-1.125-2.3203t-3.1406-0.79688q-3.5156 0-8.0156 2.2969l-2.5547-5.1328q5.2266-2.9297 11.086-2.9297 4.8281 0 7.6641 2.3203 2.8594 2.3203 2.8594 6.1875 0 2.5781-1.1719 4.4531t-4.4531 4.2188q-2.25 1.6641-2.8594 2.5312-0.58594 0.86719-0.58594 2.2734v1.4062zm-0.75 8.0156q0-1.9688 1.0547-2.9766 1.0547-1.0078 3.0703-1.0078 1.9453 0 3 1.0312 1.0781 1.0312 1.0781 2.9531 0 1.8516-1.0781 2.9297-1.0781 1.0547-3 1.0547-1.9688 0-3.0469-1.0312-1.0781-1.0547-1.0781-2.9531z" fill="#fff" stroke="#fff"/></g><g transform="translate(5.4993 4.4312)" display="none"><rect x="62.782" y="46.083" width="30.219" height="47.986" ry="5.2592" display="inline" fill="#f00" stroke="#000" stroke-opacity=".85" stroke-width="3"/><path d="m80.798 75.525h-5.7188l-1.1953-22.898h8.1094zm-7.0078 8.0156q0-1.9688 1.0547-2.9766 1.0547-1.0078 3.0703-1.0078 1.9453 0 3 1.0312 1.0781 1.0312 1.0781 2.9531 0 1.8516-1.0781 2.9297-1.0781 1.0547-3 1.0547-1.9688 0-3.0469-1.0312-1.0781-1.0547-1.0781-2.9531z" display="inline" fill="#fff" stroke="#fff"/></g><g transform="matrix(1.1046 0 0 1.1046 -7.5383 -9.5325)" display="none" stroke-linecap="round"><rect x="58.942" y="60.377" width="37.058" height="37.428" ry="4.102" display="inline" fill="#f00" stroke="#000" stroke-linejoin="round" stroke-opacity=".85" stroke-width="2.716"/><path d="m68.072 69.678 18.797 18.825m0-18.825-18.797 18.825" display="inline" fill="none" stroke="#fff" stroke-width="5.4955"/></g><g transform="translate(1.7352 1.5502)" display="none"><path d="m63.286 97.016c-3.5361 0-6.4032-2.8671-6.4032-6.4032v-19.592c0-3.1538 2.3893-5.8298 5.4475-6.3077v-3.9184c0-8.0279 6.4988-14.527 14.527-14.527 8.0279 0 14.527 6.4988 14.527 14.527v3.9184c3.0583 0.47785 5.4475 3.1538 5.4475 6.3077v19.592c0 3.5361-2.8671 6.4032-6.4032 6.4032zm19.21-32.303v-4.7785c0-3.0583-2.4848-5.6387-5.6387-5.6387-3.1538 0-5.5431 2.4848-5.5431 5.6387v4.7785z" display="inline" fill="#dcaf00" stroke="#000" stroke-opacity=".85" stroke-width="2.8671"/></g></g><g display="none"><g display="none" stroke="#f9f9fa"><circle cx="50" cy="50" r="45.9" clip-rule="evenodd" display="inline" fill="none" stroke-linecap="round" stroke-linejoin="round" stroke-width="3.1319"/><path d="m56.7 13.7c0.1 0.5 0.2 1 0.2 1.5 0 3.8-3.1 6.9-6.9 6.9s-6.9-3.1-6.9-6.9c0-0.5 0.1-1 0.2-1.5 2.2-0.4 4.5-0.6 6.7-0.6 2.3-0.1 4.5 0.2 6.7 0.6zm-26.1 8.4c0 7.7 4.5 14.4 11.1 17.5v35.1l8.3 8.3 8.3-8.3-0.5-7.3 3.9-3.9-3.9-3.9 5.9-5.9-5.9-5.9 0.5-8.2c6.5-3.1 11.1-9.8 11.1-17.5 0-1.3-0.1-2.5-0.4-3.8 11.1 6.7 17.9 18.7 18 31.7 0 20.4-16.5 37-37 37-20.4 0-37-16.5-37-37 0-13 6.8-25 18-31.7-0.2 1.3-0.4 2.5-0.4 3.8zm13.9 22.1h2.8v27.7h-2.8z" display="inline" fill="#f9f9fa"/><circle cx="50" cy="50" r="45.9" clip-rule="evenodd" fill="none" stroke-linecap="round" stroke-linejoin="round" stroke-opacity=".4" stroke-width="3.1319"/><path d="m56.7 13.7c0.1 0.5 0.2 1 0.2 1.5 0 3.8-3.1 6.9-6.9 6.9s-6.9-3.1-6.9-6.9c0-0.5 0.1-1 0.2-1.5 2.2-0.4 4.5-0.6 6.7-0.6 2.3-0.1 4.5 0.2 6.7 0.6zm-26.1 8.4c0 7.7 4.5 14.4 11.1 17.5v35.1l8.3 8.3 8.3-8.3-0.5-7.3 3.9-3.9-3.9-3.9 5.9-5.9-5.9-5.9 0.5-8.2c6.5-3.1 11.1-9.8 11.1-17.5 0-1.3-0.1-2.5-0.4-3.8 11.1 6.7 17.9 18.7 18 31.7 0 20.4-16.5 37-37 37-20.4 0-37-16.5-37-37 0-13 6.8-25 18-31.7-0.2 1.3-0.4 2.5-0.4 3.8zm13.9 22.1h2.8v27.7h-2.8z" display="inline" fill="#f9f9fa" fill-opacity=".4" stroke-opacity=".4"/></g><g transform="translate(50.413 -11.364)" display="inline"><circle cx="-.41322" cy="61.364" r="45.934" fill="#fff" fill-rule="evenodd" opacity=".871" stroke="#000" stroke-linecap="round" stroke-linejoin="round" stroke-opacity=".78431" stroke-width="3.1319"/><circle cx="-.41322" cy="61.364" r="42.321" fill="none"/><path d="m-0.41322 17.688a43.676 43.676 0 0 0-43.676 43.676 43.676 43.676 0 0 0 43.676 43.676 43.676 43.676 0 0 0 43.676-43.676 43.676 43.676 0 0 0-43.676-43.676zm0 6.7109c2.2642 0.0083 4.5234 0.2249 6.748 0.64648 0.10716 0.48368 0.16797 0.98402 0.16797 1.5 0 3.8226-3.0973 6.918-6.918 6.916-3.8207 0.0022-6.916-3.0914-6.916-6.9141 0-0.5181 0.06204-1.0203 0.16992-1.5059 2.2248-0.42016 4.4839-0.6357 6.748-0.64258zm-18.994 5.2988c-0.24053 1.2192-0.37133 2.4741-0.37109 3.7637 0 7.7197 4.5284 14.368 11.064 17.48v35.09l8.2988 8.2988 8.3008-8.3008-0.47656-7.3496 3.9141-3.9121-3.9141-3.9121 5.8711-5.8672-5.8711-5.8711 0.47656-8.1777c6.538-3.1106 11.066-9.7589 11.066-17.479 0-1.287-0.1334-2.541-0.37305-3.7578 11.132 6.6675 17.954 18.684 17.973 31.66-5.4e-4 20.415-16.55 36.964-36.965 36.965-20.415-5.52e-4 -36.964-16.55-36.965-36.965 0.01555-12.978 6.8371-24.997 17.971-31.666zm13.459 25.898h2.7676v27.666h-2.7656l-2e-3 -27.664v-2e-3z" fill="#f9f9f9" fill-rule="evenodd"/><path d="m6.3343 25.045c0.10716 0.48368 0.16838 0.98465 0.16838 1.5006 0 3.8227-3.0974 6.9179-6.918 6.9159-3.8207 0.0022-6.9159-3.0912-6.9159-6.9138 0-0.5181 0.0626-1.0214 0.17048-1.5069 2.2248-0.42016 4.4835-0.63504 6.7476-0.64192 2.2642 0.0083 4.5229 0.22456 6.7476 0.64614zm-26.113 8.4166c0 7.7197 4.5282 14.367 11.064 17.479v35.091l8.2987 8.2987 8.3008-8.3008-0.47566-7.3495 3.9126-3.9126-3.9126-3.9126 5.8699-5.8678-5.8699-5.8699 0.47565-8.1788c6.538-3.1106 11.066-9.7575 11.066-17.477 0-1.287-0.13288-2.5421-0.37253-3.7589 11.132 6.6675 17.954 18.684 17.972 31.661-5.4e-4 20.415-16.55 36.964-36.964 36.964-20.415-5.5e-4 -36.964-16.55-36.964-36.964 0.0155-12.978 6.8361-24.998 17.97-31.667-0.24053 1.2192-0.37066 2.4757-0.37042 3.7652zm13.83 22.135h2.7676v27.666h-2.7655l-2e-3 -27.664v-2e-3z" fill="url(#linearGradient5199)" opacity=".94"/></g><g transform="translate(50.207 -10.95)" display="inline"><circle cx="-.20661" cy="60.95" r="45.9" clip-rule="evenodd" fill="#fff" fill-rule="evenodd" stroke="#515151" stroke-linecap="round" stroke-linejoin="round" stroke-width="3.1319"/><path d="m6.4934 24.65c0.1 0.5 0.2 1 0.2 1.5 0 3.8-3.1 6.9-6.9 6.9s-6.9-3.1-6.9-6.9c0-0.5 0.1-1 0.2-1.5 2.2-0.4 4.5-0.6 6.7-0.6 2.3-0.1 4.5 0.2 6.7 0.6zm-26.1 8.4c0 7.7 4.5 14.4 11.1 17.5v35.1l8.3 8.3 8.3-8.3-0.5-7.3 3.9-3.9-3.9-3.9 5.9-5.9-5.9-5.9 0.5-8.2c6.5-3.1 11.1-9.8 11.1-17.5 0-1.3-0.1-2.5-0.4-3.8 11.1 6.7 17.9 18.7 18 31.7 0 20.4-16.5 37-37 37-20.4 0-37-16.5-37-37 0-13 6.8-25 18-31.7-0.2 1.3-0.4 2.5-0.4 3.8zm13.9 22.1h2.8v27.7h-2.8z" display="inline" fill="url(#SVGID_1_)"/></g><g display="inline"><path d="m63.4 98.5c-3.7 0-6.7-3-6.7-6.7v-20.5c0-3.3 2.5-6.1 5.7-6.6v-4.1c0-8.4 6.8-15.2 15.2-15.2s15.2 6.8 15.2 15.2v4.1c3.2 0.5 5.7 3.3 5.7 6.6v20.5c0 3.7-3 6.7-6.7 6.7zm20.1-33.8v-5c0-3.2-2.6-5.9-5.9-5.9s-5.8 2.6-5.8 5.9v5z" fill="url(#SVGID_2_-3)" stroke="#0e0e0e" stroke-width="3"/></g><g transform="matrix(1.1046 0 0 1.1046 -7.5383 -9.5325)" display="none" stroke-linecap="round"><rect x="58.942" y="60.377" width="37.058" height="37.428" ry="4.102" display="inline" fill="#f00" stroke="#040404" stroke-linejoin="round" stroke-width="2.716"/><path d="m68.072 69.678 18.797 18.825m0-18.825-18.797 18.825" display="inline" fill="none" stroke="#fff" stroke-width="5.4955"/></g><g transform="translate(5.4993 4.4312)" display="none"><rect x="62.782" y="46.083" width="30.219" height="47.986" ry="5.2592" display="inline" fill="#f00" stroke="#000" stroke-width="3"/><path d="m80.798 75.525h-5.7188l-1.1953-22.898h8.1094zm-7.0078 8.0156q0-1.9688 1.0547-2.9766 1.0547-1.0078 3.0703-1.0078 1.9453 0 3 1.0312 1.0781 1.0312 1.0781 2.9531 0 1.8516-1.0781 2.9297-1.0781 1.0547-3 1.0547-1.9688 0-3.0469-1.0312-1.0781-1.0547-1.0781-2.9531z" display="inline" fill="#fff" stroke="#fff"/></g><g transform="translate(2.9829 .81217)" display="none" stroke-linecap="round"><rect x="62.107" y="49.702" width="33.41" height="47.986" ry="5.2592" display="inline" fill="#f00" stroke="#000" stroke-linejoin="round" stroke-width="3"/><path d="m74.336 79.39v-1.7344q0-2.25 0.96094-3.9141 0.96094-1.6641 3.5156-3.5391 2.4609-1.7578 3.2344-2.8594 0.79688-1.1016 0.79688-2.4609 0-1.5234-1.125-2.3203t-3.1406-0.79688q-3.5156 0-8.0156 2.2969l-2.5547-5.1328q5.2266-2.9297 11.086-2.9297 4.8281 0 7.6641 2.3203 2.8594 2.3203 2.8594 6.1875 0 2.5781-1.1719 4.4531t-4.4531 4.2188q-2.25 1.6641-2.8594 2.5312-0.58594 0.86719-0.58594 2.2734v1.4062zm-0.75 8.0156q0-1.9688 1.0547-2.9766 1.0547-1.0078 3.0703-1.0078 1.9453 0 3 1.0312 1.0781 1.0312 1.0781 2.9531 0 1.8516-1.0781 2.9297-1.0781 1.0547-3 1.0547-1.9688 0-3.0469-1.0312-1.0781-1.0547-1.0781-2.9531z" display="inline" fill="#fff" stroke="#fff"/></g><g transform="translate(-2.0168 -1.718)" display="inline"><path transform="matrix(.94486 0 0 .94486 15.063 13.945)" d="m15.324 42.4c-2.0753-0.068456-5.7194-18.012-7.1876-19.48-1.4267-1.4267-19.088-4.7122-19.021-6.7287 0.068457-2.0753 18.012-5.7194 19.48-7.1876 1.4267-1.4267 4.7122-19.088 6.7287-19.021 2.0753 0.068457 5.7194 18.012 7.1876 19.48 1.4267 1.4267 19.088 4.7122 19.021 6.7287-0.06846 2.0753-18.012 5.7194-19.48 7.1876-1.4267 1.4267-4.7122 19.088-6.7287 19.021z" fill="url(#radialGradient9501)" stroke="#000" stroke-linecap="round" stroke-linejoin="round" stroke-width="5.8451" style="paint-order:markers stroke fill"/></g></g></svg>
