<svg xml:space="preserve" version="1.1" viewBox="0 0 100 100" id="svg2" xmlns:xlink="http://www.w3.org/1999/xlink" xmlns="http://www.w3.org/2000/svg"><defs id="defs23"><linearGradient id="SVGID_2_-3" gradientUnits="userSpaceOnUse" x1="73.8" y1="1532.14" x2="73.8" y2="1574" gradientTransform="translate(3.8 -1480.3)"><stop offset="0" style="stop-color:#eaa74b;stop-opacity:1" id="stop373"/><stop offset="1" style="stop-color:#ac6f25;stop-opacity:1" id="stop375"/></linearGradient><linearGradient xlink:href="#linearGradient4316" id="linearGradient5199" x1="53.24" y1="12.75" x2="53.24" y2="86.36" gradientUnits="userSpaceOnUse" gradientTransform="translate(-50.41 11.36)"/><linearGradient id="linearGradient4316"><stop id="stop4318" offset="0" style="stop-color:#226e23;stop-opacity:1"/><stop id="stop4320" offset="1" style="stop-color:#63ab3a;stop-opacity:1"/></linearGradient></defs><linearGradient id="SVGID_1_" gradientUnits="userSpaceOnUse" x1="50.27" y1="-1470.94" x2="49.7" y2="-1392.79" gradientTransform="matrix(1 0 0 -1 -50.2 -1373.16)"><stop offset="0" style="stop-color:gray" id="stop4"/><stop offset="1" style="stop-color:#4b4b4d" id="stop6"/></linearGradient><linearGradient id="SVGID_2_" gradientUnits="userSpaceOnUse" x1="73.8" y1="1532.14" x2="73.8" y2="1574" gradientTransform="translate(-2.73 -1488.34)"><stop offset="0" style="stop-color:#d69029" id="stop11"/><stop offset="1" style="stop-color:#af7125" id="stop13"/></linearGradient><g stroke="#0c0c0c" stroke-opacity=".8" id="g11474" style="display:inline"><g id="layer12" style="display:inline"><path d="M51.63 7.06c-.76 0-1.52.02-2.27.06-.34.01-.69.05-1.03.07-.39.03-.78.05-1.17.1-.48.04-.96.1-1.44.17l-.74.1c-.6.08-1.18.19-1.76.3l-.35.06-1.84.41-.27.07c-.62.15-1.24.32-1.85.5l-.2.06-1.86.61-.16.06c-.62.22-1.22.45-1.83.7l-.12.04.06.17.99 3.47a40.66 40.66 0 0 1 7.64-2.36l.12-.02a40.71 40.71 0 0 1 3.9-.59c.36-.04.74-.06 1.11-.09l.97-.07a41.08 41.08 0 0 1 43.05 43.3v.05c-.04.75-.1 1.49-.19 2.23v.01a9.97 9.97 0 0 1 3.26 3.76v-.05c.13-.66.24-1.32.34-1.98v-.06c.1-.65.18-1.3.24-1.96l.07-.85.09-1.25A44.87 44.87 0 0 0 51.63 7.06zm1.6 10.26c-.53-.02-1.07-.02-1.6 0-2.06 0-4.21.2-6.27.56a5.1 5.1 0 0 0-.13 2.2v.07c.04.26.1.5.16.75 2.07.57 4.12 1.16 5.81 1.78.9.33 1.68.65 2.48 1.12.39.23.8.5 1.26 1 .22-.14.43-.29.62-.44l.16-.13c.3-.24.57-.52.82-.82A6.5 6.5 0 0 0 58 20.26l.02-.18c.04-.26.06-.52.06-.8 0-.46-.1-.93-.19-1.4a32.9 32.9 0 0 0-4.67-.56zm16.16 4.87a15.32 15.32 0 0 1 .33 4.87c-.02.28-.06.56-.1.83l-.05.48c-.04.3-.1.59-.16.88l-.07.37c-.08.34-.16.67-.26 1l-.06.23v.01a18 18 0 0 1-.37 1.09l-.03.1a17.98 17.98 0 0 1-1.68 3.35 18.97 18.97 0 0 1 16.71 3.5c-.34-.82-.7-1.63-1.1-2.43l-.2-.35a34.94 34.94 0 0 0-2.51-4.18l-.32-.45a34.8 34.8 0 0 0-3.37-3.97l-.42-.4a34.67 34.67 0 0 0-3.53-3.02c-.21-.16-.42-.33-.64-.48-.7-.5-1.42-.98-2.17-1.43zm-58.98 12.1v.02a32.4 32.4 0 0 0-.78 1.93l-.04.1a38.4 38.4 0 0 0-.7 2.06l-.02.04c-.19.6-.36 1.2-.52 1.82l-.1.34c-.16.6-.3 1.2-.43 1.82l-.08.36c-.15.7-.27 1.4-.38 2.12l-.02.1-.19 1.45c-.03.28-.08.56-.1.84a44.88 44.88 0 0 0-.24 4.59A44.87 44.87 0 0 0 54.2 96.6l.63-.05c.65-.04 1.3-.1 1.95-.18l.62-.07a44.84 44.84 0 0 0 4.85-.9h.02-6.44a8.27 8.27 0 0 1-5.92-2.53 41.14 41.14 0 0 1-3.92-.36c-.06 0-.11 0-.16-.02-.6-.08-1.18-.18-1.76-.29l-.24-.04a32.9 32.9 0 0 1-1.72-.38l-.22-.05c-.6-.14-1.2-.3-1.79-.48l-.09-.02c-.57-.17-1.14-.35-1.7-.55l-.21-.07a40.7 40.7 0 0 1-1.61-.6l-.23-.1c-.5-.2-1-.42-1.5-.64l-.35-.16-1.4-.68-.33-.17c-.48-.25-.95-.51-1.41-.78l-.27-.16c-.45-.26-.9-.53-1.34-.81l-.35-.23a41.23 41.23 0 0 1-8.36-7.2l-.47-.54-.77-.92-.48-.62-.7-.91-.45-.64-.68-.98-.4-.62-.62-1.01-.4-.7-.56-1-.4-.77-.47-.95-.39-.86-.41-.95c-.14-.31-.26-.63-.38-.95l-.33-.85-.35-1.03-.3-.89-.23-.85c-.1-.36-.21-.72-.3-1.09-.1-.35-.17-.72-.26-1.08l-.18-.82-.22-1.24-.14-.78c-.07-.46-.12-.93-.18-1.4l-.07-.6-.1-1.3c-.02-.27-.05-.53-.06-.8a41.54 41.54 0 0 1 0-4.24c.01-.12.03-.23.03-.35.04-.6.09-1.2.15-1.78l.05-.46c.07-.57.14-1.14.23-1.7l.05-.26c.1-.61.21-1.22.34-1.83l.05-.22a40.72 40.72 0 0 1 1.05-3.89l.03-.08c.21-.64.44-1.28.68-1.9v-.02c.26-.65.52-1.29.8-1.92l-3.52-.95-.18-.05zm26.86 2.52c-.14.04-.35.1-.46.15-.16.44-.35 1.02-.56 1.77-.49 1.67-1.06 3.88-1.66 6.07a78.9 78.9 0 0 1-1.87 6.15c-.33.9-.65 1.68-1.13 2.48-.23.4-.5.81-1 1.3a3.97 3.97 0 0 1-5.58-.07 5.65 5.65 0 0 1-.98-1.27c-.48-.8-.82-1.6-1.17-2.5a83.03 83.03 0 0 1-2-6.29c-.55-1.85-1.05-3.63-1.5-5.19a34.79 34.79 0 0 0-2 7.7l-.09.72a34.61 34.61 0 0 0-.2 5.73c0 .2.03.4.04.6.03.37.05.75.09 1.12l.06.56.15 1.13.1.6a34.37 34.37 0 0 0 2.38 8.08l.32.7.35.74c.1.22.22.44.34.66.14.27.27.54.42.8.1.2.21.37.32.56.16.28.32.56.5.84l.24.39a34.6 34.6 0 0 0 2.47 3.42l.84.99.18.2c.26.3.54.58.8.86l.3.3c.28.29.57.57.86.84l.24.24.9.8.3.25a34.58 34.58 0 0 0 3.46 2.59l.3.2 1.13.68.05.03a34.58 34.58 0 0 0 13.33 4.46v-7.6l-3.68-3.67V42.11l-1.03-.53-.4-.24a17.77 17.77 0 0 1-5.16-4.53zm9.21 9.6v25.91h1.06v-7.94c0-1.92.58-3.7 1.56-5.2V46.42z" display="inline" fill="#0f0f0d" fill-opacity=".5" stroke="#0c0c0c" stroke-opacity=".3" id="path11430" style="display:inline"/><path d="M87.73 57.58v-4.22c0-11.15-11.61-19.56-23.4-13.8A14.34 14.34 0 0 0 56.4 52.5v5.1a6.96 6.96 0 0 0-5.87 6.8v22.7a5.3 5.3 0 0 0 5.3 5.3H88.3a5.3 5.3 0 0 0 5.3-5.3V64.38c0-3.4-2.58-6.28-5.88-6.8zm-9.58 0H66.1v-6.15a4.6 4.6 0 0 1 2.16-3.92c4.97-3.07 9.9.45 9.9 4.92v5.15z" display="inline" fill="#eaa74b" stroke="none" id="path11432" style="display:inline;fill-rule:evenodd;stroke:#000;stroke-width:1.5;stroke-linejoin:round;stroke-dasharray:none;stroke-opacity:1"/><path d="M27.82 52.34c-1.96-.07-5.4-17.02-6.79-18.4C19.68 32.57 3 29.47 3.06 27.56c.06-1.96 17.02-5.4 18.4-6.79 1.35-1.35 4.46-18.03 6.36-17.97 1.96.06 5.4 17.02 6.8 18.4 1.34 1.35 18.03 4.46 17.97 6.36-.07 1.96-17.02 5.4-18.4 6.8-1.36 1.34-4.46 18.03-6.37 17.97z" display="inline" fill="#62c74d" stroke="none" style="display:inline;fill:#62c74d;fill-opacity:1;stroke:#000;stroke-width:1.5;stroke-linecap:round;stroke-linejoin:round;stroke-dasharray:none;stroke-opacity:1;paint-order:normal" id="path11434"/></g></g></svg>
