<svg height="64" width="64" viewBox="0 0 64 64" xml:space="preserve" xmlns="http://www.w3.org/2000/svg"><path style="display:inline;opacity:.5;fill:#0f0f0d;stroke-width:.492611" d="M32 2C15.46 2 2 15.46 2 32s13.46 30 30 30 30-13.46 30-30S48.54 2 32 2Zm0 57.48A27.5 27.5 0 0 1 4.54 32 27.5 27.5 0 0 1 32 4.52 27.5 27.5 0 0 1 59.46 32 27.5 27.5 0 0 1 32 59.48zm11.9-47.35a12.2 12.2 0 0 1-6.7 13.34l-.32 5.13 3.7 3.7-3.7 3.69 2.44 2.44-2.44 2.44.32 4.57-5.2 5.2-5.2-5.2V25.46a12.1 12.1 0 0 1-6.94-10.95c0-.82.12-1.57.25-2.38a23.15 23.15 0 1 0 23.79 0zM32 14.5a4.33 4.33 0 0 0 4.32-4.32c0-.32-.06-.63-.13-.94A18.68 18.68 0 0 0 32 8.87c-1.38 0-2.82.13-4.2.38-.06.31-.12.62-.12.94A4.33 4.33 0 0 0 32 14.5zm-3.44 13.83h1.75V45.7h-1.75z"/><g style="display:inline;stroke-width:1;stroke:#34220a;stroke-opacity:1"><g style="display:inline;stroke:#34220a;stroke-width:1;stroke-opacity:1" stroke="#0c0c0c" stroke-opacity=".8"><path d="M56.18 36.38v-2.74c0-7.24-7.55-12.7-15.22-8.96a9.3 9.3 0 0 0-5.14 8.4v3.3A4.52 4.52 0 0 0 32 40.79v14.76c0 1.9 1.54 3.44 3.44 3.44h21.12c1.9 0 3.44-1.54 3.44-3.44V40.8c0-2.2-1.68-4.08-3.82-4.41zm-6.23 0h-7.83v-4a3 3 0 0 1 1.4-2.54c3.23-2 6.43.3 6.43 3.2v3.34z" display="inline" fill="#eaa74b" stroke="none" style="display:inline;stroke:#34220a;stroke-width:1.99999;stroke-linecap:round;stroke-linejoin:round;stroke-dasharray:none;stroke-opacity:1;paint-order:stroke fill markers"/></g></g></svg>
