<svg xml:space="preserve" viewBox="0 0 100 100" xmlns="http://www.w3.org/2000/svg"><g style="display:inline" stroke="#0c0c0c" stroke-opacity=".8"><path d="M51.78 7.06c-.76 0-1.52.02-2.27.06-.34.01-.68.05-1.03.07-.39.03-.78.05-1.17.1-.48.04-.96.1-1.44.17l-.74.1c-.59.08-1.17.19-1.76.3l-.35.06-1.83.41-.28.07c-.62.15-1.23.32-1.84.5l-.21.06-1.86.61-.16.06c-.61.22-1.22.45-1.82.7l-.12.04.05.17 1 3.47a40.66 40.66 0 0 1 7.63-2.36l.12-.02a40.71 40.71 0 0 1 3.9-.59c.37-.04.74-.06 1.12-.08l.97-.08a41.46 41.46 0 0 1 4.07 0c.2 0 .4.03.6.04l1.38.1.69.08a40.61 40.61 0 0 1 5.06.9c.24.06.48.11.71.18.39.1.77.2 1.15.32l.7.2.07.03c.55.17 1.1.36 1.63.55l.8.31.92.37.85.36A40.72 40.72 0 0 1 71.69 16l.77.45.83.49.62.4c.32.2.64.4.95.62a41.08 41.08 0 0 1 2.45 1.82l.28.22.02.02c.35.28.69.57 1.02.86l.35.3a41.72 41.72 0 0 1 3.46 3.47l.22.25a41.29 41.29 0 0 1 4.75 6.66l.07.13.76 1.4.07.13.7 1.43.06.15a40.71 40.71 0 0 1 2.73 8.06l.01.06a8.75 8.75 0 0 1 4.48 3.82v-.05a44.47 44.47 0 0 0-3.86-13.65l-.04-.1-.02-.02c-.25-.54-.51-1.06-.78-1.59l-.15-.29-.76-1.38-.27-.46a44.76 44.76 0 0 0-3.13-4.63l-.37-.47c-.3-.38-.6-.76-.92-1.13l-.35-.4c-.33-.39-.67-.77-1.01-1.14l-.35-.36c-.35-.37-.7-.74-1.07-1.1l-.4-.38c-.36-.35-.72-.7-1.1-1.03 0 0 0-.02-.02-.02l-.24-.2A45.22 45.22 0 0 0 78.6 16c-.28-.22-.57-.42-.86-.62-.27-.2-.54-.4-.82-.58-.29-.2-.58-.38-.88-.57l-.87-.57-.93-.54-.86-.5-.93-.5-.96-.48-.92-.44a45.14 45.14 0 0 0-5.96-2.26l-1.05-.3-.94-.25-1.2-.27-.93-.2-1.2-.22-.9-.15c-.46-.07-.91-.12-1.37-.17l-.82-.1c-.48-.05-.97-.08-1.45-.11L54 7.12a45.3 45.3 0 0 0-2.22-.06Zm1.6 10.26c-.53-.02-1.06-.02-1.6 0a37 37 0 0 0-6.27.56 6.07 6.07 0 0 0-.13 2.2l.01.07c.04.26.09.5.15.75 2.08.57 4.12 1.16 5.82 1.78.89.33 1.67.65 2.47 1.12.4.23.8.5 1.27 1l.62-.44.15-.13c.3-.24.57-.52.83-.82.09-.1.18-.2.26-.32a6.5 6.5 0 0 0 1.19-2.83l.03-.18c.03-.26.05-.52.05-.8 0-.46-.1-.93-.19-1.4-1.54-.28-3.08-.5-4.66-.56zm16.17 4.87c.28 1.21.37 2.34.37 3.55 0 7.2-4.3 13.47-10.38 16.37l-.47 7.67 4.6 4.6v-3.4c0-4.71 3.9-8.61 8.61-8.61H85l-.02-.08a35.1 35.1 0 0 0-.98-2.88l-.04-.11-.01-.03-.51-1.22-.24-.53a34.9 34.9 0 0 0-1.87-3.54l-.37-.6a35.05 35.05 0 0 0-1.1-1.64l-.6-.82a34.4 34.4 0 0 0-1.09-1.37l-.5-.58a34.85 34.85 0 0 0-2.4-2.45l-.39-.38a35.6 35.6 0 0 0-1.47-1.24l-.48-.38c-.38-.3-.78-.6-1.18-.88l-.5-.35c-.55-.38-1.12-.75-1.7-1.1zm-58.99 12.1v.02a44.5 44.5 0 0 0-.78 1.93l-.04.1a49.9 49.9 0 0 0-.7 2.06l-.02.04c-.19.6-.36 1.2-.52 1.82l-.1.34c-.16.6-.3 1.2-.42 1.82l-.09.36c-.14.7-.27 1.4-.38 2.12l-.02.1-.19 1.45-.1.84a44.88 44.88 0 0 0-.24 4.59 44.87 44.87 0 0 0 46.97 44.76l.75-.05 1.35-.1.88-.1a44.62 44.62 0 0 0 3.19-.49l1.1-.21.87-.2 1.13-.28.6-.17c.94-.26 1.86-.55 2.77-.87l.28-.1a8.76 8.76 0 0 1-2.42-3.15h-.02c-.96.31-1.93.59-2.92.83l-.26.06c-.94.22-1.88.41-2.84.57l-.2.03-.74.1a40.6 40.6 0 0 1-3.1.32l-.7.04A41.08 41.08 0 0 1 10.81 49.7l.03-.34c.03-.6.08-1.2.14-1.78l.06-.46c.06-.57.13-1.14.22-1.7l.05-.26c.1-.61.22-1.22.34-1.83l.06-.22a40.5 40.5 0 0 1 1.05-3.89l.03-.08c.2-.64.43-1.28.68-1.9v-.02c.25-.65.51-1.29.8-1.92l-3.52-.95-.19-.05zm26.86 2.52c-.13.04-.34.1-.46.15-.15.44-.34 1.02-.56 1.77-.49 1.67-1.06 3.88-1.66 6.07a78.9 78.9 0 0 1-1.87 6.15c-.33.9-.65 1.68-1.12 2.48-.24.4-.5.81-1.02 1.3a3.97 3.97 0 0 1-5.56-.07 5.65 5.65 0 0 1-1-1.27c-.47-.8-.8-1.6-1.16-2.5a83.03 83.03 0 0 1-2-6.29l-1.5-5.19a34.98 34.98 0 0 0-2 7.7l-.09.72a34.43 34.43 0 0 0-.24 4A34.58 34.58 0 0 0 53.44 86.4c.2 0 .4-.03.6-.04l1.1-.08.56-.06a34.81 34.81 0 0 0 4.32-.77l.62-.15.94-.27.62-.18c.4-.12.78-.26 1.16-.4l.31-.1V56.22l-4.6 4.6 3.65 3.64-3.65 3.65.47 6.83-7.76 7.76-7.76-7.76V42.1c-.36-.17-.7-.35-1.04-.53l-.4-.24a17.93 17.93 0 0 1-5.16-4.53zm9.22 9.6v25.91h2.61v-25.9z" display="inline" fill="#0f0f0d" style="display:inline"/><rect x="84.91" y="55.83" width="36.37" height="63.43" ry="6.95" display="inline" fill="#e54835" style="display:inline;paint-order:normal" transform="translate(4.68 4.78) scale(.73591)" stroke="none"/><path d="M83.58 75.32h-5.72l-1.2-22.9h8.12zm-7 8.02c0-1.31.35-2.3 1.05-2.98.7-.67 1.73-1 3.07-1 1.3 0 2.3.34 3 1.03.72.68 1.08 1.67 1.08 2.95 0 1.23-.36 2.2-1.08 2.93a4.1 4.1 0 0 1-3 1.05 4.23 4.23 0 0 1-3.05-1.03 3.94 3.94 0 0 1-1.07-2.95z" display="inline" fill="#fff" stroke="#fff" stroke-opacity="1" style="display:inline"/><path d="M27.98 52.34c-1.96-.07-5.4-17.02-6.8-18.4-1.34-1.36-18.03-4.46-17.97-6.37.07-1.96 17.02-5.4 18.4-6.79 1.36-1.35 4.46-18.03 6.37-17.97 1.96.06 5.4 17.02 6.79 18.4 1.34 1.35 18.03 4.46 17.97 6.36-.06 1.96-17.02 5.4-18.4 6.8-1.35 1.34-4.46 18.03-6.36 17.97z" display="inline" fill="#62c74d" style="display:inline;paint-order:normal" stroke="none"/></g></svg>
