<svg xml:space="preserve" version="1.1" viewBox="0 0 100 100" id="svg2" xmlns:xlink="http://www.w3.org/1999/xlink" xmlns="http://www.w3.org/2000/svg"><defs id="defs23"><linearGradient id="SVGID_2_-3" gradientUnits="userSpaceOnUse" x1="73.8" y1="1532.14" x2="73.8" y2="1574" gradientTransform="translate(3.8 -1480.3)"><stop offset="0" style="stop-color:#eaa74b;stop-opacity:1" id="stop373"/><stop offset="1" style="stop-color:#ac6f25;stop-opacity:1" id="stop375"/></linearGradient><linearGradient xlink:href="#linearGradient4316" id="linearGradient5199" x1="53.24" y1="12.75" x2="53.24" y2="86.36" gradientUnits="userSpaceOnUse" gradientTransform="translate(-50.41 11.36)"/><linearGradient id="linearGradient4316"><stop id="stop4318" offset="0" style="stop-color:#226e23;stop-opacity:1"/><stop id="stop4320" offset="1" style="stop-color:#63ab3a;stop-opacity:1"/></linearGradient></defs><linearGradient id="SVGID_1_" gradientUnits="userSpaceOnUse" x1="50.27" y1="-1470.94" x2="49.7" y2="-1392.79" gradientTransform="matrix(1 0 0 -1 -50.2 -1373.16)"><stop offset="0" style="stop-color:gray" id="stop4"/><stop offset="1" style="stop-color:#4b4b4d" id="stop6"/></linearGradient><linearGradient id="SVGID_2_" gradientUnits="userSpaceOnUse" x1="73.8" y1="1532.14" x2="73.8" y2="1574" gradientTransform="translate(-2.73 -1488.34)"><stop offset="0" style="stop-color:#d69029" id="stop11"/><stop offset="1" style="stop-color:#af7125" id="stop13"/></linearGradient><g stroke="#0c0c0c" stroke-opacity=".8" id="g11474" style="display:inline"><g id="layer2" style="display:inline"><path d="M50 5.18A44.87 44.87 0 0 0 5.18 50a44.87 44.87 0 0 0 55.46 43.53h-6.43A8.27 8.27 0 0 1 48.28 91a41.08 41.08 0 0 1-39.3-41A41.08 41.08 0 0 1 50 8.95 41.08 41.08 0 0 1 90.76 54.6a9.97 9.97 0 0 1 3.26 3.76A44.87 44.87 0 0 0 50 5.18zm1.6 10.27c-.53-.02-1.06-.02-1.6 0a36 36 0 0 0-6.27.56c-.09.47-.18.94-.18 1.4 0 3.56 2.9 6.46 6.45 6.46 3.55 0 6.45-2.9 6.45-6.46 0-.46-.1-.93-.18-1.4-1.55-.28-3.09-.5-4.67-.56zM32.23 20.3a34.58 34.58 0 0 0 13.68 64v-7.57l-3.67-3.68V40.23a18.06 18.06 0 0 1-10.38-16.36c0-1.22.19-2.34.37-3.56zm35.54 0a17.95 17.95 0 0 1-2.46 13.22 18.97 18.97 0 0 1 16.71 3.5A34.8 34.8 0 0 0 67.77 20.3zM44.86 44.54v25.9h1.05v-7.93c0-1.93.58-3.7 1.56-5.2V44.54z" display="inline" fill="#0f0f0d" fill-opacity=".5" stroke="#0c0c0c" stroke-opacity=".3" id="path11468" style="display:inline"/><path d="M86.1 55.7v-4.22c0-11.14-11.61-19.55-23.4-13.79a14.34 14.34 0 0 0-7.91 12.93v5.09a6.96 6.96 0 0 0-5.88 6.8v22.73a5.3 5.3 0 0 0 5.3 5.3h32.47a5.3 5.3 0 0 0 5.3-5.3V62.5c0-3.4-2.58-6.29-5.87-6.8zm-9.58 0H64.47v-6.15a4.6 4.6 0 0 1 2.17-3.92c4.97-3.06 9.88.46 9.88 4.93v5.15z" display="inline" fill="#eaa74b" stroke="none" id="path11470" style="display:inline;stroke:#000;stroke-width:1.5;stroke-linecap:round;stroke-linejoin:round;stroke-dasharray:none;stroke-opacity:.994973"/></g></g></svg>
