<svg height="64" width="64" viewBox="0 0 64 64" xml:space="preserve" xmlns="http://www.w3.org/2000/svg"><path style="display:inline;fill:#0f0f0d;stroke-width:.492611" d="M32 2C15.46 2 2 15.46 2 32s13.46 30 30 30 30-13.46 30-30S48.54 2 32 2Zm0 57.48A27.5 27.5 0 0 1 4.54 32 27.5 27.5 0 0 1 32 4.52 27.5 27.5 0 0 1 59.46 32 27.5 27.5 0 0 1 32 59.48zm11.9-47.35a12.2 12.2 0 0 1-6.7 13.34l-.32 5.13 3.7 3.7-3.7 3.69 2.44 2.44-2.44 2.44.32 4.57-5.2 5.2-5.2-5.2V25.46a12.1 12.1 0 0 1-6.94-10.95c0-.82.12-1.57.25-2.38a23.15 23.15 0 1 0 23.79 0zM32 14.5a4.33 4.33 0 0 0 4.32-4.32c0-.32-.06-.63-.13-.94A18.68 18.68 0 0 0 32 8.87c-1.38 0-2.82.13-4.2.38-.06.31-.12.62-.12.94A4.33 4.33 0 0 0 32 14.5zm-3.44 13.83h1.75V45.7h-1.75z"/><g style="display:inline;stroke-width:1;stroke:#34220a;stroke-opacity:1"><g style="display:inline;stroke:#34220a;stroke-width:1;stroke-opacity:1" stroke="#0c0c0c" stroke-opacity=".8"><rect x="39.15" y="22.7" width="20" height="34.04" ry="3.73" display="inline" fill="#e54835" stroke="none" style="display:inline;stroke:#4b110a;stroke-width:2.0011;stroke-linecap:round;stroke-linejoin:round;stroke-dasharray:none;stroke-opacity:1;paint-order:stroke fill markers" transform="matrix(1 0 0 .9989 3.85 6.33)"/><path d="M54.81 49.44h-3.59l-.75-14.46h5.1zm-4.4 5.06c0-.83.23-1.45.67-1.88.44-.42 1.08-.63 1.92-.63.82 0 1.44.21 1.89.65.45.43.67 1.05.67 1.86 0 .78-.22 1.4-.67 1.85-.46.45-1.08.67-1.89.67-.82 0-1.46-.22-1.9-.65a2.5 2.5 0 0 1-.68-1.87z" display="inline" fill="#fff" stroke="#fff" style="display:inline;stroke:#fff;stroke-width:.868522;stroke-opacity:1"/></g></g></svg>
