<?xml version="1.0" encoding="UTF-8"?>
<svg version="1.1" viewBox="0 0 100 100" xml:space="preserve" xmlns="http://www.w3.org/2000/svg"><g display="none" stroke="#0c0c0c" stroke-opacity=".85"><circle cx="50" cy="50" r="45.9" clip-rule="evenodd" fill="none" stroke-linecap="round" stroke-linejoin="round" stroke-width="3.1319"/><path d="m56.7 13.7c0.1 0.5 0.2 1 0.2 1.5 0 3.8-3.1 6.9-6.9 6.9s-6.9-3.1-6.9-6.9c0-0.5 0.1-1 0.2-1.5 2.2-0.4 4.5-0.6 6.7-0.6 2.3-0.1 4.5 0.2 6.7 0.6zm-26.1 8.4c0 7.7 4.5 14.4 11.1 17.5v35.1l8.3 8.3 8.3-8.3-0.5-7.3 3.9-3.9-3.9-3.9 5.9-5.9-5.9-5.9 0.5-8.2c6.5-3.1 11.1-9.8 11.1-17.5 0-1.3-0.1-2.5-0.4-3.8 11.1 6.7 17.9 18.7 18 31.7 0 20.4-16.5 37-37 37-20.4 0-37-16.5-37-37 0-13 6.8-25 18-31.7-0.2 1.3-0.4 2.5-0.4 3.8zm13.9 22.1h2.8v27.7h-2.8z" display="inline" fill="#0c0c0c" fill-opacity=".85"/></g><g stroke="#0c0c0c" stroke-opacity=".4"><circle cx="50" cy="50" r="45.9" clip-rule="evenodd" fill="none" stroke-linecap="round" stroke-linejoin="round" stroke-width="3.1319"/><path d="m56.7 13.7c0.1 0.5 0.2 1 0.2 1.5 0 3.8-3.1 6.9-6.9 6.9s-6.9-3.1-6.9-6.9c0-0.5 0.1-1 0.2-1.5 2.2-0.4 4.5-0.6 6.7-0.6 2.3-0.1 4.5 0.2 6.7 0.6zm-26.1 8.4c0 7.7 4.5 14.4 11.1 17.5v35.1l8.3 8.3 8.3-8.3-0.5-7.3 3.9-3.9-3.9-3.9 5.9-5.9-5.9-5.9 0.5-8.2c6.5-3.1 11.1-9.8 11.1-17.5 0-1.3-0.1-2.5-0.4-3.8 11.1 6.7 17.9 18.7 18 31.7 0 20.4-16.5 37-37 37-20.4 0-37-16.5-37-37 0-13 6.8-25 18-31.7-0.2 1.3-0.4 2.5-0.4 3.8zm13.9 22.1h2.8v27.7h-2.8z" fill="#0c0c0c" fill-opacity=".4"/></g><g display="none" stroke="#f9f9fa"><circle cx="50" cy="50" r="45.9" clip-rule="evenodd" display="inline" fill="none" stroke-linecap="round" stroke-linejoin="round" stroke-width="3.1319"/><path d="m56.7 13.7c0.1 0.5 0.2 1 0.2 1.5 0 3.8-3.1 6.9-6.9 6.9s-6.9-3.1-6.9-6.9c0-0.5 0.1-1 0.2-1.5 2.2-0.4 4.5-0.6 6.7-0.6 2.3-0.1 4.5 0.2 6.7 0.6zm-26.1 8.4c0 7.7 4.5 14.4 11.1 17.5v35.1l8.3 8.3 8.3-8.3-0.5-7.3 3.9-3.9-3.9-3.9 5.9-5.9-5.9-5.9 0.5-8.2c6.5-3.1 11.1-9.8 11.1-17.5 0-1.3-0.1-2.5-0.4-3.8 11.1 6.7 17.9 18.7 18 31.7 0 20.4-16.5 37-37 37-20.4 0-37-16.5-37-37 0-13 6.8-25 18-31.7-0.2 1.3-0.4 2.5-0.4 3.8zm13.9 22.1h2.8v27.7h-2.8z" display="inline" fill="#f9f9fa"/><circle cx="50" cy="50" r="45.9" clip-rule="evenodd" fill="none" stroke-linecap="round" stroke-linejoin="round" stroke-opacity=".4" stroke-width="3.1319"/><path d="m56.7 13.7c0.1 0.5 0.2 1 0.2 1.5 0 3.8-3.1 6.9-6.9 6.9s-6.9-3.1-6.9-6.9c0-0.5 0.1-1 0.2-1.5 2.2-0.4 4.5-0.6 6.7-0.6 2.3-0.1 4.5 0.2 6.7 0.6zm-26.1 8.4c0 7.7 4.5 14.4 11.1 17.5v35.1l8.3 8.3 8.3-8.3-0.5-7.3 3.9-3.9-3.9-3.9 5.9-5.9-5.9-5.9 0.5-8.2c6.5-3.1 11.1-9.8 11.1-17.5 0-1.3-0.1-2.5-0.4-3.8 11.1 6.7 17.9 18.7 18 31.7 0 20.4-16.5 37-37 37-20.4 0-37-16.5-37-37 0-13 6.8-25 18-31.7-0.2 1.3-0.4 2.5-0.4 3.8zm13.9 22.1h2.8v27.7h-2.8z" display="inline" fill="#f9f9fa" fill-opacity=".4" stroke-opacity=".4"/></g><g transform="translate(1.7352 1.5502)" display="none"><path d="m63.286 97.016c-3.5361 0-6.4032-2.8671-6.4032-6.4032v-19.592c0-3.1538 2.3893-5.8298 5.4475-6.3077v-3.9184c0-8.0279 6.4988-14.527 14.527-14.527 8.0279 0 14.527 6.4988 14.527 14.527v3.9184c3.0583 0.47785 5.4475 3.1538 5.4475 6.3077v19.592c0 3.5361-2.8671 6.4032-6.4032 6.4032zm19.21-32.303v-4.7785c0-3.0583-2.4848-5.6387-5.6387-5.6387-3.1538 0-5.5431 2.4848-5.5431 5.6387v4.7785z" display="inline" fill="#f2c100" stroke="#000" stroke-opacity=".85" stroke-width="2.8671"/></g><g transform="matrix(1.1046 0 0 1.1046 -7.5383 -9.5325)" stroke-linecap="round"><rect x="58.942" y="60.377" width="37.058" height="37.428" ry="4.102" fill="#f00" stroke="#000" stroke-linejoin="round" stroke-opacity=".85" stroke-width="2.716"/><path d="m68.072 69.678 18.797 18.825m0-18.825-18.797 18.825" fill="none" stroke="#fff" stroke-width="5.4955"/></g><g transform="translate(2.9829 .81217)" display="none" stroke-linecap="round"><rect x="62.107" y="49.702" width="33.41" height="47.986" ry="5.2592" display="inline" fill="#f00" stroke="#000" stroke-linejoin="round" stroke-opacity=".85" stroke-width="3"/><text x="67.866776" y="90.757294" fill="#ffffff" font-family="'Open Sans'" font-size="48px" font-weight="bold" style="font-variant-caps:normal;font-variant-east-asian:normal;font-variant-ligatures:normal;font-variant-numeric:normal" xml:space="preserve"><tspan x="67.866776" y="90.757294" fill="#ffffff" font-family="'Open Sans'" font-size="48px" font-weight="bold" style="font-variant-caps:normal;font-variant-east-asian:normal;font-variant-ligatures:normal;font-variant-numeric:normal">?</tspan></text></g><g transform="translate(5.4993 4.4312)" display="none"><rect x="62.782" y="46.083" width="30.219" height="47.986" ry="5.2592" display="inline" fill="#f00" stroke="#000" stroke-opacity=".85" stroke-width="3"/><text x="71.047661" y="86.892189" display="inline" fill="#ffffff" font-family="'Open Sans'" font-size="48px" font-weight="bold" style="font-variant-caps:normal;font-variant-east-asian:normal;font-variant-ligatures:normal;font-variant-numeric:normal" xml:space="preserve"><tspan x="71.047661" y="86.892189" fill="#ffffff" font-family="'Open Sans'" font-size="48px" font-weight="bold" style="font-variant-caps:normal;font-variant-east-asian:normal;font-variant-ligatures:normal;font-variant-numeric:normal">!</tspan></text></g><g transform="translate(-2.0168 -1.718)" display="none"><path transform="matrix(.94486 0 0 .94486 15.063 13.945)" d="m15.324 42.4c-2.0753-0.068456-5.7194-18.012-7.1876-19.48-1.4267-1.4267-19.088-4.7122-19.021-6.7287 0.068457-2.0753 18.012-5.7194 19.48-7.1876 1.4267-1.4267 4.7122-19.088 6.7287-19.021 2.0753 0.068457 5.7194 18.012 7.1876 19.48 1.4267 1.4267 19.088 4.7122 19.021 6.7287-0.06846 2.0753-18.012 5.7194-19.48 7.1876-1.4267 1.4267-4.7122 19.088-6.7287 19.021z" fill="#00e900" stroke="#000" stroke-linecap="round" stroke-linejoin="round" stroke-opacity=".85" stroke-width="5.8451" style="paint-order:markers stroke fill"/></g></svg>
