<svg height="64" width="64" viewBox="0 0 64 64" xml:space="preserve" xmlns="http://www.w3.org/2000/svg"><path style="display:inline;fill:#0f0f0d;stroke-width:.492611" d="M32 2C15.46 2 2 15.46 2 32s13.46 30 30 30 30-13.46 30-30S48.54 2 32 2Zm0 57.48A27.5 27.5 0 0 1 4.54 32 27.5 27.5 0 0 1 32 4.52 27.5 27.5 0 0 1 59.46 32 27.5 27.5 0 0 1 32 59.48zm11.9-47.35a12.2 12.2 0 0 1-6.7 13.34l-.32 5.13 3.7 3.7-3.7 3.69 2.44 2.44-2.44 2.44.32 4.57-5.2 5.2-5.2-5.2V25.46a12.1 12.1 0 0 1-6.94-10.95c0-.82.12-1.57.25-2.38a23.15 23.15 0 1 0 23.79 0zM32 14.5a4.33 4.33 0 0 0 4.32-4.32c0-.32-.06-.63-.13-.94A18.68 18.68 0 0 0 32 8.87c-1.38 0-2.82.13-4.2.38-.06.31-.12.62-.12.94A4.33 4.33 0 0 0 32 14.5zm-3.44 13.83h1.75V45.7h-1.75z"/><g style="display:inline;stroke-width:1;stroke:#34220a;stroke-opacity:1"><g style="display:inline;stroke:#34220a;stroke-width:1;stroke-opacity:1" stroke="#0c0c0c" stroke-opacity=".8"><rect x="34.5" y="22.82" width="24" height="34" ry="3.73" display="inline" fill="#e54835" stroke="none" style="display:inline;stroke:#4b110a;stroke-width:2;stroke-dasharray:none;stroke-opacity:1;paint-order:stroke fill markers" transform="translate(4.5 6.18)"/><path d="M48.3 49.53v-1.07c0-.93.2-1.74.59-2.43a7.8 7.8 0 0 1 2.18-2.2 8.93 8.93 0 0 0 2-1.77c.33-.46.5-.97.5-1.53 0-.63-.23-1.1-.7-1.44a3.32 3.32 0 0 0-1.95-.5c-1.45 0-3.1.48-4.97 1.43l-1.58-3.18a13.83 13.83 0 0 1 6.87-1.82c2 0 3.58.48 4.75 1.44a4.7 4.7 0 0 1 1.78 3.84c0 1.07-.24 1.99-.73 2.76-.48.78-1.4 1.65-2.76 2.62a8.77 8.77 0 0 0-1.77 1.57 2.5 2.5 0 0 0-.37 1.41v.87zm-.47 4.98c0-.82.22-1.43.65-1.85.44-.42 1.07-.62 1.9-.62.81 0 1.43.2 1.87.64.44.42.66 1.03.66 1.83a2.5 2.5 0 0 1-.66 1.82c-.45.43-1.07.65-1.86.65-.82 0-1.45-.21-1.9-.64a2.45 2.45 0 0 1-.66-1.83Z" display="inline" fill="#fff" stroke="#fff" stroke-linecap="round" style="display:inline;stroke:#fff;stroke-width:.869436;stroke-opacity:1"/></g></g></svg>
