<svg xml:space="preserve" version="1.1" viewBox="0 0 100 100" id="svg2" xmlns:xlink="http://www.w3.org/1999/xlink" xmlns="http://www.w3.org/2000/svg"><defs id="defs23"><linearGradient id="SVGID_2_-3" gradientUnits="userSpaceOnUse" x1="73.8" y1="1532.14" x2="73.8" y2="1574" gradientTransform="translate(3.8 -1480.3)"><stop offset="0" style="stop-color:#eaa74b;stop-opacity:1" id="stop373"/><stop offset="1" style="stop-color:#ac6f25;stop-opacity:1" id="stop375"/></linearGradient><linearGradient xlink:href="#linearGradient4316" id="linearGradient5199" x1="53.24" y1="12.75" x2="53.24" y2="86.36" gradientUnits="userSpaceOnUse" gradientTransform="translate(-50.41 11.36)"/><linearGradient id="linearGradient4316"><stop id="stop4318" offset="0" style="stop-color:#226e23;stop-opacity:1"/><stop id="stop4320" offset="1" style="stop-color:#63ab3a;stop-opacity:1"/></linearGradient></defs><linearGradient id="SVGID_1_" gradientUnits="userSpaceOnUse" x1="50.27" y1="-1470.94" x2="49.7" y2="-1392.79" gradientTransform="matrix(1 0 0 -1 -50.2 -1373.16)"><stop offset="0" style="stop-color:gray" id="stop4"/><stop offset="1" style="stop-color:#4b4b4d" id="stop6"/></linearGradient><linearGradient id="SVGID_2_" gradientUnits="userSpaceOnUse" x1="73.8" y1="1532.14" x2="73.8" y2="1574" gradientTransform="translate(-2.73 -1488.34)"><stop offset="0" style="stop-color:#d69029" id="stop11"/><stop offset="1" style="stop-color:#af7125" id="stop13"/></linearGradient><g stroke="#0c0c0c" stroke-opacity=".8" id="g11474" style="display:inline"><g id="layer16" style="display:inline"><path d="M50 5.18A44.87 44.87 0 0 0 5.18 50a44.87 44.87 0 0 0 55.58 43.5 8.7 8.7 0 0 1-4.04-3.01A41.08 41.08 0 0 1 8.98 50 41.08 41.08 0 0 1 50 8.95 41.1 41.1 0 0 1 90.07 41.2a8.74 8.74 0 0 1 4.52 4.27A44.88 44.88 0 0 0 50 5.18Zm1.6 10.27c-.53-.02-1.06-.02-1.6 0a36 36 0 0 0-6.27.56c-.09.47-.18.93-.18 1.4 0 3.56 2.9 6.46 6.45 6.46 3.55 0 6.45-2.9 6.45-6.46 0-.47-.1-.93-.18-1.4-1.55-.28-3.09-.5-4.67-.56zM32.23 20.3a34.58 34.58 0 0 0 22.79 63.9v-8.4L50 80.84l-7.76-7.77V40.23a18.06 18.06 0 0 1-10.38-16.36c0-1.22.19-2.34.37-3.56zm35.54 0c.28 1.22.37 2.34.37 3.56 0 7.2-4.3 13.47-10.38 16.36l-.17 2.83a8.56 8.56 0 0 1 6.02-2.5h19.62A34.82 34.82 0 0 0 67.77 20.3zM44.86 44.54v25.9h2.61v-25.9z" display="inline" fill="#0f0f0d" id="path11406" style="display:inline"/><rect x="75.58" y="55.93" width="45.42" height="63.11" ry="6.92" display="inline" fill="#e54835" stroke="none" id="rect11408" style="display:inline;stroke:#000;stroke-width:2.03829;stroke-dasharray:none;stroke-opacity:1" transform="translate(2.9 2.9) scale(.73591)"/><path d="M70.83 73.26v-1.73c0-1.5.32-2.8.96-3.92a12.6 12.6 0 0 1 3.52-3.54c1.64-1.17 2.72-2.12 3.23-2.85.54-.74.8-1.56.8-2.47 0-1.01-.37-1.78-1.12-2.32-.75-.53-1.8-.8-3.14-.8-2.35 0-5.02.77-8.02 2.3L64.5 52.8a22.33 22.33 0 0 1 11.1-2.93c3.21 0 5.76.77 7.65 2.32a7.56 7.56 0 0 1 2.86 6.19c0 1.72-.39 3.2-1.17 4.45-.78 1.25-2.26 2.66-4.45 4.22a14.14 14.14 0 0 0-2.86 2.53c-.4.58-.59 1.34-.59 2.28v1.4zm-.75 8.02c0-1.31.35-2.3 1.06-2.98.7-.67 1.72-1 3.07-1 1.3 0 2.3.34 3 1.02.72.7 1.08 1.68 1.08 2.96 0 1.23-.36 2.2-1.08 2.93a4.1 4.1 0 0 1-3 1.05 4.23 4.23 0 0 1-3.05-1.03 3.94 3.94 0 0 1-1.08-2.95z" display="inline" fill="#fff" stroke="#fff" stroke-linecap="round" stroke-opacity="1" id="path11410" style="display:inline"/></g></g></svg>
