<svg xml:space="preserve" version="1.1" viewBox="0 0 100 100" id="svg2" xmlns:xlink="http://www.w3.org/1999/xlink" xmlns="http://www.w3.org/2000/svg"><defs id="defs23"><linearGradient id="SVGID_2_-3" gradientUnits="userSpaceOnUse" x1="73.8" y1="1532.14" x2="73.8" y2="1574" gradientTransform="translate(3.8 -1480.3)"><stop offset="0" style="stop-color:#eaa74b;stop-opacity:1" id="stop373"/><stop offset="1" style="stop-color:#ac6f25;stop-opacity:1" id="stop375"/></linearGradient><linearGradient xlink:href="#linearGradient4316" id="linearGradient5199" x1="53.24" y1="12.75" x2="53.24" y2="86.36" gradientUnits="userSpaceOnUse" gradientTransform="translate(-50.41 11.36)"/><linearGradient id="linearGradient4316"><stop id="stop4318" offset="0" style="stop-color:#226e23;stop-opacity:1"/><stop id="stop4320" offset="1" style="stop-color:#63ab3a;stop-opacity:1"/></linearGradient></defs><linearGradient id="SVGID_1_" gradientUnits="userSpaceOnUse" x1="50.27" y1="-1470.94" x2="49.7" y2="-1392.79" gradientTransform="matrix(1 0 0 -1 -50.2 -1373.16)"><stop offset="0" style="stop-color:gray" id="stop4"/><stop offset="1" style="stop-color:#4b4b4d" id="stop6"/></linearGradient><linearGradient id="SVGID_2_" gradientUnits="userSpaceOnUse" x1="73.8" y1="1532.14" x2="73.8" y2="1574" gradientTransform="translate(-2.73 -1488.34)"><stop offset="0" style="stop-color:#d69029" id="stop11"/><stop offset="1" style="stop-color:#af7125" id="stop13"/></linearGradient><g stroke="#0c0c0c" stroke-opacity=".8" id="g11474" style="display:inline"><g id="layer4" style="display:inline"><path d="M50 5.18A44.87 44.87 0 0 0 5.18 50a44.87 44.87 0 0 0 54.08 43.85 7.49 7.49 0 0 1-4.43-3.1A41.08 41.08 0 0 1 8.97 50 41.08 41.08 0 0 1 50 8.95a41.08 41.08 0 0 1 40.97 43.26c1.46.6 2.7 1.66 3.53 3A44.87 44.87 0 0 0 50 5.18Zm1.6 10.27c-.53-.02-1.06-.02-1.6 0a36 36 0 0 0-6.27.56c-.09.47-.18.94-.18 1.4 0 3.56 2.9 6.46 6.45 6.46 3.55 0 6.45-2.9 6.45-6.46 0-.46-.1-.93-.18-1.4-1.55-.28-3.09-.5-4.67-.56zM32.23 20.3a34.58 34.58 0 0 0 21.34 64.07v-7.13L50 80.83l-7.76-7.77V40.23a18.06 18.06 0 0 1-10.38-16.36c0-1.22.19-2.34.37-3.56zm35.54 0c.28 1.22.37 2.34.37 3.56 0 7.2-4.3 13.47-10.38 16.37l-.46 7.67 3.76 3.76h23.5c.02-.57.04-1.13.04-1.7A34.9 34.9 0 0 0 67.77 20.3zM44.86 44.54v25.9h2.61v-25.9zm16.1 14.13c-.27 0-.38.11-.38.38v3.18l.36.36-.36.37v19.96a34.64 34.64 0 0 0 22.91-24.25zm27.66 5.19a41.26 41.26 0 0 1-21 23.2h7.55a45.16 45.16 0 0 0 13.45-14.35z" fill="#0f0f0d" fill-opacity=".5" stroke="#0f0f0d" stroke-opacity=".3" style="display:inline;paint-order:normal" id="path11456"/><rect x="73.62" y="71.02" width="47.61" height="48.09" ry="5.27" display="inline" fill="#e54835" stroke="none" id="rect11458" style="display:inline;stroke:#000;stroke-width:2.03829;stroke-linecap:round;stroke-linejoin:round;stroke-dasharray:none;stroke-opacity:1" transform="translate(2.9 2.9) scale(.73591)"/><path d="m64.22 62.47 20.76 20.8m0-20.8L64.2 83.27" display="inline" fill="#fff" stroke="#fff" stroke-linecap="round" stroke-opacity="1" stroke-width="6.07" id="path11460" style="display:inline"/></g></g></svg>
