<svg xml:space="preserve" version="1.1" viewBox="0 0 100 100" id="svg2" xmlns:xlink="http://www.w3.org/1999/xlink" xmlns="http://www.w3.org/2000/svg"><defs id="defs23"><linearGradient id="SVGID_2_-3" gradientUnits="userSpaceOnUse" x1="73.8" y1="1532.14" x2="73.8" y2="1574" gradientTransform="translate(3.8 -1480.3)"><stop offset="0" style="stop-color:#eaa74b;stop-opacity:1" id="stop373"/><stop offset="1" style="stop-color:#ac6f25;stop-opacity:1" id="stop375"/></linearGradient><linearGradient xlink:href="#linearGradient4316" id="linearGradient5199" x1="53.24" y1="12.75" x2="53.24" y2="86.36" gradientUnits="userSpaceOnUse" gradientTransform="translate(-50.41 11.36)"/><linearGradient id="linearGradient4316"><stop id="stop4318" offset="0" style="stop-color:#226e23;stop-opacity:1"/><stop id="stop4320" offset="1" style="stop-color:#63ab3a;stop-opacity:1"/></linearGradient></defs><linearGradient id="SVGID_1_" gradientUnits="userSpaceOnUse" x1="50.27" y1="-1470.94" x2="49.7" y2="-1392.79" gradientTransform="matrix(1 0 0 -1 -50.2 -1373.16)"><stop offset="0" style="stop-color:gray" id="stop4"/><stop offset="1" style="stop-color:#4b4b4d" id="stop6"/></linearGradient><linearGradient id="SVGID_2_" gradientUnits="userSpaceOnUse" x1="73.8" y1="1532.14" x2="73.8" y2="1574" gradientTransform="translate(-2.73 -1488.34)"><stop offset="0" style="stop-color:#d69029" id="stop11"/><stop offset="1" style="stop-color:#af7125" id="stop13"/></linearGradient><g stroke="#0c0c0c" stroke-opacity=".8" id="g11474" style="display:inline"><g id="layer3" style="display:inline"><path d="M50.15 5.18A44.87 44.87 0 0 0 5.34 50a44.87 44.87 0 0 0 59.88 42.2 8.76 8.76 0 0 1-2.42-3.16A41.08 41.08 0 0 1 9.12 50 41.08 41.08 0 0 1 50.16 8.95a41.1 41.1 0 0 1 40.04 32.1 8.75 8.75 0 0 1 4.48 3.82A44.87 44.87 0 0 0 50.15 5.18Zm1.6 10.27c-.53-.02-1.06-.02-1.6 0-2.05 0-4.2.19-6.26.56-.1.47-.19.94-.19 1.4 0 3.56 2.9 6.46 6.45 6.46 3.56 0 6.46-2.9 6.46-6.46 0-.46-.1-.93-.2-1.4-1.53-.28-3.08-.5-4.66-.56zM32.4 20.3a34.58 34.58 0 0 0 29.66 62.16V54.34l-4.6 4.6 3.65 3.65-3.65 3.65.47 6.82-7.77 7.77-7.76-7.77V40.23a18.06 18.06 0 0 1-10.38-16.36c0-1.22.19-2.34.38-3.56zm35.53 0c.28 1.22.37 2.34.37 3.56 0 7.2-4.3 13.47-10.38 16.37l-.46 7.67 4.6 4.6v-3.4c0-4.72 3.9-8.62 8.6-8.62h12.71A34.82 34.82 0 0 0 67.93 20.3zm-22.9 24.23v25.9h2.6v-25.9z" display="inline" fill="#0f0f0d" id="path11462" style="display:inline"/><rect x="84.91" y="55.83" width="36.37" height="63.43" ry="6.95" display="inline" fill="#e54835" stroke="none" style="display:inline;stroke:#000;stroke-width:2.03829;stroke-dasharray:none;stroke-opacity:1;paint-order:normal" id="rect11464" transform="translate(3.06 2.9) scale(.73591)"/><path d="M81.96 73.45h-5.72l-1.2-22.9h8.11zm-7.01 8.01c0-1.3.35-2.3 1.05-2.97.7-.67 1.73-1.01 3.07-1.01 1.3 0 2.3.34 3 1.03.72.69 1.08 1.67 1.08 2.95 0 1.24-.36 2.22-1.08 2.93a4.1 4.1 0 0 1-3 1.06 4.23 4.23 0 0 1-3.04-1.03 3.94 3.94 0 0 1-1.08-2.96z" display="inline" fill="#fff" stroke="#fff" stroke-opacity="1" id="path11466" style="display:inline"/></g></g></svg>
