<svg xml:space="preserve" viewBox="0 0 100 100" xmlns="http://www.w3.org/2000/svg"><g style="display:inline" stroke="#0c0c0c" stroke-opacity=".8"><path d="M51.63 7.06a44.57 44.57 0 0 0-16.89 3.3l.06.18.99 3.47a40.79 40.79 0 0 1 15.84-3.18 41.08 41.08 0 0 1 41.02 41.05 41.08 41.08 0 0 1-41.02 41.04A41.08 41.08 0 0 1 10.6 51.88a40.8 40.8 0 0 1 3.51-16.6l-3.52-.94-.18-.05a44.56 44.56 0 0 0-3.6 17.59 44.87 44.87 0 0 0 44.82 44.81 44.87 44.87 0 0 0 44.81-44.81A44.87 44.87 0 0 0 51.63 7.06zm1.6 10.26c-.53-.02-1.07-.02-1.6 0-2.06 0-4.21.2-6.27.57-.1.46-.19.93-.19 1.4 0 .56.08 1.1.22 1.61 2.07.57 4.12 1.16 5.81 1.78.9.33 1.68.65 2.48 1.12.39.23.8.5 1.26 1a6.44 6.44 0 0 0 3.14-5.51c0-.47-.1-.94-.19-1.4a31.52 31.52 0 0 0-4.67-.57zm16.16 4.87c.28 1.21.38 2.34.38 3.55 0 7.2-4.3 13.47-10.38 16.37l-.47 7.67 5.52 5.52-5.52 5.52 3.65 3.65-3.65 3.64.47 6.83-7.76 7.76-7.77-7.76V42.11a18.07 18.07 0 0 1-6.6-5.3c-.13.04-.34.1-.45.15a32.4 32.4 0 0 0-.56 1.77c-.49 1.67-1.06 3.88-1.66 6.07-.6 2.2-1.22 4.37-1.87 6.15-.33.9-.65 1.68-1.13 2.48-.23.4-.5.81-1 1.3a3.97 3.97 0 0 1-5.58-.07 5.65 5.65 0 0 1-.98-1.27c-.48-.8-.82-1.6-1.17-2.5a83.03 83.03 0 0 1-2-6.29c-.55-1.85-1.05-3.64-1.5-5.19a34.58 34.58 0 0 0 32.28 47.03 34.58 34.58 0 0 0 34.59-34.6 34.9 34.9 0 0 0-16.84-29.65zM46.5 46.4v25.91h2.61v-25.9z" fill="#0f0f0d" style="display:inline"/><path d="M27.82 52.34c-1.96-.07-5.4-17.02-6.79-18.4C19.68 32.57 3 29.47 3.06 27.56c.06-1.96 17.02-5.4 18.4-6.79 1.35-1.35 4.46-18.03 6.36-17.97 1.96.06 5.4 17.02 6.8 18.4 1.34 1.35 18.03 4.46 17.97 6.36-.07 1.96-17.02 5.4-18.4 6.8-1.36 1.34-4.46 18.03-6.37 17.97z" display="inline" fill="#62c74d" style="display:inline;paint-order:normal" stroke="none"/></g></svg>
