<svg xml:space="preserve" viewBox="0 0 100 100" xmlns="http://www.w3.org/2000/svg"><g style="display:inline" stroke="#0c0c0c" stroke-opacity=".8"><path d="M50 5.18a43 43 0 0 0-2.27.06l-1.02.08c-.4.03-.79.05-1.18.09-.48.05-.96.11-1.43.18l-.75.09c-.59.09-1.17.2-1.76.3l-.35.07c-.62.12-1.23.26-1.83.4l-.28.07c-.62.16-1.23.33-1.84.51l-.21.06c-.63.19-1.24.4-1.86.6-.05.03-.1.04-.16.06-.61.22-1.22.46-1.82.7l-.12.05.05.17 1 3.47a40.66 40.66 0 0 1 7.63-2.36l.12-.02a40.69 40.69 0 0 1 3.9-.6l1.12-.08c.32-.02.64-.06.97-.07a41.08 41.08 0 0 1 43.06 43.2c1.46.6 2.7 1.66 3.53 3 .1-.83.17-1.67.23-2.5v-.11A44.87 44.87 0 0 0 50 5.18zm1.6 10.27c-.53-.02-1.06-.02-1.6 0a36 36 0 0 0-6.27.56c-.09.47-.18.93-.18 1.4 0 .27.02.54.05.8l.01.07.15.75c2.08.57 4.12 1.15 5.82 1.78.89.33 1.67.64 2.47 1.12.4.23.8.5 1.27.99.21-.13.42-.28.62-.43l.15-.13c.3-.25.57-.52.83-.82a6.5 6.5 0 0 0 1.46-3.15l.02-.18c.03-.26.05-.53.05-.8 0-.47-.1-.93-.18-1.4-1.55-.28-3.09-.5-4.67-.56zm16.17 4.86c.28 1.22.37 2.34.37 3.56 0 7.2-4.3 13.47-10.38 16.36l-.46 7.67 3.76 3.77h23.5A34.9 34.9 0 0 0 67.77 20.3zM8.78 32.41v.02c-.28.64-.53 1.28-.78 1.93 0 .04-.02.07-.04.1-.25.69-.48 1.37-.7 2.06l-.02.04c-.18.6-.36 1.21-.52 1.83l-.1.34c-.15.6-.3 1.2-.42 1.81l-.09.37c-.14.7-.27 1.4-.38 2.12l-.02.1c-.07.47-.13.96-.18 1.44l-.11.84v.01A44.88 44.88 0 0 0 5.18 50a44.87 44.87 0 0 0 47.17 44.75h.02l.29-.02c.68-.04 1.36-.09 2.04-.16h.07a44.83 44.83 0 0 0 4.5-.72 7.49 7.49 0 0 1-4.44-3.1h-.04c-.74.1-1.49.16-2.24.2l-.15.02A41.08 41.08 0 0 1 9.04 47.82l.02-.34c.03-.6.08-1.2.14-1.79l.06-.45c.06-.57.14-1.14.22-1.7l.05-.27c.1-.61.22-1.22.35-1.82l.05-.23a40.5 40.5 0 0 1 1.05-3.89l.03-.07c.2-.64.43-1.28.68-1.91v-.02c.25-.65.51-1.28.8-1.91l-3.52-.96-.18-.05Zm26.86 2.52-.46.15a54.6 54.6 0 0 0-.56 1.77c-.49 1.68-1.06 3.88-1.66 6.08a78.9 78.9 0 0 1-1.87 6.15c-.33.9-.65 1.68-1.12 2.48-.24.4-.5.8-1.01 1.29a3.97 3.97 0 0 1-5.57-.07 5.65 5.65 0 0 1-.99-1.26c-.48-.8-.82-1.6-1.17-2.51a83.03 83.03 0 0 1-2-6.28l-1.5-5.2a34.79 34.79 0 0 0-2 7.7l-.09.73a34.61 34.61 0 0 0-.24 4A34.58 34.58 0 0 0 53.55 84.4h.03v-7.14L50 80.83l-7.76-7.77V40.23c-.35-.16-.7-.34-1.04-.53-.14-.07-.27-.16-.4-.24a17.93 17.93 0 0 1-5.16-4.53zm9.22 9.6v25.92h2.61V44.54z" fill="#0f0f0d" fill-opacity=".5" stroke="#0f0f0d" stroke-opacity=".3" style="display:inline;paint-order:normal"/><rect x="73.62" y="71.02" width="47.61" height="48.09" ry="5.27" display="inline" fill="#e54835" style="display:inline" transform="translate(2.9 2.9) scale(.73591)" stroke="none"/><path d="m64.22 62.47 20.76 20.79m0-20.8L64.2 83.27" display="inline" fill="#fff" stroke="#fff" stroke-linecap="round" stroke-opacity="1" stroke-width="6.07" style="display:inline"/><path d="M26.2 50.46c-1.96-.06-5.4-17.02-6.8-18.4C18.07 30.7 1.38 27.6 1.44 25.7c.07-1.96 17.02-5.4 18.4-6.8C21.2 17.57 24.3.88 26.2.94c1.96.07 5.4 17.02 6.79 18.41 1.35 1.35 18.03 4.45 17.97 6.36-.06 1.96-17.02 5.4-18.4 6.79-1.35 1.35-4.46 18.03-6.36 17.97z" display="inline" fill="#62c74d" style="display:inline;paint-order:normal" stroke="none"/></g></svg>
