<svg xml:space="preserve" version="1.1" viewBox="0 0 100 100" id="svg2" xmlns:xlink="http://www.w3.org/1999/xlink" xmlns="http://www.w3.org/2000/svg"><defs id="defs23"><linearGradient id="SVGID_2_-3" gradientUnits="userSpaceOnUse" x1="73.8" y1="1532.14" x2="73.8" y2="1574" gradientTransform="translate(3.8 -1480.3)"><stop offset="0" style="stop-color:#eaa74b;stop-opacity:1" id="stop373"/><stop offset="1" style="stop-color:#ac6f25;stop-opacity:1" id="stop375"/></linearGradient><linearGradient xlink:href="#linearGradient4316" id="linearGradient5199" x1="53.24" y1="12.75" x2="53.24" y2="86.36" gradientUnits="userSpaceOnUse" gradientTransform="translate(-50.41 11.36)"/><linearGradient id="linearGradient4316"><stop id="stop4318" offset="0" style="stop-color:#226e23;stop-opacity:1"/><stop id="stop4320" offset="1" style="stop-color:#63ab3a;stop-opacity:1"/></linearGradient></defs><linearGradient id="SVGID_1_" gradientUnits="userSpaceOnUse" x1="50.27" y1="-1470.94" x2="49.7" y2="-1392.79" gradientTransform="matrix(1 0 0 -1 -50.2 -1373.16)"><stop offset="0" style="stop-color:gray" id="stop4"/><stop offset="1" style="stop-color:#4b4b4d" id="stop6"/></linearGradient><linearGradient id="SVGID_2_" gradientUnits="userSpaceOnUse" x1="73.8" y1="1532.14" x2="73.8" y2="1574" gradientTransform="translate(-2.73 -1488.34)"><stop offset="0" style="stop-color:#d69029" id="stop11"/><stop offset="1" style="stop-color:#af7125" id="stop13"/></linearGradient><g stroke="#0c0c0c" stroke-opacity=".8" id="g11474" style="display:inline"><g id="layer15" style="display:inline"><path d="M51.74 7.06a43 43 0 0 0-2.27.06c-.34.01-.68.05-1.02.07-.4.03-.79.05-1.18.1-.48.04-.96.1-1.43.17l-.75.1c-.59.08-1.17.19-1.75.3l-.36.06-1.83.41-.27.07c-.63.15-1.24.32-1.85.5l-.2.06-1.87.61-.16.06c-.61.22-1.22.45-1.82.7l-.12.04.05.17 1 3.47a40.64 40.64 0 0 1 7.63-2.36l.12-.02a40.64 40.64 0 0 1 3.9-.59c.37-.04.74-.06 1.12-.09l.97-.07a41.46 41.46 0 0 1 4.03 0c.26 0 .52.03.77.05.41.02.82.05 1.23.1.25.01.5.05.74.07a41.32 41.32 0 0 1 5.02.9l.74.18c.4.1.78.22 1.16.33l.68.2c.58.18 1.16.38 1.72.58l.67.26 1.08.43.74.32a39.02 39.02 0 0 1 5.8 3.14l.79.52.82.58c.5.37 1 .74 1.48 1.12l.52.41.98.83.37.33.94.86.38.36a39.15 39.15 0 0 1 2.12 2.22l.33.38c.28.33.56.65.83.99l.25.32a41.2 41.2 0 0 1 3.56 5.25l.11.2a42.53 42.53 0 0 1 1.46 2.84l.19.42c.2.43.38.86.56 1.3l.02.04.04.12a40.7 40.7 0 0 1 2 6.4l.03.15a8.74 8.74 0 0 1 4.52 4.27l-.11-.9c-.05-.42-.1-.85-.17-1.28l-.18-1.05-.19-1.07c-.07-.37-.16-.74-.25-1.1-.07-.34-.14-.68-.23-1l-.3-1.12-.26-.92-.35-1.08a42.93 42.93 0 0 0-3.94-8.67c-.16-.27-.32-.55-.49-.81a42.26 42.26 0 0 0-1.15-1.78l-.65-.9-.58-.8c-.22-.3-.45-.58-.68-.87l-.62-.77-.78-.9-.58-.66-.86-.9-.6-.63-.02-.02c-.48-.48-.98-.95-1.48-1.4l-.14-.13c-.46-.41-.93-.82-1.41-1.22l-.63-.5c-.35-.28-.7-.56-1.05-.82a45.03 45.03 0 0 0-1.68-1.2l-.73-.49-1.05-.67-.76-.45-1.03-.6-.82-.44a43.86 43.86 0 0 0-9.04-3.56c-.3-.08-.6-.17-.91-.24l-1.14-.27-.98-.2c-.41-.09-.83-.16-1.25-.23l-.86-.15L57 7.38l-.82-.1c-.52-.05-1.05-.09-1.57-.12l-.62-.04c-.74-.04-1.5-.06-2.25-.06Zm1.6 10.26a20.1 20.1 0 0 0-1.6 0 37 37 0 0 0-6.27.56 6.05 6.05 0 0 0-.13 2.2l.01.07c.04.26.09.5.15.75a75.5 75.5 0 0 1 5.82 1.78c.9.33 1.68.65 2.47 1.12.4.23.8.5 1.27 1 .22-.14.42-.29.62-.44l.15-.13c.3-.24.58-.52.83-.82l.27-.32a6.42 6.42 0 0 0 1.02-2.06l.04-.15c.05-.2.09-.4.12-.62l.03-.18c.03-.26.05-.52.05-.8 0-.46-.09-.93-.18-1.4-1.55-.28-3.09-.5-4.67-.56zm16.17 4.87c.28 1.21.37 2.34.37 3.55 0 7.2-4.3 13.47-10.38 16.37l-.17 2.83a8.56 8.56 0 0 1 6.02-2.5h19.62v-.02a36.7 36.7 0 0 0-.92-2.74l-.15-.41a35.7 35.7 0 0 0-1.27-2.85l-.21-.41a35.1 35.1 0 0 0-1.15-2.04c-.1-.19-.22-.37-.33-.56a33.32 33.32 0 0 0-1.08-1.6l-.66-.9c-.34-.46-.7-.9-1.07-1.35l-.52-.59a34.49 34.49 0 0 0-2.38-2.44l-.4-.4-.02-.01c-.48-.43-.96-.84-1.46-1.24l-.44-.34c-.4-.31-.8-.61-1.21-.9l-.49-.35a34.7 34.7 0 0 0-1.7-1.1Zm-58.99 12.1v.02c-.28.63-.53 1.28-.78 1.93A46.02 46.02 0 0 0 9 38.4v.04c-.2.6-.37 1.2-.53 1.82l-.1.34c-.15.6-.29 1.2-.42 1.82l-.09.36c-.14.7-.27 1.4-.38 2.12l-.02.1c-.07.48-.12.96-.18 1.45l-.11.84a43.9 43.9 0 0 0-.24 4.59 44.87 44.87 0 0 0 47.4 44.72l.65-.05c.66-.05 1.32-.1 1.97-.18l.62-.08c.7-.1 1.4-.2 2.1-.32l.37-.07c.83-.16 1.65-.33 2.46-.53a8.7 8.7 0 0 1-4.04-3.02h-.03a40.94 40.94 0 0 1-3.03.39l-.8.06-1 .06A41.08 41.08 0 0 1 10.77 49.7l.02-.34c.03-.6.08-1.2.14-1.78l.06-.46c.06-.57.14-1.14.23-1.7l.04-.26c.1-.61.22-1.22.35-1.83l.05-.22a40.53 40.53 0 0 1 1.05-3.89l.03-.08c.2-.64.43-1.28.68-1.9v-.03c.25-.64.51-1.28.8-1.9v-.01l-3.52-.95-.18-.06zm26.86 2.52c-.13.04-.34.1-.46.15-.15.44-.34 1.02-.56 1.77-.48 1.67-1.06 3.88-1.66 6.07-.6 2.2-1.21 4.37-1.87 6.15-.33.9-.65 1.68-1.12 2.48-.24.4-.5.81-1.01 1.3a3.97 3.97 0 0 1-5.57-.07 5.66 5.66 0 0 1-.99-1.27c-.48-.8-.82-1.6-1.17-2.5a83 83 0 0 1-2-6.29l-1.5-5.19a33 33 0 0 0-1.72 6.02c-.1.56-.2 1.12-.28 1.68l-.08.72a33 33 0 0 0-.25 4 34.58 34.58 0 0 0 36.92 34.53l.48-.04c.71-.06 1.42-.13 2.13-.23l.1-.01v-8.4l-5.03 5.02-7.76-7.76V42.1l-1.04-.53-.4-.24a17.94 17.94 0 0 1-5.16-4.53zm9.22 9.6v25.91h2.62v-25.9z" fill="#0f0f0d" id="path11416" style="display:inline"/><rect x="75.58" y="55.93" width="45.42" height="63.11" ry="6.92" fill="#e54835" stroke="none" id="rect11418" style="display:inline;stroke:#000;stroke-width:2.03829;stroke-dasharray:none;stroke-opacity:1" transform="translate(4.64 4.78) scale(.73591)"/><path d="M72.57 75.14V73.4c0-1.5.32-2.8.97-3.91a12.6 12.6 0 0 1 3.51-3.54 14.64 14.64 0 0 0 3.24-2.86c.53-.73.8-1.55.8-2.46 0-1.02-.38-1.79-1.13-2.32-.75-.53-1.8-.8-3.14-.8-2.35 0-5.02.77-8.02 2.3l-2.55-5.13a22.33 22.33 0 0 1 11.08-2.93c3.22 0 5.77.77 7.67 2.32a7.56 7.56 0 0 1 2.85 6.18c0 1.72-.39 3.2-1.17 4.46-.78 1.25-2.26 2.65-4.45 4.22a14.13 14.13 0 0 0-2.86 2.53 3.98 3.98 0 0 0-.59 2.27v1.4zm-.75 8.01c0-1.31.36-2.3 1.06-2.97.7-.68 1.73-1.01 3.07-1.01 1.3 0 2.3.34 3 1.03.72.69 1.08 1.67 1.08 2.95 0 1.24-.36 2.21-1.08 2.93a4.1 4.1 0 0 1-3 1.06 4.23 4.23 0 0 1-3.05-1.03 3.94 3.94 0 0 1-1.08-2.96z" fill="#fff" stroke="#fff" stroke-linecap="round" stroke-opacity="1" id="path11420" style="display:inline"/><path d="M27.94 52.34c-1.96-.07-5.4-17.02-6.8-18.4-1.34-1.36-18.03-4.46-17.97-6.37.07-1.96 17.02-5.4 18.41-6.79 1.35-1.35 4.45-18.03 6.36-17.97 1.96.06 5.4 17.02 6.79 18.4 1.35 1.35 18.04 4.46 17.97 6.36-.06 1.96-17.02 5.4-18.4 6.8-1.35 1.34-4.46 18.03-6.36 17.97z" fill="#62c74d" stroke="none" style="display:inline;stroke:#000;stroke-width:1.5;stroke-dasharray:none;stroke-opacity:1;paint-order:normal" id="path11422"/></g></g></svg>
