<?xml version="1.0" encoding="UTF-8"?>
<svg version="1.1" viewBox="0 0 100 100" xml:space="preserve" xmlns="http://www.w3.org/2000/svg" xmlns:xlink="http://www.w3.org/1999/xlink"><defs><linearGradient id="SVGID_2_-3" x1="73.8" x2="73.8" y1="1532.1" y2="1574" gradientTransform="translate(3.8,-1480.3)" gradientUnits="userSpaceOnUse"><stop stop-color="#e59a2c" offset="0"/><stop stop-color="#ac6f25" offset="1"/></linearGradient><linearGradient id="linearGradient5199" x1="53.239" x2="53.239" y1="12.753" y2="86.357" gradientTransform="translate(-50.413 11.364)" gradientUnits="userSpaceOnUse"><stop stop-color="#226e23" offset="0"/><stop stop-color="#63ab3a" offset="1"/></linearGradient></defs><linearGradient id="SVGID_1_" x1="50.269" x2="49.697" y1="-1470.9" y2="-1392.8" gradientTransform="matrix(1 0 0 -1 -50.207 -1373.2)" gradientUnits="userSpaceOnUse"><stop stop-color="gray" offset="0"/><stop stop-color="#4b4b4d" offset="1"/></linearGradient><g stroke="#0c0c0c"><g display="none" stroke-opacity=".85"><circle cx="50" cy="50" r="45.9" clip-rule="evenodd" fill="none" stroke-linecap="round" stroke-linejoin="round" stroke-width="3.1319"/><path d="m56.7 13.7c0.1 0.5 0.2 1 0.2 1.5 0 3.8-3.1 6.9-6.9 6.9s-6.9-3.1-6.9-6.9c0-0.5 0.1-1 0.2-1.5 2.2-0.4 4.5-0.6 6.7-0.6 2.3-0.1 4.5 0.2 6.7 0.6zm-26.1 8.4c0 7.7 4.5 14.4 11.1 17.5v35.1l8.3 8.3 8.3-8.3-0.5-7.3 3.9-3.9-3.9-3.9 5.9-5.9-5.9-5.9 0.5-8.2c6.5-3.1 11.1-9.8 11.1-17.5 0-1.3-0.1-2.5-0.4-3.8 11.1 6.7 17.9 18.7 18 31.7 0 20.4-16.5 37-37 37-20.4 0-37-16.5-37-37 0-13 6.8-25 18-31.7-0.2 1.3-0.4 2.5-0.4 3.8zm13.9 22.1h2.8v27.7h-2.8z" display="inline" fill="#0c0c0c" fill-opacity=".85"/></g><g stroke-opacity=".4"><circle cx="50" cy="50" r="45.9" clip-rule="evenodd" fill="none" stroke-linecap="round" stroke-linejoin="round" stroke-width="3.1319"/><path d="m56.7 13.7c0.1 0.5 0.2 1 0.2 1.5 0 3.8-3.1 6.9-6.9 6.9s-6.9-3.1-6.9-6.9c0-0.5 0.1-1 0.2-1.5 2.2-0.4 4.5-0.6 6.7-0.6 2.3-0.1 4.5 0.2 6.7 0.6zm-26.1 8.4c0 7.7 4.5 14.4 11.1 17.5v35.1l8.3 8.3 8.3-8.3-0.5-7.3 3.9-3.9-3.9-3.9 5.9-5.9-5.9-5.9 0.5-8.2c6.5-3.1 11.1-9.8 11.1-17.5 0-1.3-0.1-2.5-0.4-3.8 11.1 6.7 17.9 18.7 18 31.7 0 20.4-16.5 37-37 37-20.4 0-37-16.5-37-37 0-13 6.8-25 18-31.7-0.2 1.3-0.4 2.5-0.4 3.8zm13.9 22.1h2.8v27.7h-2.8z" fill="#0c0c0c" fill-opacity=".4"/></g></g><g display="none"><g display="inline" stroke="#f9f9fa" stroke-opacity=".85"><circle cx="50" cy="50" r="45.9" clip-rule="evenodd" display="inline" fill="none" stroke-linecap="round" stroke-linejoin="round" stroke-width="3.1319"/><path d="m56.7 13.7c0.1 0.5 0.2 1 0.2 1.5 0 3.8-3.1 6.9-6.9 6.9s-6.9-3.1-6.9-6.9c0-0.5 0.1-1 0.2-1.5 2.2-0.4 4.5-0.6 6.7-0.6 2.3-0.1 4.5 0.2 6.7 0.6zm-26.1 8.4c0 7.7 4.5 14.4 11.1 17.5v35.1l8.3 8.3 8.3-8.3-0.5-7.3 3.9-3.9-3.9-3.9 5.9-5.9-5.9-5.9 0.5-8.2c6.5-3.1 11.1-9.8 11.1-17.5 0-1.3-0.1-2.5-0.4-3.8 11.1 6.7 17.9 18.7 18 31.7 0 20.4-16.5 37-37 37-20.4 0-37-16.5-37-37 0-13 6.8-25 18-31.7-0.2 1.3-0.4 2.5-0.4 3.8zm13.9 22.1h2.8v27.7h-2.8z" display="inline" fill="#f9f9fa" fill-opacity=".85"/></g><g display="none" stroke="#f9f9fa" stroke-opacity=".4"><circle cx="50" cy="50" r="45.9" clip-rule="evenodd" fill="none" stroke-linecap="round" stroke-linejoin="round" stroke-width="3.1319"/><path d="m56.7 13.7c0.1 0.5 0.2 1 0.2 1.5 0 3.8-3.1 6.9-6.9 6.9s-6.9-3.1-6.9-6.9c0-0.5 0.1-1 0.2-1.5 2.2-0.4 4.5-0.6 6.7-0.6 2.3-0.1 4.5 0.2 6.7 0.6zm-26.1 8.4c0 7.7 4.5 14.4 11.1 17.5v35.1l8.3 8.3 8.3-8.3-0.5-7.3 3.9-3.9-3.9-3.9 5.9-5.9-5.9-5.9 0.5-8.2c6.5-3.1 11.1-9.8 11.1-17.5 0-1.3-0.1-2.5-0.4-3.8 11.1 6.7 17.9 18.7 18 31.7 0 20.4-16.5 37-37 37-20.4 0-37-16.5-37-37 0-13 6.8-25 18-31.7-0.2 1.3-0.4 2.5-0.4 3.8zm13.9 22.1h2.8v27.7h-2.8z" display="inline" fill="#f9f9fa" fill-opacity=".4"/></g><g display="inline"><circle cx="50" cy="50" r="45.934" fill="#fff" fill-rule="evenodd" opacity=".871" stroke="#000" stroke-linecap="round" stroke-linejoin="round" stroke-opacity=".78431" stroke-width="3.1319"/><circle cx="50" cy="50" r="42.321" fill="none"/><path d="m50 6.3242c-24.121 3.9e-4 -43.675 19.554-43.676 43.676 3.8e-4 24.121 19.554 43.675 43.676 43.676 24.121-4e-4 43.675-19.554 43.676-43.676-4e-4 -24.121-19.554-43.675-43.676-43.676zm0 6.711c2.2642 0.0083 4.5234 0.2249 6.748 0.6465 0.1072 0.4837 0.168 0.984 0.168 1.5 0 3.8226-3.0973 6.918-6.918 6.916-3.8207 0.0022-6.916-3.0914-6.916-6.9141 0-0.5181 0.062-1.0203 0.1699-1.5058 2.2248-0.4202 4.484-0.6357 6.7481-0.6426zm-18.994 5.2988c-0.2405 1.2192-0.3713 2.4742-0.3711 3.7637 0 7.7197 4.5284 14.368 11.064 17.48v35.09l8.2988 8.2988 8.3008-8.3007-0.4766-7.3497 3.9141-3.9121-3.9141-3.9121 5.8711-5.8672-5.8711-5.8711 0.4766-8.1777c6.538-3.1106 11.066-9.7588 11.066-17.478 0-1.287-0.1334-2.541-0.373-3.7578 11.132 6.6675 17.954 18.684 17.973 31.66-5e-4 20.415-16.55 36.964-36.965 36.965-20.415-6e-4 -36.964-16.55-36.965-36.965 0.0156-12.978 6.8372-24.997 17.971-31.666zm13.459 25.898h2.7676v27.666h-2.7656l-2e-3 -27.664v-2e-3z" fill="#f9f9f9" fill-rule="evenodd"/><path d="m56.748 13.682c0.1072 0.4836 0.1684 0.9846 0.1684 1.5006 0 3.8226-3.0973 6.9179-6.918 6.9159-3.8207 0.0022-6.916-3.0911-6.916-6.9138 0-0.5181 0.0626-1.0214 0.1705-1.507 2.2248-0.4201 4.4835-0.635 6.7476-0.6419 2.2642 0.0083 4.5229 0.2246 6.7475 0.6462zm-26.113 8.4165c0 7.7197 4.5282 14.367 11.064 17.479v35.091l8.2987 8.2987 8.3008-8.3008-0.4757-7.3495 3.9126-3.9126-3.9126-3.9126 5.8699-5.8678-5.8699-5.8699 0.4757-8.1788c6.538-3.1106 11.066-9.7575 11.066-17.477 0-1.287-0.1329-2.5421-0.3725-3.7589 11.132 6.6675 17.954 18.684 17.972 31.661-6e-4 20.415-16.55 36.964-36.964 36.964-20.415-6e-4 -36.964-16.55-36.964-36.964 0.0155-12.978 6.8361-24.998 17.97-31.667-0.2405 1.2191-0.3706 2.4757-0.3704 3.7652zm13.83 22.135h2.7676v27.666h-2.7655l-2e-3 -27.664v-2e-3z" fill="url(#linearGradient5199)" opacity=".94"/></g><g display="none"><circle cx="50" cy="50" r="45.9" clip-rule="evenodd" fill="#fff" fill-rule="evenodd" stroke="#515151" stroke-linecap="round" stroke-linejoin="round" stroke-width="3.1319"/><path d="m56.7 13.7c0.1 0.5 0.2 1 0.2 1.5 0 3.8-3.1 6.9-6.9 6.9s-6.9-3.1-6.9-6.9c0-0.5 0.1-1 0.2-1.5 2.2-0.4 4.5-0.6 6.7-0.6 2.3-0.1 4.5 0.2 6.7 0.6zm-26.1 8.4c0 7.7 4.5 14.4 11.1 17.5v35.1l8.3 8.3 8.3-8.3-0.5-7.3 3.9-3.9-3.9-3.9 5.9-5.9-5.9-5.9 0.5-8.2c6.5-3.1 11.1-9.8 11.1-17.5 0-1.3-0.1-2.5-0.4-3.8 11.1 6.7 17.9 18.7 18 31.7 0 20.4-16.5 37-37 37-20.4 0-37-16.5-37-37 0-13 6.8-25 18-31.7-0.2 1.3-0.4 2.5-0.4 3.8zm13.9 22.1h2.8v27.7h-2.8z" display="inline" fill="url(#SVGID_1_)"/></g></g><g display="none"><path d="m27.526 52.29c-1.9608-0.0647-5.404-17.019-6.7913-18.406-1.3481-1.348-18.036-4.4523-17.973-6.3577 0.06469-1.9609 17.019-5.4041 18.406-6.7914 1.348-1.348 4.4523-18.036 6.3577-17.973 1.9609 0.06468 5.4041 17.019 6.7914 18.406 1.348 1.348 18.036 4.4523 17.973 6.3577-0.0647 1.9609-17.019 5.404-18.406 6.7913-1.348 1.3481-4.4523 18.036-6.3577 17.973z" fill="#0f0" stroke="#000" stroke-linecap="round" stroke-linejoin="round" stroke-width="5.5228" style="paint-order:markers stroke fill"/></g><g><path d="m63.4 98.5c-3.7 0-6.7-3-6.7-6.7v-20.5c0-3.3 2.5-6.1 5.7-6.6v-4.1c0-8.4 6.8-15.2 15.2-15.2s15.2 6.8 15.2 15.2v4.1c3.2 0.5 5.7 3.3 5.7 6.6v20.5c0 3.7-3 6.7-6.7 6.7zm20.1-33.8v-5c0-3.2-2.6-5.9-5.9-5.9s-5.8 2.6-5.8 5.9v5z" fill="url(#SVGID_2_-3)" stroke="#0e0e0e" stroke-width="3"/></g><g display="none"><rect transform="translate(2.9829 .81217)" x="62.107" y="49.702" width="33.41" height="47.986" ry="5.2592" display="inline" fill="#f00" stroke="#000" stroke-linecap="round" stroke-linejoin="round" stroke-width="3"/><path d="m77.318 80.202v-1.7344c0-1.5 0.3203-2.8047 0.961-3.9141 0.6406-1.1093 1.8125-2.289 3.5156-3.539 1.6406-1.1719 2.7187-2.125 3.2344-2.8594 0.5312-0.7344 0.7968-1.5547 0.7968-2.4609 0-1.0157-0.375-1.7891-1.125-2.3204-0.75-0.5312-1.7968-0.7968-3.1406-0.7968-2.3437 0-5.0156 0.7656-8.0156 2.2968l-2.5547-5.1328c3.4844-1.9531 7.1797-2.9297 11.086-2.9297 3.2188 0 5.7735 0.7735 7.6641 2.3204 1.9063 1.5468 2.8594 3.6093 2.8594 6.1875 0 1.7187-0.3906 3.2031-1.1719 4.4531-0.7812 1.25-2.2656 2.6562-4.4531 4.2187-1.5 1.1094-2.4531 1.9532-2.8594 2.5313-0.3906 0.5781-0.5859 1.3359-0.5859 2.2734v1.4063zm-0.75 8.0156c0-1.3125 0.3516-2.3047 1.0547-2.9766 0.7031-0.6718 1.7266-1.0078 3.0703-1.0078 1.2969 0 2.2969 0.3438 3 1.0313 0.7188 0.6875 1.0782 1.6718 1.0782 2.9531 0 1.2344-0.3594 2.2109-1.0782 2.9297-0.7187 0.7031-1.7187 1.0547-3 1.0547-1.3125 0-2.3281-0.3438-3.0468-1.0313-0.7188-0.7031-1.0782-1.6875-1.0782-2.9531z" display="inline" fill="#fff" stroke="#fff" stroke-linecap="round"/><g><rect transform="matrix(1.1046 0 0 1.1046 -7.5383 -9.5324)" x="58.942" y="60.377" width="37.058" height="37.428" ry="4.102" display="inline" fill="#f00" stroke="#040404" stroke-linecap="round" stroke-linejoin="round" stroke-width="2.716"/><path d="m67.652 67.432 20.762 20.794m0-20.794-20.762 20.794" display="inline" fill="none" stroke="#fff" stroke-linecap="round" stroke-width="6.0701"/><rect transform="translate(5.4993 4.4312)" x="62.782" y="46.083" width="30.219" height="47.986" ry="5.2592" display="inline" fill="#f00" stroke="#000" stroke-width="3"/></g><path d="m86.297 79.956h-5.7188l-1.1953-22.898h8.1094zm-7.0078 8.0156c0-1.3125 0.3515-2.3047 1.0547-2.9766 0.7031-0.6718 1.7265-1.0078 3.0703-1.0078 1.2969 0 2.2969 0.3438 3 1.0313 0.7187 0.6875 1.0781 1.6719 1.0781 2.9531 0 1.2344-0.3594 2.2109-1.0781 2.9297-0.7188 0.7031-1.7188 1.0547-3 1.0547-1.3125 0-2.3281-0.3438-3.0469-1.0313-0.7187-0.7031-1.0781-1.6875-1.0781-2.9531z" display="inline" fill="#fff" stroke="#fff"/></g></svg>
