<svg xml:space="preserve" viewBox="0 0 100 100" xmlns="http://www.w3.org/2000/svg"><path d="M50 5.18A44.87 44.87 0 0 0 5.18 50 44.87 44.87 0 0 0 50 94.82 44.87 44.87 0 0 0 94.82 50 44.87 44.87 0 0 0 50 5.18zm0 85.87A41.08 41.08 0 0 1 8.97 50 41.08 41.08 0 0 1 50 8.95 41.08 41.08 0 0 1 91.03 50 41.08 41.08 0 0 1 50 91.05zM67.77 20.3c.28 1.22.37 2.34.37 3.56 0 7.2-4.3 13.47-10.38 16.37l-.47 7.66 5.52 5.52-5.52 5.52 3.65 3.65-3.65 3.65.47 6.82L50 80.83l-7.76-7.77V40.23a18.07 18.07 0 0 1-10.38-16.36c0-1.22.19-2.34.37-3.56A34.58 34.58 0 0 0 50 84.57a34.58 34.58 0 0 0 34.6-34.6A34.91 34.91 0 0 0 67.77 20.3zM50 23.87c3.55 0 6.45-2.9 6.45-6.46 0-.46-.1-.93-.18-1.4a27.91 27.91 0 0 0-6.27-.56 36 36 0 0 0-6.27.56c-.09.47-.18.94-.18 1.4 0 3.56 2.9 6.46 6.45 6.46zm-5.14 20.67h2.62v25.9h-2.62Z" fill="#0f0f0d" style="display:inline" stroke="#0c0c0c" stroke-opacity=".8"/></svg>
