<?xml version="1.0" encoding="UTF-8" standalone="no"?>
<svg
   id="svg2"
   viewBox="0 0 100 100"
   version="1.1"
   sodipodi:docname="keepassxc_source.svg"
   inkscape:version="1.2.2 (b0a8486541, 2022-12-01)"
   inkscape:export-filename="light/icon_new_cross.svg"
   inkscape:export-xdpi="100"
   inkscape:export-ydpi="100"
   xml:space="preserve"
   xmlns:inkscape="http://www.inkscape.org/namespaces/inkscape"
   xmlns:sodipodi="http://sodipodi.sourceforge.net/DTD/sodipodi-0.dtd"
   xmlns="http://www.w3.org/2000/svg"
   xmlns:svg="http://www.w3.org/2000/svg"><defs
     id="defs23"><linearGradient
       id="linearGradient3216"
       gradientUnits="userSpaceOnUse"
       x1="73.800003"
       y1="1532.1382"
       x2="73.800003"
       y2="1574.0038"
       gradientTransform="translate(-0.51807498,-1417.3041)"><stop
         offset="0"
         style="stop-color:#ffcb00;stop-opacity:1;"
         id="stop3164" /><stop
         offset="1"
         style="stop-color:#af7125"
         id="stop3166" /></linearGradient></defs><sodipodi:namedview
     id="namedview21"
     pagecolor="#ffffff"
     bordercolor="#000000"
     borderopacity="0.25"
     inkscape:showpageshadow="2"
     inkscape:pageopacity="0.0"
     inkscape:pagecheckerboard="true"
     inkscape:deskcolor="#d1d1d1"
     showgrid="false"
     inkscape:zoom="2.42"
     inkscape:cx="40.495868"
     inkscape:cy="58.884298"
     inkscape:window-width="883"
     inkscape:window-height="924"
     inkscape:window-x="26"
     inkscape:window-y="23"
     inkscape:window-maximized="0"
     inkscape:current-layer="layer3"
     showguides="true"
     inkscape:lockguides="true"><sodipodi:guide
       position="97.567954,29.756795"
       orientation="1,0"
       id="guide432"
       inkscape:locked="true" /><sodipodi:guide
       position="77.968526,2.5751073"
       orientation="0,-1"
       id="guide434"
       inkscape:locked="true" /><sodipodi:guide
       position="51.788269,97.567954"
       orientation="0,-1"
       id="guide436"
       inkscape:locked="true" /><sodipodi:guide
       position="2.7181688,42.632332"
       orientation="1,0"
       id="guide438"
       inkscape:locked="true" /></sodipodi:namedview><linearGradient
     id="SVGID_1_"
     gradientUnits="userSpaceOnUse"
     x1="50.2693"
     y1="-1470.9402"
     x2="49.6968"
     y2="-1392.7863"
     gradientTransform="matrix(1 0 0 -1 0 -1384.1102)"><stop
       offset="0"
       style="stop-color:gray"
       id="stop4" /><stop
       offset="1"
       style="stop-color:#4b4b4d"
       id="stop6" /></linearGradient><linearGradient
     id="SVGID_2_"
     gradientUnits="userSpaceOnUse"
     x1="73.8"
     y1="1532.1382"
     x2="73.8"
     y2="1574.0038"
     gradientTransform="translate(-2.7294229,-1488.3381)"><stop
       offset="0"
       style="stop-color:#d69029"
       id="stop11" /><stop
       offset="1"
       style="stop-color:#af7125"
       id="stop13" /></linearGradient><g
     inkscape:groupmode="layer"
     id="layer2"
     inkscape:label="light-theme-icon-normal"
     style="display:inline;stroke:#0c0c0c;stroke-opacity:0.8"><circle
       style="clip-rule:evenodd;fill:none;fill-rule:evenodd;stroke:#0c0c0c;stroke-width:3.1319;stroke-linecap:round;stroke-linejoin:round;stroke-opacity:0.85"
       cx="50"
       cy="50"
       r="45.900002"
       id="circle2" /><path
       style="display:inline;fill:#0c0c0c;fill-opacity:0.85;stroke:#0c0c0c;stroke-opacity:0.85"
       d="m 56.7,13.7 c 0.1,0.5 0.2,1 0.2,1.5 0,3.8 -3.1,6.9 -6.9,6.9 -3.8,0 -6.9,-3.1 -6.9,-6.9 0,-0.5 0.1,-1 0.2,-1.5 2.2,-0.4 4.5,-0.6 6.7,-0.6 2.3,-0.1 4.5,0.2 6.7,0.6 z m -26.1,8.4 c 0,7.7 4.5,14.4 11.1,17.5 v 35.1 l 8.3,8.3 8.3,-8.3 -0.5,-7.3 3.9,-3.9 -3.9,-3.9 5.9,-5.9 -5.9,-5.9 0.5,-8.2 C 64.8,36.5 69.4,29.8 69.4,22.1 69.4,20.8 69.3,19.6 69,18.3 80.1,25 86.9,37 87,50 87,70.4 70.5,87 50,87 29.6,87 13,70.5 13,50 13,37 19.8,25 31,18.3 c -0.2,1.3 -0.4,2.5 -0.4,3.8 z m 13.9,22.1 h 2.8 v 27.7 h -2.8 z"
       id="path9" /></g><g
     inkscape:groupmode="layer"
     id="g5657"
     inkscape:label="light-theme-icon-dark"
     style="display:none"><circle
       style="clip-rule:evenodd;display:inline;fill:none;fill-rule:evenodd;stroke:#0c0c0c;stroke-width:3.1319;stroke-linecap:round;stroke-linejoin:round;stroke-opacity:0.4"
       cx="50"
       cy="50"
       r="45.900002"
       id="circle5653"
       inkscape:label="circle5653" /><path
       style="fill:#0c0c0c;fill-opacity:0.4;stroke:#0c0c0c;stroke-opacity:0.4"
       d="m 56.7,13.7 c 0.1,0.5 0.2,1 0.2,1.5 0,3.8 -3.1,6.9 -6.9,6.9 -3.8,0 -6.9,-3.1 -6.9,-6.9 0,-0.5 0.1,-1 0.2,-1.5 2.2,-0.4 4.5,-0.6 6.7,-0.6 2.3,-0.1 4.5,0.2 6.7,0.6 z m -26.1,8.4 c 0,7.7 4.5,14.4 11.1,17.5 v 35.1 l 8.3,8.3 8.3,-8.3 -0.5,-7.3 3.9,-3.9 -3.9,-3.9 5.9,-5.9 -5.9,-5.9 0.5,-8.2 C 64.8,36.5 69.4,29.8 69.4,22.1 69.4,20.8 69.3,19.6 69,18.3 80.1,25 86.9,37 87,50 87,70.4 70.5,87 50,87 29.6,87 13,70.5 13,50 13,37 19.8,25 31,18.3 c -0.2,1.3 -0.4,2.5 -0.4,3.8 z m 13.9,22.1 h 2.8 v 27.7 h -2.8 z"
       id="path5655"
       inkscape:label="path5655" /></g><g
     inkscape:groupmode="layer"
     id="g12443"
     inkscape:label="dark-theme-icon-normal"
     style="display:none;stroke:#0c0c0c;stroke-opacity:0.8"><circle
       style="clip-rule:evenodd;display:inline;fill:none;fill-rule:evenodd;stroke:#f9f9fa;stroke-width:3.1319;stroke-linecap:round;stroke-linejoin:round;stroke-opacity:1"
       cx="50"
       cy="50"
       r="45.900002"
       id="circle12437"
       inkscape:label="circle12437" /><path
       style="display:inline;fill:#f9f9fa;fill-opacity:1;stroke:#f9f9fa;stroke-opacity:1"
       d="m 56.7,13.7 c 0.1,0.5 0.2,1 0.2,1.5 0,3.8 -3.1,6.9 -6.9,6.9 -3.8,0 -6.9,-3.1 -6.9,-6.9 0,-0.5 0.1,-1 0.2,-1.5 2.2,-0.4 4.5,-0.6 6.7,-0.6 2.3,-0.1 4.5,0.2 6.7,0.6 z m -26.1,8.4 c 0,7.7 4.5,14.4 11.1,17.5 v 35.1 l 8.3,8.3 8.3,-8.3 -0.5,-7.3 3.9,-3.9 -3.9,-3.9 5.9,-5.9 -5.9,-5.9 0.5,-8.2 C 64.8,36.5 69.4,29.8 69.4,22.1 69.4,20.8 69.3,19.6 69,18.3 80.1,25 86.9,37 87,50 87,70.4 70.5,87 50,87 29.6,87 13,70.5 13,50 13,37 19.8,25 31,18.3 c -0.2,1.3 -0.4,2.5 -0.4,3.8 z m 13.9,22.1 h 2.8 v 27.7 h -2.8 z"
       id="path12439"
       inkscape:label="path12439" /></g><g
     inkscape:groupmode="layer"
     id="g15146"
     inkscape:label="dark-theme-icon-dark"
     style="display:none;stroke:#0c0c0c;stroke-opacity:0.8"><circle
       style="clip-rule:evenodd;fill:none;fill-rule:evenodd;stroke:#f9f9fa;stroke-width:3.1319;stroke-linecap:round;stroke-linejoin:round;stroke-opacity:0.4"
       cx="50"
       cy="50"
       r="45.900002"
       id="circle15140"
       inkscape:label="circle15140" /><path
       style="display:inline;fill:#f9f9fa;fill-opacity:0.4;stroke:#f9f9fa;stroke-opacity:0.4"
       d="m 56.7,13.7 c 0.1,0.5 0.2,1 0.2,1.5 0,3.8 -3.1,6.9 -6.9,6.9 -3.8,0 -6.9,-3.1 -6.9,-6.9 0,-0.5 0.1,-1 0.2,-1.5 2.2,-0.4 4.5,-0.6 6.7,-0.6 2.3,-0.1 4.5,0.2 6.7,0.6 z m -26.1,8.4 c 0,7.7 4.5,14.4 11.1,17.5 v 35.1 l 8.3,8.3 8.3,-8.3 -0.5,-7.3 3.9,-3.9 -3.9,-3.9 5.9,-5.9 -5.9,-5.9 0.5,-8.2 C 64.8,36.5 69.4,29.8 69.4,22.1 69.4,20.8 69.3,19.6 69,18.3 80.1,25 86.9,37 87,50 87,70.4 70.5,87 50,87 29.6,87 13,70.5 13,50 13,37 19.8,25 31,18.3 c -0.2,1.3 -0.4,2.5 -0.4,3.8 z m 13.9,22.1 h 2.8 v 27.7 h -2.8 z"
       id="path15144" /></g><g
     inkscape:groupmode="layer"
     id="layer1"
     inkscape:label="badge-locked"
     style="display:none"
     transform="translate(1.7351797,1.5502057)"><path
       style="display:inline;fill:#f2c100;fill-opacity:1;stroke:#000000;stroke-width:2.86711;stroke-dasharray:none;stroke-opacity:0.85"
       d="m 63.286023,97.016239 c -3.536108,0 -6.403223,-2.867115 -6.403223,-6.403223 V 71.021065 c 0,-3.153826 2.389262,-5.8298 5.447518,-6.307653 v -3.91839 c 0,-8.027921 6.498793,-14.526714 14.526715,-14.526714 8.027921,0 14.526714,6.498793 14.526714,14.526714 v 3.91839 c 3.058256,0.477853 5.447518,3.153827 5.447518,6.307653 v 19.591951 c 0,3.536108 -2.867114,6.403223 -6.403223,6.403223 z M 82.495692,64.713412 v -4.778524 c 0,-3.058256 -2.484833,-5.638659 -5.638659,-5.638659 -3.153827,0 -5.543089,2.484833 -5.543089,5.638659 v 4.778524 z"
       id="path3169" /></g><g
     inkscape:groupmode="layer"
     id="layer3"
     inkscape:label="badge-cross"
     transform="matrix(1.1045719,0,0,1.1045719,-7.5383336,-9.5324504)"
     style="display:none"
     sodipodi:insensitive="true"><rect
       style="display:inline;fill:#ff0000;stroke:#000000;stroke-width:2.71598;stroke-linecap:round;stroke-linejoin:round;stroke-dasharray:none;stroke-opacity:0.85"
       id="rect1394-3"
       width="37.057533"
       height="37.427826"
       x="58.941952"
       y="60.376991"
       ry="4.1020384" /><path
       id="path6950"
       style="display:inline;fill:none;fill-opacity:1;stroke:#ffffff;stroke-width:5.49547;stroke-linecap:round;stroke-dasharray:none;stroke-opacity:1"
       d="m 68.072398,69.678186 18.796641,18.825437 m 0,-18.825437 -18.796641,18.825437" /></g><g
     inkscape:groupmode="layer"
     id="g8368"
     inkscape:label="badge-questionmark"
     transform="translate(2.9828987,0.81216812)"
     style="display:inline"><rect
       style="display:inline;fill:#ff0000;fill-opacity:1;stroke:#000000;stroke-width:3;stroke-linecap:round;stroke-linejoin:round;stroke-dasharray:none;stroke-opacity:0.85"
       id="rect1394"
       width="33.410019"
       height="47.986073"
       x="62.107082"
       y="49.701759"
       ry="5.2592082" /><text
       xml:space="preserve"
       style="font-style:normal;font-variant:normal;font-weight:bold;font-stretch:normal;font-size:48px;font-family:'Open Sans';-inkscape-font-specification:'Open Sans, Bold';font-variant-ligatures:normal;font-variant-caps:normal;font-variant-numeric:normal;font-variant-east-asian:normal;fill:#ffffff;fill-opacity:1;stroke:none;stroke-width:1;stroke-linecap:round;stroke-dasharray:none;stroke-opacity:1"
       x="67.866776"
       y="90.757294"
       id="text8366"><tspan
         sodipodi:role="line"
         id="tspan8364"
         x="67.866776"
         y="90.757294"
         style="font-style:normal;font-variant:normal;font-weight:bold;font-stretch:normal;font-size:48px;font-family:'Open Sans';-inkscape-font-specification:'Open Sans, Bold';font-variant-ligatures:normal;font-variant-caps:normal;font-variant-numeric:normal;font-variant-east-asian:normal;fill:#ffffff;fill-opacity:1;stroke:none;stroke-width:1;stroke-dasharray:none">?</tspan></text></g><g
     inkscape:groupmode="layer"
     id="g472"
     inkscape:label="badge-bang"
     transform="translate(5.4993286,4.431179)"
     style="display:none"><rect
       style="display:inline;fill:#ff0000;stroke:#000000;stroke-width:3;stroke-dasharray:none;stroke-opacity:0.85"
       id="rect490"
       width="30.218517"
       height="47.986073"
       x="62.782154"
       y="46.082748"
       ry="5.2592082" /><text
       xml:space="preserve"
       style="font-style:normal;font-variant:normal;font-weight:bold;font-stretch:normal;font-size:48px;font-family:'Open Sans';-inkscape-font-specification:'Open Sans, Bold';font-variant-ligatures:normal;font-variant-caps:normal;font-variant-numeric:normal;font-variant-east-asian:normal;display:inline;fill:#ffffff;fill-opacity:1"
       x="71.047661"
       y="86.892189"
       id="text470"
       inkscape:label="text470"><tspan
         sodipodi:role="line"
         id="tspan468"
         x="71.047661"
         y="86.892189"
         style="font-style:normal;font-variant:normal;font-weight:bold;font-stretch:normal;font-size:48px;font-family:'Open Sans';-inkscape-font-specification:'Open Sans, Bold';font-variant-ligatures:normal;font-variant-caps:normal;font-variant-numeric:normal;font-variant-east-asian:normal;fill:#ffffff;fill-opacity:1">!</tspan></text></g><g
     inkscape:groupmode="layer"
     id="layer5"
     inkscape:label="badge-new"
     style="display:none"
     transform="translate(-2.0168141,-1.7179647)"><path
       sodipodi:type="star"
       style="fill:#00e900;fill-opacity:1;stroke:#000000;stroke-width:5.84511;stroke-linecap:round;stroke-linejoin:round;stroke-dasharray:none;stroke-opacity:0.85;paint-order:markers stroke fill"
       id="path8694"
       inkscape:flatsided="false"
       sodipodi:sides="4"
       sodipodi:cx="15.324222"
       sodipodi:cy="16.191153"
       sodipodi:r1="26.209097"
       sodipodi:r2="9.8456936"
       sodipodi:arg1="1.5707963"
       sodipodi:arg2="2.3891607"
       inkscape:rounded="0.1"
       inkscape:randomized="0"
       d="M 15.324222,42.400249 C 13.248941,42.331793 9.6048282,24.388098 8.1365798,22.919859 6.709881,21.493169 -10.951395,18.207707 -10.884875,16.191153 -10.816418,14.115872 7.1272766,10.471759 8.5955153,9.0035108 10.022205,7.576812 13.307668,-10.084464 15.324221,-10.017944 c 2.075281,0.068457 5.719394,18.0121516 7.187642,19.4803903 1.426699,1.4266897 19.087975,4.7121527 19.021456,6.7287057 -0.06846,2.075281 -18.012152,5.719394 -19.480391,7.187642 -1.42669,1.426699 -4.712152,19.087975 -6.728706,19.021455 z"
       transform="matrix(0.94486486,0,0,0.94486486,15.063266,13.945284)"
       inkscape:export-filename="dark/path8694.png"
       inkscape:export-xdpi="36.48"
       inkscape:export-ydpi="36.48" /></g></svg>
