<?xml version="1.0" encoding="UTF-8" standalone="no"?>
<svg
   id="svg2"
   viewBox="0 0 100 100"
   version="1.1"
   sodipodi:docname="icon_remember_source.svg"
   inkscape:version="1.2.2 (b0a8486541, 2022-12-01)"
   inkscape:export-filename="icon_remember_red_lock.png"
   inkscape:export-xdpi="36.48"
   inkscape:export-ydpi="36.48"
   xmlns:inkscape="http://www.inkscape.org/namespaces/inkscape"
   xmlns:sodipodi="http://sodipodi.sourceforge.net/DTD/sodipodi-0.dtd"
   xmlns="http://www.w3.org/2000/svg"
   xmlns:svg="http://www.w3.org/2000/svg">
  <defs
     id="defs9530">
    <filter
       id="mask-powermask-path-effect11520_inverse"
       inkscape:label="filtermask-powermask-path-effect11520"
       style="color-interpolation-filters:sRGB"
       height="100"
       width="100"
       x="-50"
       y="-50">
      <feColorMatrix
         id="mask-powermask-path-effect11520_primitive1"
         values="1"
         type="saturate"
         result="fbSourceGraphic" />
      <feColorMatrix
         id="mask-powermask-path-effect11520_primitive2"
         values="-1 0 0 0 1 0 -1 0 0 1 0 0 -1 0 1 0 0 0 1 0 "
         in="fbSourceGraphic" />
    </filter>
  </defs>
  <sodipodi:namedview
     id="namedview9528"
     pagecolor="#ffffff"
     bordercolor="#000000"
     borderopacity="0.25"
     inkscape:showpageshadow="2"
     inkscape:pageopacity="0.0"
     inkscape:pagecheckerboard="true"
     inkscape:deskcolor="#d1d1d1"
     showgrid="false"
     inkscape:zoom="7.15"
     inkscape:cx="36.083916"
     inkscape:cy="50.559441"
     inkscape:window-width="1503"
     inkscape:window-height="940"
     inkscape:window-x="0"
     inkscape:window-y="0"
     inkscape:window-maximized="1"
     inkscape:current-layer="g10220" />
  <linearGradient
     id="SVGID_1_"
     gradientUnits="userSpaceOnUse"
     x1="50.2693"
     y1="-1470.9402"
     x2="49.6968"
     y2="-1392.7863"
     gradientTransform="translate(0,1484.1908)">
    <stop
       offset="0"
       style="stop-color:gray"
       id="stop9511" />
    <stop
       offset="1"
       style="stop-color:#4b4b4d"
       id="stop9513" />
  </linearGradient>
  <linearGradient
     id="SVGID_2_"
     gradientUnits="userSpaceOnUse"
     x1="73.8"
     y1="1532.1382"
     x2="73.8"
     y2="1574.0038"
     gradientTransform="translate(-23.8,-1502.25)">
    <stop
       offset="0"
       style="stop-color:#d69029"
       id="stop9518" />
    <stop
       offset="1"
       style="stop-color:#af7125"
       id="stop9520" />
  </linearGradient>
  <g
     inkscape:groupmode="layer"
     id="layer6"
     inkscape:label="red_background"
     style="display:inline">
    <path
       id="circle9509"
       style="clip-rule:evenodd;fill:#e02950;fill-opacity:0.8;fill-rule:evenodd;stroke:none;stroke-width:3.20695;stroke-linecap:round;stroke-linejoin:round"
       d="M 50,3 A 47,47 0 0 0 3,50 47,47 0 0 0 50,97 47,47 0 0 0 97,50 47,47 0 0 0 50,3 Z m 0,20.449219 c 8.399992,0 15.199219,6.80118 15.199219,15.201172 V 42.75 c 3.199997,0.5 5.701172,3.299613 5.701172,6.599609 v 20.5 c 0,3.699997 -3.001176,6.701172 -6.701172,6.701172 H 35.800781 c -3.699996,0 -6.701172,-3.001175 -6.701172,-6.701172 v -20.5 c 0,-3.299996 2.501175,-6.099609 5.701172,-6.599609 v -4.099609 c 0,-8.399992 6.799227,-15.201172 15.199219,-15.201172 z m 0,8.40039 c -3.299997,0 -5.800781,2.600394 -5.800781,5.900391 v 5 h 11.701172 v -5 c 0,-3.199997 -2.600394,-5.900391 -5.900391,-5.900391 z" />
    <path
       d="M 45.990601,68.43161 V 51.298798 h 3.632812 V 65.43161 h 6.949219 v 3 z"
       style="font-weight:bold;font-size:24px;font-family:'Open Sans';-inkscape-font-specification:'Open Sans, Bold';display:inline;fill:#e02950;fill-opacity:0.8;stroke-width:0.5;stroke-linecap:round;stroke-linejoin:round;stroke-opacity:0.8"
       id="path11501" />
  </g>
  <g
     inkscape:groupmode="layer"
     id="g10220"
     inkscape:label="red_lock"
     style="display:none">
    <path
       id="path10218"
       style="display:inline;fill:#e02950;fill-opacity:0.8"
       d="m 50,23.449219 c -8.399992,0 -15.199219,6.80118 -15.199219,15.201172 V 42.75 c -3.199997,0.5 -5.701172,3.299613 -5.701172,6.599609 v 20.5 c 0,3.699997 3.001176,6.701172 6.701172,6.701172 h 28.398438 c 3.699996,0 6.701172,-3.001175 6.701172,-6.701172 v -20.5 C 70.900391,46.049613 68.399216,43.25 65.199219,42.75 V 38.650391 C 65.199219,30.250399 58.399992,23.449219 50,23.449219 Z m 0,8.40039 c 3.299997,0 5.900391,2.700394 5.900391,5.900391 v 5 H 44.199219 v -5 c 0,-3.299997 2.500784,-5.900391 5.800781,-5.900391 z m -4.009766,19.449219 h 3.632813 v 14.132813 h 6.949219 v 3 H 45.990234 Z" />
  </g>
</svg>
