<?xml version="1.0" encoding="UTF-8" standalone="no"?>
<svg
   id="svg2"
   viewBox="0 0 100 100"
   version="1.1"
   sodipodi:docname="keepassxc_source.svg"
   inkscape:version="1.2.2 (b0a8486541, 2022-12-01)"
   inkscape:export-filename="dark/icon_questionmark.png"
   inkscape:export-xdpi="36.48"
   inkscape:export-ydpi="36.48"
   xmlns:inkscape="http://www.inkscape.org/namespaces/inkscape"
   xmlns:sodipodi="http://sodipodi.sourceforge.net/DTD/sodipodi-0.dtd"
   xmlns="http://www.w3.org/2000/svg"
   xmlns:svg="http://www.w3.org/2000/svg">
  <defs
     id="defs23">
    <linearGradient
       id="linearGradient3216"
       gradientUnits="userSpaceOnUse"
       x1="73.800003"
       y1="1532.1382"
       x2="73.800003"
       y2="1574.0038"
       gradientTransform="translate(-0.51807498,-1417.3041)">
      <stop
         offset="0"
         style="stop-color:#ffcb00;stop-opacity:1;"
         id="stop3164" />
      <stop
         offset="1"
         style="stop-color:#af7125"
         id="stop3166" />
    </linearGradient>
  </defs>
  <sodipodi:namedview
     id="namedview21"
     pagecolor="#ffffff"
     bordercolor="#000000"
     borderopacity="0.25"
     inkscape:showpageshadow="2"
     inkscape:pageopacity="0.0"
     inkscape:pagecheckerboard="true"
     inkscape:deskcolor="#d1d1d1"
     showgrid="false"
     inkscape:zoom="2.39"
     inkscape:cx="-8.9958159"
     inkscape:cy="51.25523"
     inkscape:window-width="1503"
     inkscape:window-height="940"
     inkscape:window-x="0"
     inkscape:window-y="0"
     inkscape:window-maximized="1"
     inkscape:current-layer="g12443" />
  <linearGradient
     id="SVGID_1_"
     gradientUnits="userSpaceOnUse"
     x1="50.2693"
     y1="-1470.9402"
     x2="49.6968"
     y2="-1392.7863"
     gradientTransform="matrix(1 0 0 -1 0 -1384.1102)">
    <stop
       offset="0"
       style="stop-color:gray"
       id="stop4" />
    <stop
       offset="1"
       style="stop-color:#4b4b4d"
       id="stop6" />
  </linearGradient>
  <linearGradient
     id="SVGID_2_"
     gradientUnits="userSpaceOnUse"
     x1="73.8"
     y1="1532.1382"
     x2="73.8"
     y2="1574.0038"
     gradientTransform="translate(-2.7294229,-1488.3381)">
    <stop
       offset="0"
       style="stop-color:#d69029"
       id="stop11" />
    <stop
       offset="1"
       style="stop-color:#af7125"
       id="stop13" />
  </linearGradient>
  <g
     inkscape:groupmode="layer"
     id="layer2"
     inkscape:label="light-theme-icon-normal"
     style="display:inline;stroke:#0c0c0c;stroke-opacity:0.8">
    <circle
       style="clip-rule:evenodd;fill:none;fill-rule:evenodd;stroke:#0c0c0c;stroke-width:3.1319;stroke-linecap:round;stroke-linejoin:round;stroke-opacity:0.8"
       cx="50"
       cy="50"
       r="45.900002"
       id="circle2" />
    <path
       style="display:inline;fill:#0c0c0c;fill-opacity:0.8;stroke:#0c0c0c;stroke-opacity:0.8"
       d="m 56.7,13.7 c 0.1,0.5 0.2,1 0.2,1.5 0,3.8 -3.1,6.9 -6.9,6.9 -3.8,0 -6.9,-3.1 -6.9,-6.9 0,-0.5 0.1,-1 0.2,-1.5 2.2,-0.4 4.5,-0.6 6.7,-0.6 2.3,-0.1 4.5,0.2 6.7,0.6 z m -26.1,8.4 c 0,7.7 4.5,14.4 11.1,17.5 v 35.1 l 8.3,8.3 8.3,-8.3 -0.5,-7.3 3.9,-3.9 -3.9,-3.9 5.9,-5.9 -5.9,-5.9 0.5,-8.2 C 64.8,36.5 69.4,29.8 69.4,22.1 69.4,20.8 69.3,19.6 69,18.3 80.1,25 86.9,37 87,50 87,70.4 70.5,87 50,87 29.6,87 13,70.5 13,50 13,37 19.8,25 31,18.3 c -0.2,1.3 -0.4,2.5 -0.4,3.8 z m 13.9,22.1 h 2.8 v 27.7 h -2.8 z"
       id="path9" />
  </g>
  <g
     inkscape:groupmode="layer"
     id="g5657"
     inkscape:label="light-theme-icon-dark"
     style="display:none">
    <circle
       style="clip-rule:evenodd;display:inline;fill:none;fill-rule:evenodd;stroke:#0c0c0c;stroke-width:3.1319;stroke-linecap:round;stroke-linejoin:round;stroke-opacity:0.4"
       cx="50"
       cy="50"
       r="45.900002"
       id="circle5653"
       inkscape:label="circle5653" />
    <path
       style="fill:#0c0c0c;fill-opacity:0.4;stroke:#0c0c0c;stroke-opacity:0.4"
       d="m 56.7,13.7 c 0.1,0.5 0.2,1 0.2,1.5 0,3.8 -3.1,6.9 -6.9,6.9 -3.8,0 -6.9,-3.1 -6.9,-6.9 0,-0.5 0.1,-1 0.2,-1.5 2.2,-0.4 4.5,-0.6 6.7,-0.6 2.3,-0.1 4.5,0.2 6.7,0.6 z m -26.1,8.4 c 0,7.7 4.5,14.4 11.1,17.5 v 35.1 l 8.3,8.3 8.3,-8.3 -0.5,-7.3 3.9,-3.9 -3.9,-3.9 5.9,-5.9 -5.9,-5.9 0.5,-8.2 C 64.8,36.5 69.4,29.8 69.4,22.1 69.4,20.8 69.3,19.6 69,18.3 80.1,25 86.9,37 87,50 87,70.4 70.5,87 50,87 29.6,87 13,70.5 13,50 13,37 19.8,25 31,18.3 c -0.2,1.3 -0.4,2.5 -0.4,3.8 z m 13.9,22.1 h 2.8 v 27.7 h -2.8 z"
       id="path5655"
       inkscape:label="path5655" />
  </g>
  <g
     inkscape:groupmode="layer"
     id="g12443"
     inkscape:label="dark-theme-icon-normal"
     style="display:none;stroke:#0c0c0c;stroke-opacity:0.8">
    <circle
       style="clip-rule:evenodd;display:inline;fill:none;fill-rule:evenodd;stroke:#f9f9fa;stroke-width:3.1319;stroke-linecap:round;stroke-linejoin:round;stroke-opacity:1"
       cx="50"
       cy="50"
       r="45.900002"
       id="circle12437"
       inkscape:label="circle12437" />
    <path
       style="display:inline;fill:#f9f9fa;fill-opacity:1;stroke:#f9f9fa;stroke-opacity:1"
       d="m 56.7,13.7 c 0.1,0.5 0.2,1 0.2,1.5 0,3.8 -3.1,6.9 -6.9,6.9 -3.8,0 -6.9,-3.1 -6.9,-6.9 0,-0.5 0.1,-1 0.2,-1.5 2.2,-0.4 4.5,-0.6 6.7,-0.6 2.3,-0.1 4.5,0.2 6.7,0.6 z m -26.1,8.4 c 0,7.7 4.5,14.4 11.1,17.5 v 35.1 l 8.3,8.3 8.3,-8.3 -0.5,-7.3 3.9,-3.9 -3.9,-3.9 5.9,-5.9 -5.9,-5.9 0.5,-8.2 C 64.8,36.5 69.4,29.8 69.4,22.1 69.4,20.8 69.3,19.6 69,18.3 80.1,25 86.9,37 87,50 87,70.4 70.5,87 50,87 29.6,87 13,70.5 13,50 13,37 19.8,25 31,18.3 c -0.2,1.3 -0.4,2.5 -0.4,3.8 z m 13.9,22.1 h 2.8 v 27.7 h -2.8 z"
       id="path12439"
       inkscape:label="path12439" />
  </g>
  <g
     inkscape:groupmode="layer"
     id="g15146"
     inkscape:label="dark-theme-icon-dark"
     style="display:none;stroke:#0c0c0c;stroke-opacity:0.8">
    <circle
       style="clip-rule:evenodd;fill:none;fill-rule:evenodd;stroke:#f9f9fa;stroke-width:3.1319;stroke-linecap:round;stroke-linejoin:round;stroke-opacity:0.4"
       cx="50"
       cy="50"
       r="45.900002"
       id="circle15140"
       inkscape:label="circle15140" />
    <path
       style="display:inline;fill:#f9f9fa;fill-opacity:0.4;stroke:#f9f9fa;stroke-opacity:0.4"
       d="m 56.7,13.7 c 0.1,0.5 0.2,1 0.2,1.5 0,3.8 -3.1,6.9 -6.9,6.9 -3.8,0 -6.9,-3.1 -6.9,-6.9 0,-0.5 0.1,-1 0.2,-1.5 2.2,-0.4 4.5,-0.6 6.7,-0.6 2.3,-0.1 4.5,0.2 6.7,0.6 z m -26.1,8.4 c 0,7.7 4.5,14.4 11.1,17.5 v 35.1 l 8.3,8.3 8.3,-8.3 -0.5,-7.3 3.9,-3.9 -3.9,-3.9 5.9,-5.9 -5.9,-5.9 0.5,-8.2 C 64.8,36.5 69.4,29.8 69.4,22.1 69.4,20.8 69.3,19.6 69,18.3 80.1,25 86.9,37 87,50 87,70.4 70.5,87 50,87 29.6,87 13,70.5 13,50 13,37 19.8,25 31,18.3 c -0.2,1.3 -0.4,2.5 -0.4,3.8 z m 13.9,22.1 h 2.8 v 27.7 h -2.8 z"
       id="path15144" />
  </g>
  <g
     inkscape:groupmode="layer"
     id="layer1"
     inkscape:label="badge-locked"
     style="display:inline">
    <path
       style="display:none;fill:#ffffff"
       d="m 73.281925,109.39591 c 7.8,0 14.2,6.4 14.2,14.2 v 5.1 c 3.1,0 5.7,2.6 5.7,5.7 v 20.5 c 0,3.1 -2.6,5.7 -5.7,5.7 h -28.4 c -3.1,0 -5.7,-2.6 -5.7,-5.7 v -20.6 c 0,-3.1 2.6,-5.7 5.7,-5.7 v -5.1 c 0,-7.7 6.4,-14.1 14.2,-14.1 m -6.8,19.3 h 13.7 v -6 c 0,-3.8 -3.1,-6.9 -6.9,-6.9 -3.8,0 -6.8,3.1 -6.8,6.9 v 6 m 6.8,-21.3 c -8.9,0 -16.2,7.3 -16.2,16.2 v 3.3 c -3.3,0.9 -5.7,3.9 -5.7,7.4 v 20.5 c 0,4.2 3.4,7.7 7.7,7.7 h 28.4 c 4.2,0 7.7,-3.4 7.7,-7.7 v -20.5 c 0,-3.5 -2.4,-6.5 -5.7,-7.4 v -3.3 c 0,-8.9 -7.3,-16.2 -16.2,-16.2 z m -4.8,19.3 v -4 c 0,-2.7 2.2,-4.9 4.9,-4.9 2.7,0 4.9,2.2 4.9,4.9 v 4 z"
       id="path3171"
       transform="translate(0.51807468,-66.695908)" />
    <path
       style="display:inline;fill:#e17f2e;fill-opacity:1"
       d="m 59.081925,161.49591 c -3.7,0 -6.7,-3 -6.7,-6.7 v -20.5 c 0,-3.3 2.5,-6.1 5.7,-6.6 v -4.1 c 0,-8.4 6.8,-15.2 15.2,-15.2 8.4,0 15.2,6.8 15.2,15.2 v 4.1 c 3.2,0.5 5.7,3.3 5.7,6.6 v 20.5 c 0,3.7 -3,6.7 -6.7,6.7 z m 20.1,-33.8 v -5 c 0,-3.2 -2.6,-5.9 -5.9,-5.9 -3.3,0 -5.8,2.6 -5.8,5.9 v 5 z"
       id="path3169"
       transform="translate(0.51807468,-66.695908)" />
  </g>
  <g
     inkscape:groupmode="layer"
     id="layer3"
     inkscape:label="badge-cross"
     transform="translate(2)"
     style="display:none">
    <path
       style="display:inline;fill:none;fill-opacity:1;stroke:#e02950;stroke-width:10;stroke-linecap:round;stroke-dasharray:none;stroke-opacity:1"
       d="M 56.216214,57.364502 90.420102,91.620787"
       id="path6950" />
    <path
       style="display:inline;fill:none;fill-opacity:1;stroke:#e02950;stroke-width:10;stroke-linecap:round;stroke-dasharray:none;stroke-opacity:1"
       d="M 90.420102,57.364502 56.216214,91.620787"
       id="path6952" />
  </g>
  <g
     inkscape:groupmode="layer"
     id="g6985"
     inkscape:label="badge-bang"
     transform="translate(2)"
     style="display:none">
    <text
       xml:space="preserve"
       style="font-style:normal;font-variant:normal;font-weight:bold;font-stretch:normal;font-size:64px;font-family:'Open Sans';-inkscape-font-specification:'Open Sans, Bold';font-variant-ligatures:normal;font-variant-caps:normal;font-variant-numeric:normal;font-variant-east-asian:normal;display:inline;fill:#e02950;fill-opacity:1;stroke:none;stroke-width:1;stroke-linecap:round;stroke-dasharray:none;stroke-opacity:1"
       x="65.102959"
       y="96.458565"
       id="text7041"><tspan
         sodipodi:role="line"
         id="tspan7039"
         x="65.102959"
         y="96.458565"
         style="font-style:normal;font-variant:normal;font-weight:bold;font-stretch:normal;font-size:74.6667px;font-family:'Open Sans';-inkscape-font-specification:'Open Sans, Bold';font-variant-ligatures:normal;font-variant-caps:normal;font-variant-numeric:normal;font-variant-east-asian:normal;fill:#e02950;fill-opacity:1;stroke:none;stroke-width:1;stroke-dasharray:none">!</tspan></text>
  </g>
  <g
     inkscape:groupmode="layer"
     id="g8368"
     inkscape:label="badge-questionmark"
     transform="translate(2)"
     style="display:none">
    <text
       xml:space="preserve"
       style="font-style:normal;font-variant:normal;font-weight:bold;font-stretch:normal;font-size:64px;font-family:'Open Sans';-inkscape-font-specification:'Open Sans, Bold';font-variant-ligatures:normal;font-variant-caps:normal;font-variant-numeric:normal;font-variant-east-asian:normal;fill:#e02950;fill-opacity:1;stroke:none;stroke-width:1;stroke-linecap:round;stroke-dasharray:none;stroke-opacity:1"
       x="60.614399"
       y="96.458565"
       id="text8366"><tspan
         sodipodi:role="line"
         id="tspan8364"
         x="60.614399"
         y="96.458565"
         style="font-style:normal;font-variant:normal;font-weight:bold;font-stretch:normal;font-size:74.6667px;font-family:'Open Sans';-inkscape-font-specification:'Open Sans, Bold';font-variant-ligatures:normal;font-variant-caps:normal;font-variant-numeric:normal;font-variant-east-asian:normal;fill:#e02950;fill-opacity:1;stroke:none;stroke-width:1;stroke-dasharray:none">?</tspan></text>
  </g>
  <g
     inkscape:groupmode="layer"
     id="layer5"
     inkscape:label="badge-new"
     style="display:inline">
    <path
       sodipodi:type="star"
       style="fill:#71c837;fill-opacity:1;stroke:none;stroke-width:0.5;stroke-linecap:round;stroke-linejoin:round;stroke-dasharray:none;stroke-opacity:0.8;paint-order:normal"
       id="path8694"
       inkscape:flatsided="false"
       sodipodi:sides="4"
       sodipodi:cx="15.324222"
       sodipodi:cy="16.191153"
       sodipodi:r1="26.209097"
       sodipodi:r2="7.5887456"
       sodipodi:arg1="1.5707963"
       sodipodi:arg2="2.3561945"
       inkscape:rounded="0.1"
       inkscape:randomized="0"
       d="m 15.324222,42.400249 c -2.152271,0 -3.844169,-19.321158 -5.3660539,-20.843043 -1.5218854,-1.521885 -20.8430431,-3.213782 -20.8430431,-5.366053 0,-2.152271 19.3211579,-3.844169 20.8430432,-5.366054 1.5218848,-1.5218853 3.2137818,-20.843043 5.3660528,-20.843043 2.152271,0 3.844169,19.3211579 5.366054,20.843043 1.521885,1.521885 20.843044,3.213782 20.843044,5.366053 -10e-7,2.152271 -19.321159,3.844169 -20.843044,5.366054 -1.521885,1.521885 -3.213782,20.843044 -5.366053,20.843043 z"
       transform="matrix(1.0264992,0,0,1.0264992,13.831285,12.782392)" />
  </g>
</svg>
