<?xml version="1.0" encoding="UTF-8"?>
<svg viewBox="0 0 100 100" xmlns="http://www.w3.org/2000/svg">
<title>Choose Custom Login Fields icon</title>
<defs>
<clipPath id="a">
<path d="m59.581 38.746c3.7521 0 6.7171 3.1246 6.7171 6.8221v5.7285c0.28863-0.02604 0.55101-0.05208 0.83964-0.05208 1.7055 0 3.3061 0.65096 4.5393 1.7967 0.81339-0.36454 1.7055-0.54681 2.5976-0.54681 1.8892 0 3.6472 0.83323 4.8279 2.2654 0.49853-0.13019 0.97083-0.18227 1.4694-0.18227 3.3061 0 5.8774 2.734 5.8774 5.9628v5.6504c0 1.9529-0.23614 3.9318-0.73468 5.8587l-2.414 9.5822c-0.55101 2.2133-2.5714 3.7756-4.8804 3.7756h-18.839c-2.0991 0-4.1195-1.0155-5.3789-2.6559l-10.076-13.332c-0.86587-1.1457-1.3382-2.5778-1.3382-4.0099 0-3.6454 2.9912-6.6659 6.6646-6.6659 1.207 0 2.3877 0.31246 3.411 0.91135v-14.243c0-3.6714 3.0174-6.6659 6.7171-6.6659zm2.5189 36.662v-9.9988zm6.7171 0v-9.9988zm6.7171 0v-9.9988z" display="none" fill="none" stroke="#000" stroke-opacity=".99614" stroke-width="3.284"/>
<path class="powerclip" d="m2.9407 18.329h94.119v59.582h-94.119zm56.64 20.417c-3.6996 0-6.7171 2.9944-6.7171 6.6659v14.243c-1.0233-0.59889-2.204-0.91135-3.411-0.91135-3.6734 0-6.6646 3.0205-6.6646 6.6659 0 1.4321 0.47229 2.8642 1.3382 4.0099l10.076 13.332c1.2595 1.6404 3.2798 2.6559 5.3789 2.6559h18.839c2.309 0 4.3294-1.5623 4.8804-3.7756l2.414-9.5822c0.49854-1.9268 0.73468-3.9058 0.73468-5.8587v-5.6504c0-3.2288-2.5714-5.9628-5.8774-5.9628-0.49854 0-0.97083 0.05208-1.4694 0.18227-1.1807-1.4321-2.9387-2.2654-4.8279-2.2654-0.89211 0-1.7842 0.18227-2.5976 0.54681-1.2332-1.1457-2.8338-1.7967-4.5393-1.7967-0.28862 0-0.55101 0.02604-0.83964 0.05208v-5.7285c0-3.6975-2.965-6.8221-6.7171-6.8221zm2.5189 36.662v-9.9988zm6.7171 0v-9.9988zm6.7171 0v-9.9988z" fill="none" stroke="#000" stroke-opacity=".99614" stroke-width="3.284"/>
</clipPath>
</defs>
<g>
<path d="m17.573 24.971h64.854c4.4266 0 7.9903 4.2146 7.9903 9.4498v27.399c0 5.2352-3.5637 9.4498-7.9903 9.4498h-64.854c-4.4266 0-7.9903-4.2146-7.9903-9.4498v-27.399c0-5.2352 3.5637-9.4498 7.9903-9.4498z" clip-path="url(#a)" fill="none" stroke="#000" stroke-linejoin="round" stroke-width="4" style="paint-order:fill markers stroke"/>
<text x="20" y="69.295219" font-family="sans-serif" font-size="40px" font-weight="400" letter-spacing="0" word-spacing="0" style="line-height:125%"><tspan x="20" y="69.295219">**</tspan></text>
</g>
<g style="mix-blend-mode:normal">
<path d="m60.48 37.248c3.7521 0 6.7171 3.1246 6.7171 6.8221v5.7285c0.28862-0.02604 0.55101-0.05208 0.83963-0.05208 1.7055 0 3.3061 0.65096 4.5393 1.7967 0.81339-0.36454 1.7055-0.54681 2.5976-0.54681 1.8892 0 3.6472 0.83323 4.8279 2.2654 0.49853-0.13019 0.97083-0.18227 1.4694-0.18227 3.3061 0 5.8774 2.734 5.8774 5.9628v5.6504c0 1.9529-0.23614 3.9318-0.73468 5.8587l-2.414 9.5822c-0.55101 2.2133-2.5714 3.7756-4.8804 3.7756h-18.839c-2.0991 0-4.1195-1.0155-5.3789-2.6559l-10.076-13.332c-0.86587-1.1457-1.3382-2.5778-1.3382-4.0099 0-3.6454 2.9912-6.6659 6.6646-6.6659 1.207 0 2.3877 0.31246 3.411 0.91135v-14.243c0-3.6714 3.0174-6.6659 6.7171-6.6659zm2.5189 36.662v-9.9988zm6.7171 0v-9.9988zm6.7171 0v-9.9988z" fill="none" stroke="#000" stroke-opacity=".99614" stroke-width="4"/>
</g>
</svg>
