<svg xmlns:dc="http://purl.org/dc/elements/1.1/" xmlns:cc="http://creativecommons.org/ns#" xmlns:rdf="http://www.w3.org/1999/02/22-rdf-syntax-ns#" xmlns:svg="http://www.w3.org/2000/svg" xmlns="http://www.w3.org/2000/svg" xmlns:sodipodi="http://sodipodi.sourceforge.net/DTD/sodipodi-0.dtd" xmlns:inkscape="http://www.inkscape.org/namespaces/inkscape" inkscape:version="1.0 (4035a4f, 2020-05-01)" sodipodi:docname="keepassxc-temp.svg" viewBox="0 0 100 100" id="svg2"><defs id="defs854"/><sodipodi:namedview inkscape:current-layer="svg2" inkscape:window-maximized="0" inkscape:window-y="22" inkscape:window-x="0" inkscape:cy="78.296519" inkscape:cx="-110.28072" inkscape:zoom="1.435" showgrid="false" id="namedview852" inkscape:window-height="1057" inkscape:window-width="1765" inkscape:pageshadow="2" inkscape:pageopacity="0" guidetolerance="10" gridtolerance="10" objecttolerance="10" borderopacity="1" bordercolor="#666666" pagecolor="#ffffff" inkscape:document-rotation="0"/><circle id="circle833" r="45.9" cy="50" cx="50" style="fill-rule:evenodd;clip-rule:evenodd;fill:#fff;stroke:#515151;stroke-width:3.1319;stroke-linecap:round;stroke-linejoin:round"/><linearGradient gradientTransform="matrix(1 0 0 -1 0 -1384.1102)" y2="-1392.7863" x2="49.6968" y1="-1470.9402" x1="50.2693" gradientUnits="userSpaceOnUse" id="SVGID_1_"><stop id="stop835" style="stop-color:gray" offset="0"/><stop id="stop837" style="stop-color:#4b4b4d" offset="1"/></linearGradient><path id="path840" d="M56.7 13.7c.1.5.2 1 .2 1.5.0 3.8-3.1 6.9-6.9 6.9s-6.9-3.1-6.9-6.9c0-.5.1-1 .2-1.5 2.2-.4 4.5-.6 6.7-.6C52.3 13 54.5 13.3 56.7 13.7zM30.6 22.1c0 7.7 4.5 14.4 11.1 17.5v35.1L50 83l8.3-8.3-.5-7.3 3.9-3.9-3.9-3.9 5.9-5.9-5.9-5.9.5-8.2c6.5-3.1 11.1-9.8 11.1-17.5.0-1.3-.1-2.5-.4-3.8C80.1 25 86.9 37 87 50c0 20.4-16.5 37-37 37-20.4.0-37-16.5-37-37 0-13 6.8-25 18-31.7C30.8 19.6 30.6 20.8 30.6 22.1zM44.5 44.2h2.8v27.7h-2.8V44.2v0 0z" style="fill:url(#SVGID_1_)"/><linearGradient gradientTransform="matrix(1 0 0 1 0 -1484)" y2="1574.0038" x2="73.8" y1="1532.1382" x1="73.8" gradientUnits="userSpaceOnUse" id="SVGID_2_"><stop id="stop842" style="stop-color:#d69029" offset="0"/><stop id="stop844" style="stop-color:#af7125" offset="1"/></linearGradient><rect style="fill:red;stroke-width:.991528;fill-opacity:.50439882" id="rect845" width="40" height="40" x="60" y="60"/><rect y="65" x="65" height="35" width="35" id="rect847" style="fill:red;fill-opacity:1;stroke-width:.867586"/><g style="font-style:normal;font-variant:normal;font-weight:700;font-stretch:normal;font-size:43.6198px;line-height:1.25;font-family:sans-serif;-inkscape-font-specification:'sans-serif Bold';fill:#f9f9f9;fill-opacity:1;stroke:none;stroke-width:1.09049" id="text946" transform="scale(0.99105545,1.0090253)" aria-label="X"><path id="path849" style="stroke-width:1.09049" d="M97.875515 96.132332H88.418879L81.581986 85.695954 74.617301 96.132332H65.58664L76.832369 80.158284 65.820926 64.418522h9.435337l6.602607 9.882611 6.794295-9.882611h9.05196l-11.07534 15.420281z"/></g></svg>