<?xml version="1.0" encoding="UTF-8" standalone="no"?>
<svg
   xmlns:dc="http://purl.org/dc/elements/1.1/"
   xmlns:cc="http://creativecommons.org/ns#"
   xmlns:rdf="http://www.w3.org/1999/02/22-rdf-syntax-ns#"
   xmlns:svg="http://www.w3.org/2000/svg"
   xmlns="http://www.w3.org/2000/svg"
   xmlns:sodipodi="http://sodipodi.sourceforge.net/DTD/sodipodi-0.dtd"
   xmlns:inkscape="http://www.inkscape.org/namespaces/inkscape"
   width="1580.5179"
   height="1580.6893"
   viewBox="0 0 1580.5179 1580.6893"
   version="1.1"
   id="svg4"
   sodipodi:docname="key.svg"
   inkscape:version="0.92.2 5c3e80d, 2017-08-06">
  <metadata
     id="metadata10">
    <rdf:RDF>
      <cc:Work
         rdf:about="">
        <dc:format>image/svg+xml</dc:format>
        <dc:type
           rdf:resource="http://purl.org/dc/dcmitype/StillImage" />
        <dc:title />
        <cc:license
           rdf:resource="http://scripts.sil.org/OFL" />
      </cc:Work>
      <cc:License
         rdf:about="http://scripts.sil.org/OFL">
        <cc:permits
           rdf:resource="http://scripts.sil.org/pub/OFL/Reproduction" />
        <cc:permits
           rdf:resource="http://scripts.sil.org/pub/OFL/Distribution" />
        <cc:permits
           rdf:resource="http://scripts.sil.org/pub/OFL/Embedding" />
        <cc:permits
           rdf:resource="http://scripts.sil.org/pub/OFL/DerivativeWorks" />
        <cc:requires
           rdf:resource="http://scripts.sil.org/pub/OFL/Notice" />
        <cc:requires
           rdf:resource="http://scripts.sil.org/pub/OFL/Attribution" />
        <cc:requires
           rdf:resource="http://scripts.sil.org/pub/OFL/ShareAlike" />
        <cc:requires
           rdf:resource="http://scripts.sil.org/pub/OFL/DerivativeRenaming" />
        <cc:requires
           rdf:resource="http://scripts.sil.org/pub/OFL/BundlingWhenSelling" />
      </cc:License>
    </rdf:RDF>
  </metadata>
  <defs
     id="defs8" />
  <sodipodi:namedview
     pagecolor="#ffffff"
     bordercolor="#666666"
     borderopacity="1"
     objecttolerance="10"
     gridtolerance="10"
     guidetolerance="10"
     inkscape:pageopacity="0"
     inkscape:pageshadow="2"
     inkscape:window-width="1912"
     inkscape:window-height="1123"
     id="namedview6"
     showgrid="false"
     fit-margin-top="0"
     fit-margin-left="0"
     fit-margin-right="0"
     fit-margin-bottom="0"
     inkscape:zoom="0.13169643"
     inkscape:cx="-3350.8437"
     inkscape:cy="657.46337"
     inkscape:window-x="0"
     inkscape:window-y="0"
     inkscape:window-maximized="0"
     inkscape:current-layer="svg4" />
  <path
     d="m 1031.9282,172.22131 c 95.8833,0.36701 191.9895,37.30487 265.5838,110.57282 146.8843,147.53692 148.0881,384.75593 2.5897,530.70544 -97.7018,97.38591 -236.5332,128.57231 -361.78173,94.27804 l -128.30946,128.30879 -167.06446,-95.90478 -31.28574,31.28434 92.8776,155.44494 -31.28575,31.2844 -155.44355,-92.8755 -31.28576,31.2843 92.87695,155.445 -31.28577,31.2836 -155.44491,-92.8755 -31.28439,31.2843 92.87557,155.445 -31.28374,31.2843 H 216.35415 c -24.46014,0 -44.15188,-19.6917 -44.15188,-44.1518 V 1144.0674 L 673.02244,643.24721 C 638.43635,517.86281 669.64414,378.6713 767.67162,281.07152 840.38147,208.05744 936.04477,171.85429 1031.9288,172.22131 Z m 96.9043,169.51074 c -28.3068,0 -56.613,10.79789 -78.2108,32.39573 -43.1944,43.19503 -43.1944,113.22678 0,156.42179 43.1949,43.19502 113.2274,43.19502 156.4217,0 43.1957,-43.19501 43.1957,-113.22676 0,-156.42179 -21.5972,-21.59784 -49.904,-32.39642 -78.2109,-32.39642 z"
     id="path2"
     inkscape:connector-curvature="0"
     style="fill:#6cac4d;fill-opacity:1;stroke:#467720;stroke-width:44.10611725;stroke-miterlimit:4;stroke-dasharray:none;stroke-opacity:1" />
</svg>
