<svg height="64" width="64" viewBox="0 0 64 64" xml:space="preserve" xmlns:xlink="http://www.w3.org/1999/xlink" xmlns="http://www.w3.org/2000/svg"><defs><linearGradient id="a"><stop offset="0" style="stop-color:#226e23;stop-opacity:1"/><stop offset="1" style="stop-color:#63ab3a;stop-opacity:1"/></linearGradient><linearGradient xlink:href="#a" id="b" x1="53.24" y1="12.75" x2="53.24" y2="86.36" gradientUnits="userSpaceOnUse"/></defs><g transform="translate(.42 .42) scale(.63158)" style="display:inline"><circle r="45.93" style="opacity:.871;fill:#fff;fill-opacity:1;fill-rule:evenodd;stroke:#000;stroke-width:3.13187;stroke-linecap:round;stroke-linejoin:round;stroke-miterlimit:4;stroke-dasharray:none;stroke-opacity:.784314" cx="50" cy="50"/><circle style="opacity:1;fill:none;fill-opacity:1;fill-rule:evenodd;stroke:none;stroke-width:1.5;stroke-linecap:round;stroke-linejoin:round;stroke-miterlimit:4;stroke-dasharray:none;stroke-opacity:1" cx="50" cy="50" r="42.32"/><path style="opacity:1;fill:#f9f9f9;fill-opacity:1;fill-rule:evenodd;stroke:none;stroke-width:2.5;stroke-linecap:round;stroke-linejoin:round;stroke-miterlimit:4;stroke-dasharray:none;stroke-opacity:1" d="M50 6.32A43.68 43.68 0 0 0 6.32 50 43.68 43.68 0 0 0 50 93.68 43.68 43.68 0 0 0 93.68 50 43.68 43.68 0 0 0 50 6.32Zm0 6.72c2.26 0 4.52.22 6.75.64a6.92 6.92 0 1 1-13.5 0c2.23-.42 4.49-.64 6.75-.64Zm-19 5.3a19.36 19.36 0 0 0 10.7 21.24v35.09l8.3 8.3 8.3-8.3-.48-7.35 3.92-3.92-3.92-3.9 5.87-5.88-5.87-5.87.48-8.17A19.35 19.35 0 0 0 69 18.34 36.97 36.97 0 0 1 86.95 50a36.97 36.97 0 0 1-73.92 0c.01-12.98 6.83-25 17.97-31.67Zm13.46 25.9h2.77V71.9h-2.76V44.23z"/><path style="opacity:.94;fill:url(#b);fill-opacity:1;fill-rule:nonzero;stroke:none;stroke-width:.8;stroke-linecap:round;stroke-linejoin:round;stroke-miterlimit:4;stroke-dasharray:none;stroke-opacity:1" d="M56.75 13.68a6.91 6.91 0 1 1-13.5 0 36.48 36.48 0 0 1 13.5 0zM30.63 22.1c0 7.72 4.53 14.37 11.07 17.48v35.09l8.3 8.3 8.3-8.3-.48-7.35 3.92-3.92-3.92-3.9 5.87-5.88-5.87-5.87.48-8.17A19.35 19.35 0 0 0 69 18.34 36.97 36.97 0 0 1 86.95 50a36.97 36.97 0 0 1-73.92 0c.01-12.98 6.83-25 17.97-31.67a19.4 19.4 0 0 0-.38 3.77zm13.83 22.13h2.77V71.9h-2.76V44.24z"/></g><g style="display:inline;stroke:#34220a;stroke-width:1;stroke-opacity:1" stroke="#0c0c0c" stroke-opacity=".8"><rect x="39.15" y="22.7" width="20" height="34.04" ry="3.73" display="inline" fill="#e54835" stroke="none" style="display:inline;stroke:#4b110a;stroke-width:2.0011;stroke-linecap:round;stroke-linejoin:round;stroke-dasharray:none;stroke-opacity:1;paint-order:stroke fill markers" transform="matrix(1 0 0 .9989 3.85 6.33)"/><path d="M54.81 49.44h-3.59l-.75-14.46h5.1zm-4.4 5.06c0-.83.23-1.45.67-1.88.44-.42 1.08-.63 1.92-.63.82 0 1.44.21 1.89.65.45.43.67 1.05.67 1.86 0 .78-.22 1.4-.67 1.85-.46.45-1.08.67-1.89.67-.82 0-1.46-.22-1.9-.65a2.5 2.5 0 0 1-.68-1.87z" display="inline" fill="#fff" stroke="#fff" style="display:inline;stroke:#fff;stroke-width:.868522;stroke-opacity:1"/></g></svg>
