<svg height="64" width="64" viewBox="0 0 64 64" xml:space="preserve" xmlns:xlink="http://www.w3.org/1999/xlink" xmlns="http://www.w3.org/2000/svg"><defs><linearGradient id="a"><stop offset="0" style="stop-color:#226e23;stop-opacity:1"/><stop offset="1" style="stop-color:#63ab3a;stop-opacity:1"/></linearGradient><linearGradient xlink:href="#a" id="b" x1="53.24" y1="12.75" x2="53.24" y2="86.36" gradientUnits="userSpaceOnUse"/></defs><g transform="translate(.42 .42) scale(.63158)" style="display:inline"><circle r="45.93" style="opacity:.871;fill:#fff;fill-opacity:1;fill-rule:evenodd;stroke:#000;stroke-width:3.13187;stroke-linecap:round;stroke-linejoin:round;stroke-miterlimit:4;stroke-dasharray:none;stroke-opacity:.784314" cx="50" cy="50"/><circle style="opacity:1;fill:none;fill-opacity:1;fill-rule:evenodd;stroke:none;stroke-width:1.5;stroke-linecap:round;stroke-linejoin:round;stroke-miterlimit:4;stroke-dasharray:none;stroke-opacity:1" cx="50" cy="50" r="42.32"/><path style="opacity:1;fill:#f9f9f9;fill-opacity:1;fill-rule:evenodd;stroke:none;stroke-width:2.5;stroke-linecap:round;stroke-linejoin:round;stroke-miterlimit:4;stroke-dasharray:none;stroke-opacity:1" d="M50 6.32A43.68 43.68 0 0 0 6.32 50 43.68 43.68 0 0 0 50 93.68 43.68 43.68 0 0 0 93.68 50 43.68 43.68 0 0 0 50 6.32Zm0 6.72c2.26 0 4.52.22 6.75.64a6.92 6.92 0 1 1-13.5 0c2.23-.42 4.49-.64 6.75-.64Zm-19 5.3a19.36 19.36 0 0 0 10.7 21.24v35.09l8.3 8.3 8.3-8.3-.48-7.35 3.92-3.92-3.92-3.9 5.87-5.88-5.87-5.87.48-8.17A19.35 19.35 0 0 0 69 18.34 36.97 36.97 0 0 1 86.95 50a36.97 36.97 0 0 1-73.92 0c.01-12.98 6.83-25 17.97-31.67Zm13.46 25.9h2.77V71.9h-2.76V44.23z"/><path style="opacity:.94;fill:url(#b);fill-opacity:1;fill-rule:nonzero;stroke:none;stroke-width:.8;stroke-linecap:round;stroke-linejoin:round;stroke-miterlimit:4;stroke-dasharray:none;stroke-opacity:1" d="M56.75 13.68a6.91 6.91 0 1 1-13.5 0 36.48 36.48 0 0 1 13.5 0zM30.63 22.1c0 7.72 4.53 14.37 11.07 17.48v35.09l8.3 8.3 8.3-8.3-.48-7.35 3.92-3.92-3.92-3.9 5.87-5.88-5.87-5.87.48-8.17A19.35 19.35 0 0 0 69 18.34 36.97 36.97 0 0 1 86.95 50a36.97 36.97 0 0 1-73.92 0c.01-12.98 6.83-25 17.97-31.67a19.4 19.4 0 0 0-.38 3.77zm13.83 22.13h2.77V71.9h-2.76V44.24z"/></g><g style="display:inline;stroke:#34220a;stroke-width:1;stroke-opacity:1" stroke="#0c0c0c" stroke-opacity=".8"><rect x="34.5" y="22.82" width="24" height="34" ry="3.73" display="inline" fill="#e54835" stroke="none" style="display:inline;stroke:#4b110a;stroke-width:2;stroke-dasharray:none;stroke-opacity:1;paint-order:stroke fill markers" transform="translate(4.5 6.18)"/><path d="M48.3 49.53v-1.07c0-.93.2-1.74.59-2.43a7.8 7.8 0 0 1 2.18-2.2 8.93 8.93 0 0 0 2-1.77c.33-.46.5-.97.5-1.53 0-.63-.23-1.1-.7-1.44a3.32 3.32 0 0 0-1.95-.5c-1.45 0-3.1.48-4.97 1.43l-1.58-3.18a13.83 13.83 0 0 1 6.87-1.82c2 0 3.58.48 4.75 1.44a4.7 4.7 0 0 1 1.78 3.84c0 1.07-.24 1.99-.73 2.76-.48.78-1.4 1.65-2.76 2.62a8.77 8.77 0 0 0-1.77 1.57 2.5 2.5 0 0 0-.37 1.41v.87zm-.47 4.98c0-.82.22-1.43.65-1.85.44-.42 1.07-.62 1.9-.62.81 0 1.43.2 1.87.64.44.42.66 1.03.66 1.83a2.5 2.5 0 0 1-.66 1.82c-.45.43-1.07.65-1.86.65-.82 0-1.45-.21-1.9-.64a2.45 2.45 0 0 1-.66-1.83Z" display="inline" fill="#fff" stroke="#fff" stroke-linecap="round" style="display:inline;stroke:#fff;stroke-width:.869436;stroke-opacity:1"/></g></svg>
