<svg height="64" width="64" viewBox="0 0 64 64" xml:space="preserve" xmlns:xlink="http://www.w3.org/1999/xlink" xmlns="http://www.w3.org/2000/svg"><defs><linearGradient id="a"><stop offset="0" style="stop-color:#226e23;stop-opacity:1"/><stop offset="1" style="stop-color:#63ab3a;stop-opacity:1"/></linearGradient><linearGradient xlink:href="#a" id="b" x1="32.5" y1="8.79" x2="32.65" y2="54.87" gradientUnits="userSpaceOnUse"/></defs><g style="display:inline"><circle r="29.01" style="opacity:.871;fill:#fff;fill-opacity:1;fill-rule:evenodd;stroke:#000;stroke-width:3.13187;stroke-linecap:round;stroke-linejoin:round;stroke-miterlimit:4;stroke-dasharray:none;stroke-opacity:.784314" cx="32" cy="32"/><circle style="opacity:1;fill:none;fill-opacity:1;fill-rule:evenodd;stroke:none;stroke-width:1.5;stroke-linecap:round;stroke-linejoin:round;stroke-miterlimit:4;stroke-dasharray:none;stroke-opacity:1" cx="32" cy="32" r="26.73"/><path style="opacity:1;fill:#f9f9f9;fill-opacity:1;fill-rule:evenodd;stroke:none;stroke-width:1.57895;stroke-linecap:round;stroke-linejoin:round;stroke-miterlimit:4;stroke-dasharray:none;stroke-opacity:1" d="M32 4.42a27.59 27.59 0 1 0 0 55.17 27.59 27.59 0 0 0 0-55.17Zm0 4.23c1.43 0 2.86.15 4.26.41a4.37 4.37 0 1 1-8.52 0c1.4-.27 2.83-.4 4.26-.4ZM20 12a12.23 12.23 0 0 0 6.75 13.42v22.16L32 52.82l5.24-5.24-.3-4.64 2.47-2.47L36.94 38l3.7-3.71-3.7-3.7.3-5.17A12.22 12.22 0 0 0 44 12a23.35 23.35 0 0 1 11.35 20 23.35 23.35 0 0 1-46.7 0A23.35 23.35 0 0 1 20 12Zm8.5 16.36h1.75v17.47h-1.74V28.36z"/><path style="opacity:.94;fill:url(#b);fill-opacity:1;fill-rule:nonzero;stroke:none;stroke-width:.505263;stroke-linecap:round;stroke-linejoin:round;stroke-miterlimit:4;stroke-dasharray:none;stroke-opacity:1" d="M36.26 9.06a4.37 4.37 0 1 1-8.52 0 23.35 23.35 0 0 1 8.52 0zm-16.5 5.32c0 4.87 2.87 9.07 7 11.04v22.16L32 52.82l5.24-5.24-.3-4.64 2.47-2.47L36.94 38l3.7-3.71-3.7-3.7.3-5.17A12.22 12.22 0 0 0 44 12a23.35 23.35 0 0 1 11.35 20 23.35 23.35 0 0 1-46.7 0A23.35 23.35 0 0 1 20 12a12.4 12.4 0 0 0-.23 2.38zm8.74 13.98h1.75v17.47h-1.74V28.36z"/></g><g stroke="#0c0c0c" stroke-opacity=".8" style="display:inline;stroke-width:1;stroke:#34220a;stroke-opacity:1"><g style="display:inline;stroke:#34220a;stroke-width:.845541;stroke-opacity:1"><path d="M17 33c-1.27-.04-3.5-11-4.39-11.9C11.74 20.25.96 18.24 1 17c.04-1.27 11-3.5 11.9-4.39C13.75 11.74 15.76.96 17 1c1.27.04 3.5 11 4.39 11.9.87.86 11.65 2.87 11.61 4.1-.04 1.27-11 3.5-11.9 4.39-.86.87-2.87 11.65-4.1 11.61z" display="inline" fill="#62c74d" stroke="none" style="display:inline;stroke:#102c0b;stroke-width:2.00001;stroke-dasharray:none;stroke-opacity:1;paint-order:stroke fill markers"/></g><g style="display:inline;stroke:#34220a;stroke-width:1;stroke-opacity:1"><rect x="34.5" y="22.82" width="24" height="34" ry="3.73" display="inline" fill="#e54835" stroke="none" style="display:inline;stroke:#4b110a;stroke-width:2;stroke-dasharray:none;stroke-opacity:1;paint-order:stroke fill markers" transform="translate(4.5 6.18)"/><path d="M48.3 49.53v-1.07c0-.93.2-1.74.59-2.43a7.8 7.8 0 0 1 2.18-2.2 8.93 8.93 0 0 0 2-1.77c.33-.46.5-.97.5-1.53 0-.63-.23-1.1-.7-1.44a3.32 3.32 0 0 0-1.95-.5c-1.45 0-3.1.48-4.97 1.43l-1.58-3.18a13.83 13.83 0 0 1 6.87-1.82c2 0 3.58.48 4.75 1.44a4.7 4.7 0 0 1 1.78 3.84c0 1.07-.24 1.99-.73 2.76-.48.78-1.4 1.65-2.76 2.62a8.77 8.77 0 0 0-1.77 1.57 2.5 2.5 0 0 0-.37 1.41v.87zm-.47 4.98c0-.82.22-1.43.65-1.85.44-.42 1.07-.62 1.9-.62.81 0 1.43.2 1.87.64.44.42.66 1.03.66 1.83a2.5 2.5 0 0 1-.66 1.82c-.45.43-1.07.65-1.86.65-.82 0-1.45-.21-1.9-.64a2.45 2.45 0 0 1-.66-1.83Z" display="inline" fill="#fff" stroke="#fff" stroke-linecap="round" style="display:inline;stroke:#fff;stroke-width:.869436;stroke-opacity:1"/></g></g></svg>
