<svg height="64" width="64" viewBox="0 0 64 64" xml:space="preserve" xmlns:xlink="http://www.w3.org/1999/xlink" xmlns="http://www.w3.org/2000/svg"><defs><linearGradient id="a"><stop offset="0" style="stop-color:#226e23;stop-opacity:1"/><stop offset="1" style="stop-color:#63ab3a;stop-opacity:1"/></linearGradient><linearGradient xlink:href="#a" id="b" x1="32.5" y1="8.79" x2="32.65" y2="54.87" gradientUnits="userSpaceOnUse"/></defs><g style="display:inline"><circle r="29.01" style="opacity:.871;fill:#fff;fill-opacity:1;fill-rule:evenodd;stroke:#000;stroke-width:3.13187;stroke-linecap:round;stroke-linejoin:round;stroke-miterlimit:4;stroke-dasharray:none;stroke-opacity:.784314" cx="32" cy="32"/><circle style="opacity:1;fill:none;fill-opacity:1;fill-rule:evenodd;stroke:none;stroke-width:1.5;stroke-linecap:round;stroke-linejoin:round;stroke-miterlimit:4;stroke-dasharray:none;stroke-opacity:1" cx="32" cy="32" r="26.73"/><path style="opacity:1;fill:#f9f9f9;fill-opacity:1;fill-rule:evenodd;stroke:none;stroke-width:1.57895;stroke-linecap:round;stroke-linejoin:round;stroke-miterlimit:4;stroke-dasharray:none;stroke-opacity:1" d="M32 4.42a27.59 27.59 0 1 0 0 55.17 27.59 27.59 0 0 0 0-55.17Zm0 4.23c1.43 0 2.86.15 4.26.41a4.37 4.37 0 1 1-8.52 0c1.4-.27 2.83-.4 4.26-.4ZM20 12a12.23 12.23 0 0 0 6.75 13.42v22.16L32 52.82l5.24-5.24-.3-4.64 2.47-2.47L36.94 38l3.7-3.71-3.7-3.7.3-5.17A12.22 12.22 0 0 0 44 12a23.35 23.35 0 0 1 11.35 20 23.35 23.35 0 0 1-46.7 0A23.35 23.35 0 0 1 20 12Zm8.5 16.36h1.75v17.47h-1.74V28.36z"/><path style="opacity:.94;fill:url(#b);fill-opacity:1;fill-rule:nonzero;stroke:none;stroke-width:.505263;stroke-linecap:round;stroke-linejoin:round;stroke-miterlimit:4;stroke-dasharray:none;stroke-opacity:1" d="M36.26 9.06a4.37 4.37 0 1 1-8.52 0 23.35 23.35 0 0 1 8.52 0zm-16.5 5.32c0 4.87 2.87 9.07 7 11.04v22.16L32 52.82l5.24-5.24-.3-4.64 2.47-2.47L36.94 38l3.7-3.71-3.7-3.7.3-5.17A12.22 12.22 0 0 0 44 12a23.35 23.35 0 0 1 11.35 20 23.35 23.35 0 0 1-46.7 0A23.35 23.35 0 0 1 20 12a12.4 12.4 0 0 0-.23 2.38zm8.74 13.98h1.75v17.47h-1.74V28.36z"/></g><g style="display:inline;stroke-width:1;stroke:#34220a;stroke-opacity:1"><g style="display:inline;stroke:#34220a;stroke-width:1;stroke-opacity:1" stroke="#0c0c0c" stroke-opacity=".8"><rect x="39.15" y="22.7" width="20" height="34.04" ry="3.73" display="inline" fill="#e54835" stroke="none" style="display:inline;stroke:#4b110a;stroke-width:2.0011;stroke-linecap:round;stroke-linejoin:round;stroke-dasharray:none;stroke-opacity:1;paint-order:stroke fill markers" transform="matrix(1 0 0 .9989 3.85 6.33)"/><path d="M54.81 49.44h-3.59l-.75-14.46h5.1zm-4.4 5.06c0-.83.23-1.45.67-1.88.44-.42 1.08-.63 1.92-.63.82 0 1.44.21 1.89.65.45.43.67 1.05.67 1.86 0 .78-.22 1.4-.67 1.85-.46.45-1.08.67-1.89.67-.82 0-1.46-.22-1.9-.65a2.5 2.5 0 0 1-.68-1.87z" display="inline" fill="#fff" stroke="#fff" style="display:inline;stroke:#fff;stroke-width:.868522;stroke-opacity:1"/></g></g></svg>
