<svg xml:space="preserve" version="1.1" viewBox="0 0 100 100" id="svg2" xmlns:xlink="http://www.w3.org/1999/xlink" xmlns="http://www.w3.org/2000/svg"><defs id="defs23"><linearGradient id="SVGID_2_-3" gradientUnits="userSpaceOnUse" x1="73.8" y1="1532.14" x2="73.8" y2="1574" gradientTransform="translate(3.8 -1480.3)"><stop offset="0" style="stop-color:#eaa74b;stop-opacity:1" id="stop373"/><stop offset="1" style="stop-color:#ac6f25;stop-opacity:1" id="stop375"/></linearGradient><linearGradient xlink:href="#linearGradient4316" id="linearGradient5199" x1="53.24" y1="12.75" x2="53.24" y2="86.36" gradientUnits="userSpaceOnUse" gradientTransform="translate(-50.41 11.36)"/><linearGradient id="linearGradient4316"><stop id="stop4318" offset="0" style="stop-color:#226e23;stop-opacity:1"/><stop id="stop4320" offset="1" style="stop-color:#63ab3a;stop-opacity:1"/></linearGradient></defs><linearGradient id="SVGID_1_" gradientUnits="userSpaceOnUse" x1="50.27" y1="-1470.94" x2="49.7" y2="-1392.79" gradientTransform="matrix(1 0 0 -1 -50.2 -1373.16)"><stop offset="0" style="stop-color:gray" id="stop4"/><stop offset="1" style="stop-color:#4b4b4d" id="stop6"/></linearGradient><linearGradient id="SVGID_2_" gradientUnits="userSpaceOnUse" x1="73.8" y1="1532.14" x2="73.8" y2="1574" gradientTransform="translate(-2.73 -1488.34)"><stop offset="0" style="stop-color:#d69029" id="stop11"/><stop offset="1" style="stop-color:#af7125" id="stop13"/></linearGradient><g id="layer7" style="display:inline"><g id="layer18" style="display:inline"><circle r="45.93" style="display:inline;opacity:.871;fill:#fff;fill-opacity:1;fill-rule:evenodd;stroke:#000;stroke-width:3.13187;stroke-linecap:round;stroke-linejoin:round;stroke-miterlimit:4;stroke-dasharray:none;stroke-opacity:.784314" id="circle4057" cx="50" cy="50"/><circle style="display:inline;fill:none;fill-opacity:1;fill-rule:evenodd;stroke:none;stroke-width:1.5;stroke-linecap:round;stroke-linejoin:round;stroke-miterlimit:4;stroke-dasharray:none;stroke-opacity:1" id="circle4059" cx="50" cy="50" r="42.32"/><path style="display:inline;fill:#f9f9f9;fill-opacity:1;fill-rule:evenodd;stroke:none;stroke-width:2.5;stroke-linecap:round;stroke-linejoin:round;stroke-miterlimit:4;stroke-dasharray:none;stroke-opacity:1" d="M50 6.32a43.68 43.68 0 1 0 0 87.36 43.68 43.68 0 0 0 0-87.36Zm0 6.72c2.26 0 4.52.22 6.75.64a6.92 6.92 0 1 1-13.5 0c2.23-.42 4.49-.64 6.75-.64zm-19 5.3a19.36 19.36 0 0 0 10.7 21.24v35.09l8.3 8.3 8.3-8.3-.48-7.35 3.92-3.92-3.92-3.9 5.87-5.88-5.87-5.87.48-8.17A19.35 19.35 0 0 0 69 18.34 36.97 36.97 0 0 1 86.95 50a36.97 36.97 0 0 1-73.92 0c.01-12.98 6.83-25 17.97-31.67Zm13.46 25.9h2.77V71.9h-2.76V44.23z" id="path4061"/><path style="display:inline;opacity:.94;fill:url(#linearGradient5199);fill-opacity:1;fill-rule:nonzero;stroke:none;stroke-width:.8;stroke-linecap:round;stroke-linejoin:round;stroke-miterlimit:4;stroke-dasharray:none;stroke-opacity:1" d="M56.75 13.68a6.92 6.92 0 1 1-13.5 0 36.48 36.48 0 0 1 13.5 0zM30.63 22.1c0 7.72 4.53 14.37 11.07 17.48v35.09l8.3 8.3 8.3-8.3-.48-7.35 3.92-3.92-3.92-3.9 5.87-5.88-5.87-5.87.48-8.17A19.35 19.35 0 0 0 69 18.34 36.97 36.97 0 0 1 86.95 50a36.97 36.97 0 0 1-73.92 0c.01-12.98 6.83-25 17.97-31.67a19.4 19.4 0 0 0-.38 3.77zm13.83 22.13h2.77V71.9h-2.76V44.24z" id="path4063"/><rect style="display:inline;fill:#e54835;fill-opacity:1;stroke:#000;stroke-width:1.5;stroke-dasharray:none;stroke-opacity:1" id="rect4078" width="30.22" height="47.99" x="62.78" y="46.08" ry="5.26" transform="translate(5.5 4.43)"/><path d="M86.3 79.96h-5.72l-1.2-22.9h8.11zm-7.01 8.01c0-1.31.35-2.3 1.05-2.97.7-.68 1.73-1.01 3.07-1.01 1.3 0 2.3.34 3 1.03.72.69 1.08 1.67 1.08 2.95 0 1.24-.36 2.21-1.08 2.93a4.1 4.1 0 0 1-3 1.06 4.23 4.23 0 0 1-3.04-1.04 3.94 3.94 0 0 1-1.08-2.95z" id="path4080" style="font-weight:700;font-size:48px;font-family:'Open Sans';-inkscape-font-specification:'Open Sans, Bold';display:inline;fill:#fff;stroke:#fff"/></g></g></svg>
