<svg xml:space="preserve" version="1.1" viewBox="0 0 100 100" id="svg2" xmlns:xlink="http://www.w3.org/1999/xlink" xmlns="http://www.w3.org/2000/svg"><defs id="defs23"><linearGradient id="SVGID_2_-3" gradientUnits="userSpaceOnUse" x1="73.8" y1="1532.14" x2="73.8" y2="1574" gradientTransform="translate(3.8 -1480.3)"><stop offset="0" style="stop-color:#eaa74b;stop-opacity:1" id="stop373"/><stop offset="1" style="stop-color:#ac6f25;stop-opacity:1" id="stop375"/></linearGradient><linearGradient xlink:href="#linearGradient4316" id="linearGradient5199" x1="53.24" y1="12.75" x2="53.24" y2="86.36" gradientUnits="userSpaceOnUse" gradientTransform="translate(-50.41 11.36)"/><linearGradient id="linearGradient4316"><stop id="stop4318" offset="0" style="stop-color:#226e23;stop-opacity:1"/><stop id="stop4320" offset="1" style="stop-color:#63ab3a;stop-opacity:1"/></linearGradient></defs><linearGradient id="SVGID_1_" gradientUnits="userSpaceOnUse" x1="50.27" y1="-1470.94" x2="49.7" y2="-1392.79" gradientTransform="matrix(1 0 0 -1 -50.2 -1373.16)"><stop offset="0" style="stop-color:gray" id="stop4"/><stop offset="1" style="stop-color:#4b4b4d" id="stop6"/></linearGradient><linearGradient id="SVGID_2_" gradientUnits="userSpaceOnUse" x1="73.8" y1="1532.14" x2="73.8" y2="1574" gradientTransform="translate(-2.73 -1488.34)"><stop offset="0" style="stop-color:#d69029" id="stop11"/><stop offset="1" style="stop-color:#af7125" id="stop13"/></linearGradient><g id="layer7" style="display:inline"><g id="layer23" style="display:inline"><circle style="clip-rule:evenodd;display:inline;fill:#fff;fill-rule:evenodd;stroke:#515151;stroke-width:3.1319;stroke-linecap:round;stroke-linejoin:round" cx="50" cy="50" r="45.9" id="circle3991"/><path style="display:inline;fill:url(#SVGID_1_)" d="M56.7 13.7c.1.5.2 1 .2 1.5 0 3.8-3.1 6.9-6.9 6.9-3.8 0-6.9-3.1-6.9-6.9 0-.5.1-1 .2-1.5 2.2-.4 4.5-.6 6.7-.6 2.3-.1 4.5.2 6.7.6zm-26.1 8.4c0 7.7 4.5 14.4 11.1 17.5v35.1L50 83l8.3-8.3-.5-7.3 3.9-3.9-3.9-3.9 5.9-5.9-5.9-5.9.5-8.2c6.5-3.1 11.1-9.8 11.1-17.5 0-1.3-.1-2.5-.4-3.8A37.32 37.32 0 0 1 87 50c0 20.4-16.5 37-37 37a36.98 36.98 0 0 1-19-68.7c-.2 1.3-.4 2.5-.4 3.8zm13.9 22.1h2.8v27.7h-2.8z" id="path3993"/><rect style="display:inline;fill:#e54835;fill-opacity:1;stroke:#040404;stroke-width:1.35799;stroke-linecap:round;stroke-linejoin:round;stroke-dasharray:none;stroke-opacity:1" id="rect1477" width="37.06" height="37.43" x="58.94" y="60.38" ry="4.1" transform="translate(-7.54 -9.53) scale(1.10457)"/><path id="path1479" style="display:inline;fill:none;fill-opacity:1;stroke:#fff;stroke-width:6.07013;stroke-linecap:round;stroke-dasharray:none;stroke-opacity:1" d="m67.65 67.43 20.76 20.8m0-20.8-20.76 20.8"/><path style="display:inline;fill:#62c74d;fill-opacity:1;stroke:#000;stroke-width:1.5;stroke-linecap:round;stroke-linejoin:round;stroke-dasharray:none;stroke-opacity:1;paint-order:normal" id="path4111" d="M27.53 52.29c-1.96-.06-5.4-17.02-6.8-18.4-1.34-1.35-18.03-4.46-17.97-6.36.07-1.97 17.02-5.4 18.4-6.8 1.36-1.34 4.46-18.03 6.37-17.97 1.96.07 5.4 17.02 6.79 18.4 1.35 1.36 18.03 4.46 17.97 6.37-.06 1.96-17.02 5.4-18.4 6.79-1.35 1.35-4.46 18.03-6.36 17.97z"/></g></g></svg>
