<svg height="64" width="64" viewBox="0 0 64 64" xml:space="preserve" xmlns:xlink="http://www.w3.org/1999/xlink" xmlns="http://www.w3.org/2000/svg"><defs><linearGradient id="a"><stop offset="0" style="stop-color:#464646;stop-opacity:1"/><stop offset="1" style="stop-color:#adadad;stop-opacity:1"/></linearGradient><linearGradient xlink:href="#a" id="b" gradientUnits="userSpaceOnUse" x1="53.24" y1="12.75" x2="53.24" y2="86.36"/></defs><g style="display:inline" transform="translate(.42 .42) scale(.63158)"><circle r="45.93" style="opacity:.871;fill:#fff;fill-opacity:1;fill-rule:evenodd;stroke:#000;stroke-width:3.13187;stroke-linecap:round;stroke-linejoin:round;stroke-miterlimit:4;stroke-dasharray:none;stroke-opacity:.784314" cx="50" cy="50"/><circle style="opacity:1;fill:none;fill-opacity:1;fill-rule:evenodd;stroke:none;stroke-width:1.5;stroke-linecap:round;stroke-linejoin:round;stroke-miterlimit:4;stroke-dasharray:none;stroke-opacity:1" cx="50" cy="50" r="42.32"/><path style="opacity:1;fill:#f9f9f9;fill-opacity:1;fill-rule:evenodd;stroke:none;stroke-width:2.5;stroke-linecap:round;stroke-linejoin:round;stroke-miterlimit:4;stroke-dasharray:none;stroke-opacity:1" d="M50 6.32A43.68 43.68 0 0 0 6.32 50 43.68 43.68 0 0 0 50 93.68 43.68 43.68 0 0 0 93.68 50 43.68 43.68 0 0 0 50 6.32Zm0 6.72c2.26 0 4.52.22 6.75.64a6.92 6.92 0 1 1-13.5 0c2.23-.42 4.49-.64 6.75-.64Zm-19 5.3a19.36 19.36 0 0 0 10.7 21.24v35.09l8.3 8.3 8.3-8.3-.48-7.35 3.92-3.92-3.92-3.9 5.87-5.88-5.87-5.87.48-8.17A19.35 19.35 0 0 0 69 18.34 36.97 36.97 0 0 1 86.95 50a36.97 36.97 0 0 1-73.92 0c.01-12.98 6.83-25 17.97-31.67Zm13.46 25.9h2.77V71.9h-2.76V44.23z"/><path style="opacity:.94;fill:url(#b);fill-opacity:1;fill-rule:nonzero;stroke:none;stroke-width:.8;stroke-linecap:round;stroke-linejoin:round;stroke-miterlimit:4;stroke-dasharray:none;stroke-opacity:1" d="M56.75 13.68a6.91 6.91 0 1 1-13.5 0 36.48 36.48 0 0 1 13.5 0zM30.63 22.1c0 7.72 4.53 14.37 11.07 17.48v35.09l8.3 8.3 8.3-8.3-.48-7.35 3.92-3.92-3.92-3.9 5.87-5.88-5.87-5.87.48-8.17A19.35 19.35 0 0 0 69 18.34 36.97 36.97 0 0 1 86.95 50a36.97 36.97 0 0 1-73.92 0c.01-12.98 6.83-25 17.97-31.67a19.4 19.4 0 0 0-.38 3.77zm13.83 22.13h2.77V71.9h-2.76V44.24z"/></g></svg>
