<svg height="64" width="64" viewBox="0 0 64 64" xml:space="preserve" xmlns:xlink="http://www.w3.org/1999/xlink" xmlns="http://www.w3.org/2000/svg"><defs><linearGradient id="a"><stop style="stop-color:#eaa74b;stop-opacity:1" offset="0"/><stop style="stop-color:#a3703c;stop-opacity:1" offset="1"/></linearGradient><linearGradient id="b"><stop offset="0" style="stop-color:#464646;stop-opacity:1"/><stop offset="1" style="stop-color:#adadad;stop-opacity:1"/></linearGradient><linearGradient xlink:href="#a" id="d" x1="39.43" y1="42.25" x2="57.97" y2="56.88" gradientUnits="userSpaceOnUse"/><linearGradient xlink:href="#b" id="c" gradientUnits="userSpaceOnUse" x1="53.24" y1="12.75" x2="53.24" y2="86.36"/></defs><g style="display:inline" transform="translate(.42 .42) scale(.63158)"><circle r="45.93" style="opacity:.871;fill:#fff;fill-opacity:1;fill-rule:evenodd;stroke:#000;stroke-width:3.13187;stroke-linecap:round;stroke-linejoin:round;stroke-miterlimit:4;stroke-dasharray:none;stroke-opacity:.784314" cx="50" cy="50"/><circle style="opacity:1;fill:none;fill-opacity:1;fill-rule:evenodd;stroke:none;stroke-width:1.5;stroke-linecap:round;stroke-linejoin:round;stroke-miterlimit:4;stroke-dasharray:none;stroke-opacity:1" cx="50" cy="50" r="42.32"/><path style="opacity:1;fill:#f9f9f9;fill-opacity:1;fill-rule:evenodd;stroke:none;stroke-width:2.5;stroke-linecap:round;stroke-linejoin:round;stroke-miterlimit:4;stroke-dasharray:none;stroke-opacity:1" d="M50 6.32A43.68 43.68 0 0 0 6.32 50 43.68 43.68 0 0 0 50 93.68 43.68 43.68 0 0 0 93.68 50 43.68 43.68 0 0 0 50 6.32Zm0 6.72c2.26 0 4.52.22 6.75.64a6.92 6.92 0 1 1-13.5 0c2.23-.42 4.49-.64 6.75-.64Zm-19 5.3a19.36 19.36 0 0 0 10.7 21.24v35.09l8.3 8.3 8.3-8.3-.48-7.35 3.92-3.92-3.92-3.9 5.87-5.88-5.87-5.87.48-8.17A19.35 19.35 0 0 0 69 18.34 36.97 36.97 0 0 1 86.95 50a36.97 36.97 0 0 1-73.92 0c.01-12.98 6.83-25 17.97-31.67Zm13.46 25.9h2.77V71.9h-2.76V44.23z"/><path style="opacity:.94;fill:url(#c);fill-opacity:1;fill-rule:nonzero;stroke:none;stroke-width:.8;stroke-linecap:round;stroke-linejoin:round;stroke-miterlimit:4;stroke-dasharray:none;stroke-opacity:1" d="M56.75 13.68a6.91 6.91 0 1 1-13.5 0 36.48 36.48 0 0 1 13.5 0zM30.63 22.1c0 7.72 4.53 14.37 11.07 17.48v35.09l8.3 8.3 8.3-8.3-.48-7.35 3.92-3.92-3.92-3.9 5.87-5.88-5.87-5.87.48-8.17A19.35 19.35 0 0 0 69 18.34 36.97 36.97 0 0 1 86.95 50a36.97 36.97 0 0 1-73.92 0c.01-12.98 6.83-25 17.97-31.67a19.4 19.4 0 0 0-.38 3.77zm13.83 22.13h2.77V71.9h-2.76V44.24z"/></g><g stroke="#0c0c0c" stroke-opacity=".8" style="display:inline;stroke:#34220a;stroke-width:1;stroke-opacity:1"><g style="display:inline;stroke:#34220a;stroke-width:.845541;stroke-opacity:1"><path d="M17 33c-1.27-.04-3.5-11-4.39-11.9C11.74 20.25.96 18.24 1 17c.04-1.27 11-3.5 11.9-4.39C13.75 11.74 15.76.96 17 1c1.27.04 3.5 11 4.39 11.9.87.86 11.65 2.87 11.61 4.1-.04 1.27-11 3.5-11.9 4.39-.86.87-2.87 11.65-4.1 11.61z" display="inline" fill="#62c74d" stroke="none" style="display:inline;stroke:#102c0b;stroke-width:2.00001;stroke-dasharray:none;stroke-opacity:1;paint-order:stroke fill markers"/></g><g style="display:inline;stroke:#34220a;stroke-width:1;stroke-opacity:1"><path d="M56.18 36.38v-2.74c0-7.24-7.55-12.7-15.22-8.96a9.3 9.3 0 0 0-5.14 8.4v3.3A4.52 4.52 0 0 0 32 40.79v14.76c0 1.9 1.54 3.44 3.44 3.44h21.12c1.9 0 3.44-1.54 3.44-3.44V40.8c0-2.2-1.68-4.08-3.82-4.41zm-6.23 0h-7.83v-4a3 3 0 0 1 1.4-2.54c3.23-2 6.43.3 6.43 3.2v3.34z" display="inline" fill="#eaa74b" stroke="none" style="display:inline;fill:url(#d);fill-opacity:1;stroke:#34220a;stroke-width:1.99999;stroke-linecap:round;stroke-linejoin:round;stroke-dasharray:none;stroke-opacity:1;paint-order:stroke fill markers"/></g></g></svg>
