<svg height="64" width="64" viewBox="0 0 64 64" xml:space="preserve" xmlns:xlink="http://www.w3.org/1999/xlink" xmlns="http://www.w3.org/2000/svg"><defs><linearGradient id="a"><stop offset="0" style="stop-color:#606060;stop-opacity:1"/><stop offset="1" style="stop-color:#999;stop-opacity:1"/></linearGradient><linearGradient xlink:href="#a" id="b" x1="53.24" y1="12.75" x2="53.24" y2="86.36" gradientUnits="userSpaceOnUse"/></defs><g style="display:inline"><circle r="29.01" style="opacity:.871;fill:#fff;fill-opacity:1;fill-rule:evenodd;stroke:#000;stroke-width:3.13187;stroke-linecap:round;stroke-linejoin:round;stroke-miterlimit:4;stroke-dasharray:none;stroke-opacity:.784314" cx="32" cy="32"/><circle style="opacity:1;fill:none;fill-opacity:1;fill-rule:evenodd;stroke:none;stroke-width:1.5;stroke-linecap:round;stroke-linejoin:round;stroke-miterlimit:4;stroke-dasharray:none;stroke-opacity:1" cx="32" cy="32" r="26.73"/><path style="opacity:1;fill:#f9f9f9;fill-opacity:1;fill-rule:evenodd;stroke:none;stroke-width:1.57895;stroke-linecap:round;stroke-linejoin:round;stroke-miterlimit:4;stroke-dasharray:none;stroke-opacity:1" d="M32 4.42a27.59 27.59 0 1 0 0 55.17 27.59 27.59 0 0 0 0-55.17Zm0 4.23c1.43 0 2.86.15 4.26.41a4.37 4.37 0 1 1-8.52 0c1.4-.27 2.83-.4 4.26-.4ZM20 12a12.23 12.23 0 0 0 6.75 13.42v22.16L32 52.82l5.24-5.24-.3-4.64 2.47-2.47L36.94 38l3.7-3.71-3.7-3.7.3-5.17A12.22 12.22 0 0 0 44 12a23.35 23.35 0 0 1 11.35 20 23.35 23.35 0 0 1-46.7 0A23.35 23.35 0 0 1 20 12Zm8.5 16.36h1.75v17.47h-1.74V28.36z"/><path style="opacity:.94;fill:url(#b);fill-opacity:1;fill-rule:nonzero;stroke:none;stroke-width:.505263;stroke-linecap:round;stroke-linejoin:round;stroke-miterlimit:4;stroke-dasharray:none;stroke-opacity:1" d="M36.26 9.06a4.37 4.37 0 1 1-8.52 0 23.35 23.35 0 0 1 8.52 0zm-16.5 5.32c0 4.87 2.87 9.07 7 11.04v22.16L32 52.82l5.24-5.24-.3-4.64 2.47-2.47L36.94 38l3.7-3.71-3.7-3.7.3-5.17A12.22 12.22 0 0 0 44 12a23.35 23.35 0 0 1 11.35 20 23.35 23.35 0 0 1-46.7 0A23.35 23.35 0 0 1 20 12a12.4 12.4 0 0 0-.23 2.38zm8.74 13.98h1.75v17.47h-1.74V28.36z"/></g><g stroke="#0c0c0c" stroke-opacity=".8" style="display:inline;stroke-width:1;stroke:#34220a;stroke-opacity:1"><g style="display:inline;stroke:#34220a;stroke-width:.845541;stroke-opacity:1"><path d="M17 33c-1.27-.04-3.5-11-4.39-11.9C11.74 20.25.96 18.24 1 17c.04-1.27 11-3.5 11.9-4.39C13.75 11.74 15.76.96 17 1c1.27.04 3.5 11 4.39 11.9.87.86 11.65 2.87 11.61 4.1-.04 1.27-11 3.5-11.9 4.39-.86.87-2.87 11.65-4.1 11.61z" display="inline" fill="#62c74d" stroke="none" style="display:inline;stroke:#102c0b;stroke-width:2.00001;stroke-dasharray:none;stroke-opacity:1;paint-order:stroke fill markers"/></g><g style="display:inline;stroke:#34220a;stroke-width:1;stroke-opacity:1"><rect x="35.68" y="35.68" width="28" height="28" ry="3.07" display="inline" fill="#e54835" stroke="none" style="display:inline;stroke:#4b110a;stroke-width:2;stroke-linecap:round;stroke-linejoin:round;stroke-dasharray:none;stroke-opacity:1;paint-order:stroke fill markers" transform="translate(-.68 -.68)"/><path d="m42.74 42.73 12.52 12.54m0-12.54L42.74 55.27" display="inline" fill="#fff" stroke="#fff" stroke-linecap="round" stroke-width="7.79" style="display:inline;stroke:#fff;stroke-width:4;stroke-dasharray:none;stroke-opacity:1"/></g></g></svg>
