<svg xml:space="preserve" viewBox="0 0 100 100" xmlns="http://www.w3.org/2000/svg"><g style="display:inline"><path d="M52.18 7.3a45.13 45.13 0 0 0-4.59.24l-.98.13-1.28.16-.5.1a44.57 44.57 0 0 0-3.91.82l-.24.06a44.48 44.48 0 0 0-6.07 2.1l.03.09c.65 2.23 1.27 4.48 1.8 6.2.26.86.5 1.6.7 2.08.02.06.04.08.07.13l.08.05c.47.17 1.19.4 2.03.65 1.7.49 3.9 1.06 6.1 1.66l.8.23a6.39 6.39 0 0 1-.5-2.46c0-.47.1-.94.2-1.4a34.8 34.8 0 0 1 6.26-.57 20.09 20.09 0 0 1 3.55.17c.91.1 1.81.23 2.72.4.09.46.18.93.18 1.4 0 .4-.04.78-.11 1.16l-.08.34c-.07.27-.15.52-.24.78l-.14.34c-.14.32-.3.64-.5.93-.06.1-.14.17-.2.25a6.5 6.5 0 0 1-1.28 1.3c-.15.11-.28.23-.44.32-.2.14-.42.25-.65.36l-.18.1.17.15c.4.43.96 1.21.92 2.34a3.23 3.23 0 0 1-.97 2.21c-.4.41-.75.65-1.12.87-.73.44-1.5.77-2.39 1.1a82.7 82.7 0 0 1-6.22 2c-2.23.64-4.48 1.27-6.2 1.8-.7.2-1.22.39-1.68.56l.01.01a19.1 19.1 0 0 0 2.96 2.97l.13.1c.5.4 1.04.78 1.59 1.13l.32.2c.56.33 1.13.65 1.73.93v34.36l8.12 8.12 4.95-4.95V48.6a5.82 5.82 0 0 1 3.07-5.12l.1-1.69a19.07 19.07 0 0 0 10.86-17.12c0-1.28-.1-2.45-.39-3.72.61.37 1.2.76 1.8 1.16l.5.37a36.36 36.36 0 0 1 3.36 2.7 36.35 36.35 0 0 1 2.71 2.75 36.4 36.4 0 0 1 1.97 2.4h.01a36.42 36.42 0 0 1 2.1 3.18c.53.89 1.03 1.79 1.48 2.72l.05.1a36.6 36.6 0 0 1 1.42 3.4c.36 1 .7 2 .97 3.03h4.66c1.85 0 3.5.84 4.59 2.15a44.46 44.46 0 0 0-1.94-7.59l-.06-.17c-.19-.55-.4-1.09-.61-1.62l-.1-.27a44.58 44.58 0 0 0-2.49-5.12l-.1-.2a44.94 44.94 0 0 0-2.01-3.19l-.03-.03a45.15 45.15 0 0 0-4.8-5.84l-.15-.16a45.18 45.18 0 0 0-2.62-2.45l-.29-.25a45.1 45.1 0 0 0-2.76-2.18l-.35-.24a44.86 44.86 0 0 0-2.97-1.95c-.08-.06-.17-.1-.26-.15a44.71 44.71 0 0 0-3.84-2.03c-.43-.2-.86-.4-1.3-.58l-.73-.3-1.2-.47-.86-.3-1.1-.38-.9-.28a44.24 44.24 0 0 0-5.38-1.24l-.83-.13c-.47-.07-.95-.13-1.42-.18l-.71-.08a43.1 43.1 0 0 0-1.6-.13c-.2 0-.4-.02-.59-.03a45.3 45.3 0 0 0-2.21-.06Zm-40.9 26.56v.01c-.3.68-.59 1.37-.86 2.06 0 .03-.02.06-.03.08-.26.67-.5 1.35-.73 2.03l-.06.17c-.22.69-.43 1.37-.62 2.07l-.04.14c-.17.64-.33 1.3-.48 1.95l-.08.37c-.13.6-.24 1.22-.35 1.83l-.08.48c-.1.55-.16 1.11-.23 1.67l-.09.7c-.05.5-.09 1.01-.12 1.52-.02.28-.05.55-.06.83a44.86 44.86 0 0 0 47.12 47.1l.5-.03c.64-.04 1.28-.1 1.92-.16.08 0 .15-.02.23-.03a39.3 39.3 0 0 0 2.14-.3l.17-.02c.73-.12 1.45-.26 2.17-.42h.02a5.84 5.84 0 0 1-4.6-5.7v-2.37a36.41 36.41 0 0 1-22.18-4.01 36.17 36.17 0 0 1-18.9-34.1l.07-.72c.04-.48.08-.97.14-1.45l.13-.92a36.2 36.2 0 0 1 1.29-5.58l.27-.85c.16-.44.32-.87.5-1.3a36.08 36.08 0 0 1 1.13-2.63l-.02-.04c-.04-.02-.05-.04-.09-.05-.47-.18-1.19-.4-2.03-.65-1.69-.5-3.9-1.07-6.09-1.66l-.05-.02zm35.76 12.8h2.61v25.91h-2.61z" fill="#fcfcfc"/><path d="M28.38 52.59c-1.96-.07-5.4-17.02-6.8-18.4-1.34-1.36-18.03-4.46-17.97-6.37.07-1.96 17.02-5.4 18.4-6.79C23.38 19.68 26.48 3 28.39 3.06c1.96.06 5.4 17.02 6.79 18.4 1.35 1.35 18.03 4.46 17.97 6.36-.06 1.96-17.02 5.4-18.4 6.8-1.35 1.34-4.46 18.03-6.36 17.97z" fill="#62c74d" style="paint-order:normal"/><rect x="58.52" y="44.06" width="33.42" height="46.44" ry="5.09" fill="#e54835" style="stroke-width:.73591" transform="translate(2.18 2.13)"/><path d="M73.01 75.39v-1.74c0-1.5.32-2.8.96-3.91a12.6 12.6 0 0 1 3.52-3.54c1.64-1.17 2.72-2.13 3.23-2.86.54-.73.8-1.55.8-2.46 0-1.02-.37-1.79-1.12-2.32-.75-.53-1.8-.8-3.14-.8-2.35 0-5.02.77-8.02 2.3l-2.55-5.13A22.33 22.33 0 0 1 77.77 52c3.22 0 5.77.77 7.67 2.32a7.56 7.56 0 0 1 2.85 6.18c0 1.72-.39 3.2-1.17 4.46-.78 1.25-2.26 2.65-4.45 4.22a14.14 14.14 0 0 0-2.86 2.53 3.98 3.98 0 0 0-.59 2.27v1.4zm-.75 8.01c0-1.31.35-2.3 1.06-2.97.7-.68 1.72-1.01 3.07-1.01 1.3 0 2.3.34 3 1.03.72.69 1.08 1.67 1.08 2.95 0 1.24-.36 2.21-1.08 2.93a4.1 4.1 0 0 1-3 1.06 4.23 4.23 0 0 1-3.05-1.03 3.94 3.94 0 0 1-1.08-2.96z" fill="#fff" stroke="#fff" stroke-linecap="round" style="display:inline"/></g></svg>
