<svg xml:space="preserve" viewBox="0 0 100 100" xmlns="http://www.w3.org/2000/svg"><g style="display:inline"><g style="display:inline;stroke:none;stroke-opacity:.8"><path d="M50 5.18C25.3 5.18 5.2 25.28 5.2 50a44.86 44.86 0 0 0 55.68 43.47H54.2a8.24 8.24 0 0 1-8.2-7.63 36.19 36.19 0 0 1-14.6-67.02c-.19 1.27-.38 2.45-.38 3.72 0 7.54 4.4 14.1 10.86 17.13v34.35l4.09 4.1v-7.67h-1.11V44.54h2.62v12.8a10 10 0 0 1 4.36-3.8v-2.92c0-6.62 3.76-12.74 9.56-15.57a21.87 21.87 0 0 1 4-1.5 18.81 18.81 0 0 0 3.2-14.73 36.43 36.43 0 0 1 16 20.6 18.52 18.52 0 0 1 4.45 12.06v2.06c2.18.98 3.94 2.73 4.95 4.86A44.86 44.86 0 0 0 50 5.18zm0 18.69a6.47 6.47 0 0 1-6.45-6.46c0-.46.1-.93.18-1.4 2.06-.37 4.21-.56 6.27-.56 2.15-.1 4.2.19 6.26.56.1.47.2.94.2 1.4 0 3.56-2.9 6.46-6.46 6.46z" fill="#fcfcfc" fill-opacity=".5" style="stroke:none"/><path d="M86.1 55.7v-4.22c0-11.14-11.61-19.55-23.4-13.8a14.34 14.34 0 0 0-7.92 12.94v5.09a6.96 6.96 0 0 0-5.87 6.8v22.73a5.3 5.3 0 0 0 5.3 5.29h32.47a5.3 5.3 0 0 0 5.3-5.3V62.52c0-3.4-2.58-6.29-5.88-6.8zm-9.58 0H64.47v-6.15a4.6 4.6 0 0 1 2.17-3.92c4.96-3.06 9.88.46 9.88 4.93v5.15z" fill="#eaa74b" style="stroke:none"/></g></g></svg>
