<svg xml:space="preserve" viewBox="0 0 100 100" xmlns="http://www.w3.org/2000/svg"><g style="display:inline"><path d="M51.89 7.3a44.52 44.52 0 0 0-17.57 3.6l.02.1c.65 2.23 1.27 4.48 1.8 6.2.27.86.51 1.6.7 2.08.02.06.04.08.07.13l.09.05c.47.17 1.19.4 2.03.65 1.69.49 3.9 1.06 6.09 1.66l.8.23c-.3-.76-.49-1.6-.49-2.46 0-.47.1-.94.19-1.4a34.9 34.9 0 0 1 6.27-.57c2.15-.09 4.2.19 6.26.56.1.47.19.94.19 1.4a6.46 6.46 0 0 1-3.82 5.89l.17.15c.4.43.95 1.21.92 2.34a3.23 3.23 0 0 1-.97 2.21c-.4.41-.76.65-1.12.87-.73.43-1.5.76-2.4 1.1a82.7 82.7 0 0 1-6.21 2c-2.24.64-4.48 1.27-6.2 1.8-.7.2-1.22.39-1.69.56a18.9 18.9 0 0 0 6.74 5.34v34.36l8.13 8.12L60 76.15 59.5 69l3.82-3.81-3.81-3.82 5.77-5.78-5.77-5.77.49-8.03a19.07 19.07 0 0 0 10.86-17.12c0-1.28-.1-2.45-.4-3.72A36.53 36.53 0 0 1 88.1 51.97a36.19 36.19 0 0 1-36.2 36.22 36.19 36.19 0 0 1-32.62-51.92l-.02-.03c-.04-.02-.04-.04-.08-.05-.47-.18-1.2-.4-2.04-.65-1.69-.5-3.9-1.07-6.08-1.66l-.06-.02a44.55 44.55 0 0 0-3.9 18.27 44.86 44.86 0 0 0 44.8 44.81c24.7 0 44.8-20.1 44.8-44.81A44.86 44.86 0 0 0 51.88 7.3zm-5.15 39.36h2.62v25.91h-2.62z" fill="#fcfcfc"/><path d="M28.08 52.59c-1.96-.07-5.4-17.02-6.79-18.4-1.35-1.36-18.04-4.46-17.97-6.37.06-1.96 17.02-5.4 18.4-6.79C23.07 19.68 26.18 3 28.08 3.06c1.96.06 5.4 17.02 6.8 18.4 1.34 1.35 18.03 4.46 17.97 6.36-.07 1.96-17.02 5.4-18.41 6.8-1.35 1.34-4.45 18.03-6.36 17.97z" fill="#62c74d" style="paint-order:normal"/></g></svg>
