<?xml version="1.0" encoding="UTF-8" standalone="no"?>
<svg
   xml:space="preserve"
   inkscape:export-ydpi="34.560001"
   inkscape:export-xdpi="34.560001"
   inkscape:export-filename="../keepassxc-browser/icons/toolbar/dark/icon_questionmark.png"
   inkscape:version="1.2.2 (b0a8486541, 2022-12-01)"
   sodipodi:docname="icon_new_questionmark.svg"
   version="1.1"
   viewBox="0 0 100 100"
   id="svg2"
   xmlns:inkscape="http://www.inkscape.org/namespaces/inkscape"
   xmlns:sodipodi="http://sodipodi.sourceforge.net/DTD/sodipodi-0.dtd"
   xmlns:xlink="http://www.w3.org/1999/xlink"
   xmlns="http://www.w3.org/2000/svg"
   xmlns:svg="http://www.w3.org/2000/svg"><defs
     id="defs23"><linearGradient
       id="linearGradient3216"
       gradientUnits="userSpaceOnUse"
       x1="73.800003"
       y1="1532.1382"
       x2="73.800003"
       y2="1574.0038"
       gradientTransform="translate(-0.51807498,-1417.3041)"><stop
         offset="0"
         style="stop-color:#ffcb00;stop-opacity:1;"
         id="stop3164" /><stop
         offset="1"
         style="stop-color:#af7125"
         id="stop3166" /></linearGradient><linearGradient
       id="SVGID_2_-3"
       gradientUnits="userSpaceOnUse"
       x1="73.800003"
       y1="1532.1382"
       x2="73.800003"
       y2="1574.0038"
       gradientTransform="translate(3.8,-1480.3)"><stop
         offset="0"
         style="stop-color:#e59a2c;stop-opacity:1;"
         id="stop373" /><stop
         offset="1"
         style="stop-color:#ac6f25;stop-opacity:1;"
         id="stop375" /></linearGradient><linearGradient
       id="linearGradient570"
       gradientUnits="userSpaceOnUse"
       x1="50.269299"
       y1="-1470.9402"
       x2="49.6968"
       y2="-1392.7863"
       gradientTransform="matrix(1,0,0,-1,0,-1384.1102)"><stop
         offset="0"
         style="stop-color:gray"
         id="stop366" /><stop
         offset="1"
         style="stop-color:#4b4b4d"
         id="stop368" /></linearGradient><linearGradient
       xlink:href="#linearGradient4316"
       id="linearGradient5199"
       x1="53.238865"
       y1="12.753036"
       x2="53.238865"
       y2="86.356995"
       gradientUnits="userSpaceOnUse"
       gradientTransform="translate(-50.413223,11.363636)" /><linearGradient
       id="linearGradient4316"><stop
         id="stop4318"
         offset="0"
         style="stop-color:#226e23;stop-opacity:1" /><stop
         id="stop4320"
         offset="1"
         style="stop-color:#63ab3a;stop-opacity:1" /></linearGradient></defs><sodipodi:namedview
     id="namedview21"
     pagecolor="#4f4f4f"
     bordercolor="#000000"
     borderopacity="0.25"
     inkscape:showpageshadow="2"
     inkscape:pageopacity="0"
     inkscape:pagecheckerboard="true"
     inkscape:deskcolor="#d1d1d1"
     showgrid="false"
     inkscape:zoom="2.71"
     inkscape:cx="44.649446"
     inkscape:cy="49.815498"
     inkscape:window-width="851"
     inkscape:window-height="917"
     inkscape:window-x="26"
     inkscape:window-y="23"
     inkscape:window-maximized="0"
     inkscape:current-layer="g12443"
     showguides="true"
     inkscape:lockguides="true"><sodipodi:guide
       position="97.567954,29.756795"
       orientation="1,0"
       id="guide432"
       inkscape:locked="true" /><sodipodi:guide
       position="77.968526,2.5751073"
       orientation="0,-1"
       id="guide434"
       inkscape:locked="true" /><sodipodi:guide
       position="51.788269,97.567954"
       orientation="0,-1"
       id="guide436"
       inkscape:locked="true" /><sodipodi:guide
       position="2.7181688,42.632332"
       orientation="1,0"
       id="guide438"
       inkscape:locked="true" /></sodipodi:namedview><linearGradient
     id="SVGID_1_"
     gradientUnits="userSpaceOnUse"
     x1="50.2693"
     y1="-1470.9402"
     x2="49.6968"
     y2="-1392.7863"
     gradientTransform="matrix(1,0,0,-1,-50.206612,-1373.1598)"><stop
       offset="0"
       style="stop-color:gray"
       id="stop4" /><stop
       offset="1"
       style="stop-color:#4b4b4d"
       id="stop6" /></linearGradient><linearGradient
     id="SVGID_2_"
     gradientUnits="userSpaceOnUse"
     x1="73.8"
     y1="1532.1382"
     x2="73.8"
     y2="1574.0038"
     gradientTransform="translate(-2.7294229,-1488.3381)"><stop
       offset="0"
       style="stop-color:#d69029"
       id="stop11" /><stop
       offset="1"
       style="stop-color:#af7125"
       id="stop13" /></linearGradient><g
     inkscape:groupmode="layer"
     id="layer4"
     inkscape:label="icon-light"
     style="display:none"><g
       inkscape:groupmode="layer"
       id="layer2"
       inkscape:label="normal"
       style="display:none;stroke:#0c0c0c;stroke-opacity:0.8"><circle
         style="clip-rule:evenodd;fill:none;fill-rule:evenodd;stroke:#0c0c0c;stroke-width:3.1319;stroke-linecap:round;stroke-linejoin:round;stroke-opacity:0.85"
         cx="50"
         cy="50"
         r="45.900002"
         id="circle2" /><path
         style="display:inline;fill:#0c0c0c;fill-opacity:0.85;stroke:#0c0c0c;stroke-opacity:0.85"
         d="m 56.7,13.7 c 0.1,0.5 0.2,1 0.2,1.5 0,3.8 -3.1,6.9 -6.9,6.9 -3.8,0 -6.9,-3.1 -6.9,-6.9 0,-0.5 0.1,-1 0.2,-1.5 2.2,-0.4 4.5,-0.6 6.7,-0.6 2.3,-0.1 4.5,0.2 6.7,0.6 z m -26.1,8.4 c 0,7.7 4.5,14.4 11.1,17.5 v 35.1 l 8.3,8.3 8.3,-8.3 -0.5,-7.3 3.9,-3.9 -3.9,-3.9 5.9,-5.9 -5.9,-5.9 0.5,-8.2 C 64.8,36.5 69.4,29.8 69.4,22.1 69.4,20.8 69.3,19.6 69,18.3 80.1,25 86.9,37 87,50 87,70.4 70.5,87 50,87 29.6,87 13,70.5 13,50 13,37 19.8,25 31,18.3 c -0.2,1.3 -0.4,2.5 -0.4,3.8 z m 13.9,22.1 h 2.8 v 27.7 h -2.8 z"
         id="path9" /></g><g
       inkscape:groupmode="layer"
       id="g5657"
       inkscape:label="dark"
       style="display:inline"><circle
         style="clip-rule:evenodd;display:inline;fill:none;fill-rule:evenodd;stroke:#0c0c0c;stroke-width:3.1319;stroke-linecap:round;stroke-linejoin:round;stroke-opacity:0.4"
         cx="50"
         cy="50"
         r="45.900002"
         id="circle5653"
         inkscape:label="circle5653" /><path
         style="fill:#0c0c0c;fill-opacity:0.4;stroke:#0c0c0c;stroke-opacity:0.4"
         d="m 56.7,13.7 c 0.1,0.5 0.2,1 0.2,1.5 0,3.8 -3.1,6.9 -6.9,6.9 -3.8,0 -6.9,-3.1 -6.9,-6.9 0,-0.5 0.1,-1 0.2,-1.5 2.2,-0.4 4.5,-0.6 6.7,-0.6 2.3,-0.1 4.5,0.2 6.7,0.6 z m -26.1,8.4 c 0,7.7 4.5,14.4 11.1,17.5 v 35.1 l 8.3,8.3 8.3,-8.3 -0.5,-7.3 3.9,-3.9 -3.9,-3.9 5.9,-5.9 -5.9,-5.9 0.5,-8.2 C 64.8,36.5 69.4,29.8 69.4,22.1 69.4,20.8 69.3,19.6 69,18.3 80.1,25 86.9,37 87,50 87,70.4 70.5,87 50,87 29.6,87 13,70.5 13,50 13,37 19.8,25 31,18.3 c -0.2,1.3 -0.4,2.5 -0.4,3.8 z m 13.9,22.1 h 2.8 v 27.7 h -2.8 z"
         id="path5655" /></g></g><g
     inkscape:groupmode="layer"
     id="layer6"
     inkscape:label="icon-dark"
     style="display:inline"><g
       inkscape:groupmode="layer"
       id="g12443"
       inkscape:label="normal"
       style="display:inline;stroke:#0c0c0c;stroke-opacity:0.8"><circle
         style="clip-rule:evenodd;display:inline;fill:none;fill-rule:evenodd;stroke:#ffffff;stroke-width:3.132;stroke-linecap:round;stroke-linejoin:round;stroke-opacity:0.98000002;stroke-dasharray:none"
         cx="50"
         cy="50"
         r="45.900002"
         id="circle12437"
         inkscape:label="circle12437" /><path
         style="display:inline;fill:#ffffff;fill-opacity:0.98000002;stroke:#ffffff;stroke-opacity:0.98000002"
         d="m 56.7,13.7 c 0.1,0.5 0.2,1 0.2,1.5 0,3.8 -3.1,6.9 -6.9,6.9 -3.8,0 -6.9,-3.1 -6.9,-6.9 0,-0.5 0.1,-1 0.2,-1.5 2.2,-0.4 4.5,-0.6 6.7,-0.6 2.3,-0.1 4.5,0.2 6.7,0.6 z m -26.1,8.4 c 0,7.7 4.5,14.4 11.1,17.5 v 35.1 l 8.3,8.3 8.3,-8.3 -0.5,-7.3 3.9,-3.9 -3.9,-3.9 5.9,-5.9 -5.9,-5.9 0.5,-8.2 C 64.8,36.5 69.4,29.8 69.4,22.1 69.4,20.8 69.3,19.6 69,18.3 80.1,25 86.9,37 87,50 87,70.4 70.5,87 50,87 29.6,87 13,70.5 13,50 13,37 19.8,25 31,18.3 c -0.2,1.3 -0.4,2.5 -0.4,3.8 z m 13.9,22.1 h 2.8 v 27.7 h -2.8 z"
         id="path12439" /></g><g
       inkscape:groupmode="layer"
       id="g15146"
       inkscape:label="dark"
       style="display:none;stroke:#0c0c0c;stroke-opacity:0.8"><circle
         style="clip-rule:evenodd;display:inline;fill:none;fill-rule:evenodd;stroke:#f9f9fa;stroke-width:3.1319;stroke-linecap:round;stroke-linejoin:round;stroke-opacity:0.5"
         cx="50"
         cy="50"
         r="45.900002"
         id="circle15140"
         inkscape:label="circle15140" /><path
         style="display:inline;fill:#f9f9fa;fill-opacity:0.5;stroke:#f9f9fa;stroke-opacity:0.5"
         d="m 56.7,13.7 c 0.1,0.5 0.2,1 0.2,1.5 0,3.8 -3.1,6.9 -6.9,6.9 -3.8,0 -6.9,-3.1 -6.9,-6.9 0,-0.5 0.1,-1 0.2,-1.5 2.2,-0.4 4.5,-0.6 6.7,-0.6 2.3,-0.1 4.5,0.2 6.7,0.6 z m -26.1,8.4 c 0,7.7 4.5,14.4 11.1,17.5 v 35.1 l 8.3,8.3 8.3,-8.3 -0.5,-7.3 3.9,-3.9 -3.9,-3.9 5.9,-5.9 -5.9,-5.9 0.5,-8.2 C 64.8,36.5 69.4,29.8 69.4,22.1 69.4,20.8 69.3,19.6 69,18.3 80.1,25 86.9,37 87,50 87,70.4 70.5,87 50,87 29.6,87 13,70.5 13,50 13,37 19.8,25 31,18.3 c -0.2,1.3 -0.4,2.5 -0.4,3.8 z m 13.9,22.1 h 2.8 v 27.7 h -2.8 z"
         id="path15144" /></g></g><g
     inkscape:groupmode="layer"
     id="layer7"
     inkscape:label="icon-colored"
     style="display:none"><g
       inkscape:groupmode="layer"
       id="layer9"
       inkscape:label="normal"
       style="display:inline"><circle
         r="45.934067"
         style="opacity:0.871;fill:#ffffff;fill-opacity:1;fill-rule:evenodd;stroke:#000000;stroke-width:3.13187;stroke-linecap:round;stroke-linejoin:round;stroke-miterlimit:4;stroke-dasharray:none;stroke-opacity:0.784314"
         id="path5201"
         cx="49.999977"
         cy="50.000034" /><circle
         style="fill:none;fill-opacity:1;fill-rule:evenodd;stroke:none;stroke-width:1.5;stroke-linecap:round;stroke-linejoin:round;stroke-miterlimit:4;stroke-dasharray:none;stroke-opacity:1"
         id="path3336"
         cx="49.999977"
         cy="50.000057"
         r="42.32143" /><path
         style="fill:#f9f9f9;fill-opacity:1;fill-rule:evenodd;stroke:none;stroke-width:2.5;stroke-linecap:round;stroke-linejoin:round;stroke-miterlimit:4;stroke-dasharray:none;stroke-opacity:1"
         d="M 50,6.32425 C 25.8787,6.32464 6.32458,25.8787 6.3242,50 6.32458,74.1213 25.8787,93.6754 50,93.6758 74.1213,93.6754 93.6754,74.1213 93.6758,50 93.6754,25.8787 74.1213,6.32464 50,6.32425 Z m 0,6.71095 c 2.2642,0.0083 4.5234,0.2249 6.748,0.6465 0.1072,0.4837 0.168,0.984 0.168,1.5 0,3.8226 -3.0973,6.918 -6.918,6.916 -3.8207,0.0022 -6.916,-3.0914 -6.916,-6.9141 0,-0.5181 0.062,-1.0203 0.1699,-1.5058 2.2248,-0.4202 4.484,-0.6357 6.7481,-0.6426 z M 31.0058,18.334 c -0.2405,1.2192 -0.3713,2.4742 -0.3711,3.7637 0,7.7197 4.5284,14.368 11.0645,17.4805 V 74.668 l 8.2988,8.2988 8.3008,-8.3007 -0.4766,-7.3497 3.9141,-3.9121 -3.9141,-3.9121 5.8711,-5.8672 -5.8711,-5.8711 0.4766,-8.1777 c 6.538,-3.1106 11.0664,-9.7588 11.0664,-17.4785 0,-1.287 -0.1334,-2.541 -0.373,-3.7578 C 80.1246,25.0074 86.9466,37.0236 86.9648,50 86.9643,70.4146 70.4146,86.9643 50,86.9649 29.5854,86.9643 13.0357,70.4146 13.0351,50 13.0507,37.0218 19.8723,25.0032 31.0058,18.334 Z m 13.459,25.8985 h 2.7676 v 27.666 h -2.7656 l -0.002,-27.6641 v -0.002 z"
         id="path4264" /><path
         style="opacity:0.94;fill:url(#linearGradient5199);fill-opacity:1;fill-rule:nonzero;stroke:none;stroke-width:0.8;stroke-linecap:round;stroke-linejoin:round;stroke-miterlimit:4;stroke-dasharray:none;stroke-opacity:1"
         d="m 56.7475,13.6819 c 0.1072,0.4836 0.1684,0.9846 0.1684,1.5006 0,3.8226 -3.0973,6.9179 -6.918,6.9159 -3.8207,0.0022 -6.916,-3.0911 -6.916,-6.9138 0,-0.5181 0.0626,-1.0214 0.1705,-1.507 2.2248,-0.4201 4.4835,-0.635 6.7476,-0.6419 2.2642,0.0083 4.5229,0.2246 6.7475,0.6462 z m -26.1126,8.4165 c 0,7.7197 4.5282,14.3668 11.0643,17.4793 v 35.0912 l 8.2987,8.2987 8.3008,-8.3008 -0.4757,-7.3495 3.9126,-3.9126 -3.9126,-3.9126 5.8699,-5.8678 -5.8699,-5.8699 0.4757,-8.1788 c 6.538,-3.1106 11.0663,-9.7575 11.0663,-17.4772 0,-1.287 -0.1329,-2.5421 -0.3725,-3.7589 C 80.125,25.007 86.946,37.0236 86.9643,50.0001 86.9637,70.4147 70.4146,86.9638 50,86.9644 29.5854,86.9638 13.0362,70.4147 13.0357,50.0001 13.0512,37.0218 19.8718,25.0024 31.0053,18.3332 c -0.2405,1.2191 -0.3706,2.4757 -0.3704,3.7652 z m 13.8298,22.1347 h 2.7676 V 71.899 h -2.7655 l -0.002,-27.6638 v -0.002 z"
         id="path3336-3-2-7" /></g><g
       inkscape:groupmode="layer"
       id="layer8"
       inkscape:label="dark"
       style="display:none"><circle
         style="clip-rule:evenodd;fill:#ffffff;fill-rule:evenodd;stroke:#515151;stroke-width:3.1319;stroke-linecap:round;stroke-linejoin:round"
         cx="49.999989"
         cy="50.000011"
         r="45.900002"
         id="circle364" /><path
         style="display:inline;fill:url(#SVGID_1_)"
         d="m 56.7,13.7 c 0.1,0.5 0.2,1 0.2,1.5 0,3.8 -3.1,6.9 -6.9,6.9 -3.8,0 -6.9,-3.1 -6.9,-6.9 0,-0.5 0.1,-1 0.2,-1.5 2.2,-0.4 4.5,-0.6 6.7,-0.6 2.3,-0.1 4.5,0.2 6.7,0.6 z m -26.1,8.4 c 0,7.7 4.5,14.4 11.1,17.5 v 35.1 l 8.3,8.3 8.3,-8.3 -0.5,-7.3 3.9,-3.9 -3.9,-3.9 5.9,-5.9 -5.9,-5.9 0.5,-8.2 C 64.8,36.5 69.4,29.8 69.4,22.1 69.4,20.8 69.3,19.6 69,18.3 80.1,25 86.9,37 87,50 87,70.4 70.5,87 50,87 29.6,87 13,70.5 13,50 13,37 19.8,25 31,18.3 c -0.2,1.3 -0.4,2.5 -0.4,3.8 z m 13.9,22.1 h 2.8 v 27.7 h -2.8 z"
         id="path371" /></g></g><g
     inkscape:groupmode="layer"
     id="layer11"
     inkscape:label="badges"
     style="display:inline"><g
       inkscape:groupmode="layer"
       id="g1512"
       inkscape:label="new"
       style="display:inline"><path
         style="fill:#00ff00;fill-opacity:1;stroke:#000000;stroke-width:5.52284;stroke-linecap:round;stroke-linejoin:round;stroke-dasharray:none;stroke-opacity:1;paint-order:markers stroke fill"
         id="path1510"
         d="M 27.5258,52.2899 C 25.565,52.2252 22.1218,35.2708 20.7345,33.8835 19.3864,32.5355 2.6989,29.4312 2.76175,27.5258 2.82644,25.5649 19.7808,22.1217 21.1681,20.7344 c 1.348,-1.348 4.4523,-18.03552 6.3577,-17.97266 1.9609,0.06468 5.4041,17.01906 6.7914,18.40636 1.348,1.348 18.0355,4.4523 17.9727,6.3577 -0.0647,1.9609 -17.0191,5.404 -18.4064,6.7913 -1.348,1.3481 -4.4523,18.0356 -6.3577,17.9728 z" /></g><g
       inkscape:groupmode="layer"
       id="layer10"
       inkscape:label="locked"
       style="display:none"><path
         style="fill:url(#SVGID_2_-3);stroke:#0e0e0e;stroke-width:3;stroke-dasharray:none;stroke-opacity:1"
         d="m 63.4,98.5 c -3.7,0 -6.7,-3 -6.7,-6.699997 v -20.5 c 0,-3.3 2.5,-6.1 5.7,-6.6 v -4.1 c 0,-8.4 6.8,-15.2 15.2,-15.2 8.4,0 15.2,6.8 15.2,15.2 v 4.1 c 3.2,0.5 5.7,3.3 5.7,6.6 v 20.5 C 98.5,95.5 95.5,98.5 91.8,98.5 Z M 83.5,64.700003 v -5 c 0,-3.2 -2.6,-5.9 -5.9,-5.9 -3.3,0 -5.8,2.6 -5.8,5.9 v 5 z"
         id="path378" /></g><g
       inkscape:groupmode="layer"
       id="g1504"
       inkscape:label="questionmark"
       style="display:inline"><rect
         style="display:inline;fill:#ff0000;fill-opacity:1;stroke:#000000;stroke-width:3;stroke-linecap:round;stroke-linejoin:round;stroke-dasharray:none;stroke-opacity:1"
         id="rect1498"
         width="33.410019"
         height="47.986073"
         x="62.107082"
         y="49.701759"
         ry="5.2592082"
         transform="translate(2.9829,0.812168)" /><path
         d="m 77.3184,80.2023 v -1.7344 c 0,-1.5 0.3203,-2.8047 0.961,-3.9141 0.6406,-1.1093 1.8125,-2.289 3.5156,-3.539 1.6406,-1.1719 2.7187,-2.125 3.2344,-2.8594 0.5312,-0.7344 0.7968,-1.5547 0.7968,-2.4609 0,-1.0157 -0.375,-1.7891 -1.125,-2.3204 -0.75,-0.5312 -1.7968,-0.7968 -3.1406,-0.7968 -2.3437,0 -5.0156,0.7656 -8.0156,2.2968 l -2.5547,-5.1328 c 3.4844,-1.9531 7.1797,-2.9297 11.0859,-2.9297 3.2188,0 5.7735,0.7735 7.6641,2.3204 1.9063,1.5468 2.8594,3.6093 2.8594,6.1875 0,1.7187 -0.3906,3.2031 -1.1719,4.4531 -0.7812,1.25 -2.2656,2.6562 -4.4531,4.2187 -1.5,1.1094 -2.4531,1.9532 -2.8594,2.5313 -0.3906,0.5781 -0.5859,1.3359 -0.5859,2.2734 v 1.4063 z m -0.75,8.0156 c 0,-1.3125 0.3516,-2.3047 1.0547,-2.9766 0.7031,-0.6718 1.7266,-1.0078 3.0703,-1.0078 1.2969,0 2.2969,0.3438 3,1.0313 0.7188,0.6875 1.0782,1.6718 1.0782,2.9531 0,1.2344 -0.3594,2.2109 -1.0782,2.9297 -0.7187,0.7031 -1.7187,1.0547 -3,1.0547 -1.3125,0 -2.3281,-0.3438 -3.0468,-1.0313 -0.7188,-0.7031 -1.0782,-1.6875 -1.0782,-2.9531 z"
         id="path14459"
         style="font-weight:bold;font-size:48px;font-family:'Open Sans';-inkscape-font-specification:'Open Sans, Bold';display:inline;fill:#ffffff;stroke:#ffffff;stroke-linecap:round;stroke-opacity:1" /></g><g
       inkscape:groupmode="layer"
       id="g1481"
       inkscape:label="cross"
       style="display:none"
       sodipodi:insensitive="true"><rect
         style="display:inline;fill:#ff0000;stroke:#040404;stroke-width:2.71598;stroke-linecap:round;stroke-linejoin:round;stroke-dasharray:none;stroke-opacity:1"
         id="rect1477"
         width="37.057533"
         height="37.427826"
         x="58.941952"
         y="60.376991"
         ry="4.1020384"
         transform="matrix(1.10457,0,0,1.10457,-7.53833,-9.53245)" /><path
         id="path1479"
         style="display:inline;fill:none;fill-opacity:1;stroke:#ffffff;stroke-width:6.07013;stroke-linecap:round;stroke-dasharray:none;stroke-opacity:1"
         d="m 67.6524,67.432 20.7622,20.794 m 0,-20.794 -20.7622,20.794" /></g><g
       inkscape:groupmode="layer"
       id="g1492"
       inkscape:label="bang"
       style="display:none"><rect
         style="display:inline;fill:#ff0000;stroke:#000000;stroke-width:3;stroke-dasharray:none;stroke-opacity:1"
         id="rect1486"
         width="30.218517"
         height="47.986073"
         x="62.782154"
         y="46.082748"
         ry="5.2592082"
         transform="translate(5.49933,4.43118)" /><path
         d="M 86.297,79.9562 H 80.5782 L 79.3829,57.0577 h 8.1094 z m -7.0078,8.0156 c 0,-1.3125 0.3515,-2.3047 1.0547,-2.9766 0.7031,-0.6718 1.7265,-1.0078 3.0703,-1.0078 1.2969,0 2.2969,0.3438 3,1.0313 0.7187,0.6875 1.0781,1.6719 1.0781,2.9531 0,1.2344 -0.3594,2.2109 -1.0781,2.9297 -0.7188,0.7031 -1.7188,1.0547 -3,1.0547 -1.3125,0 -2.3281,-0.3438 -3.0469,-1.0313 -0.7187,-0.7031 -1.0781,-1.6875 -1.0781,-2.9531 z"
         id="path15182"
         style="font-weight:bold;font-size:48px;font-family:'Open Sans';-inkscape-font-specification:'Open Sans, Bold';display:inline;fill:#ffffff;stroke:#ffffff" /></g></g></svg>
