<svg xml:space="preserve" viewBox="0 0 100 100" xmlns="http://www.w3.org/2000/svg"><g style="display:inline"><path d="M50 5.18C25.3 5.18 5.2 25.28 5.2 50a44.86 44.86 0 0 0 55.4 43.54h-1.94a4.52 4.52 0 0 1-4.54-4.53v-3.19a36.19 36.19 0 0 1-22.71-67c-.2 1.27-.4 2.45-.4 3.72a18.9 18.9 0 0 0 10.87 17.13v34.35L50 82.15l4.12-4.13v-21.3a4.52 4.52 0 0 1 4.54-4.53h3.46l-4.49-4.5.5-8.02a19.07 19.07 0 0 0 10.85-17.13c0-1.27-.1-2.45-.39-3.72A36.52 36.52 0 0 1 86.12 52.2h4.42c1.76 0 3.26 1 4.01 2.46A44.86 44.86 0 0 0 50 5.18zm1.6 10.27c1.58.05 3.12.28 4.67.56.09.47.18.94.18 1.4 0 3.56-2.9 6.46-6.45 6.46a6.47 6.47 0 0 1-6.45-6.46c0-.46.1-.93.18-1.4 2.06-.37 4.21-.56 6.27-.56.54-.02 1.07-.02 1.6 0zm-6.74 29.09h2.62v25.9h-2.62z" fill="#fcfcfc" fill-opacity=".5"/><rect x="73.62" y="71.02" width="47.61" height="48.09" ry="5.27" fill="#e54835" transform="translate(2.9 2.9) scale(.73591)"/><path d="m64.22 62.47 20.76 20.8m0-20.8-20.76 20.8" fill="#fff" stroke="#fff" stroke-linecap="round" stroke-width="6.07"/></g></svg>
