<svg height="64" width="64" viewBox="0 0 64 64" xml:space="preserve" xmlns="http://www.w3.org/2000/svg"><path d="M32 2C15.46 2 2 15.46 2 32s13.46 30 30 30 30-13.46 30-30S48.54 2 32 2Zm-4.2 7.25c1.38-.25 2.82-.38 4.2-.38a18.7 18.7 0 0 1 4.2.38 4.33 4.33 0 1 1-8.52.94c0-.32.06-.63.12-.94zm2.5 19.1v17.34h-1.74V28.34ZM32 56.13a24.23 24.23 0 0 1-12.45-45.01c-.13.85-.26 1.64-.26 2.49 0 5.04 2.95 9.43 7.27 11.46v23L32 53.52l5.44-5.44-.33-4.78 2.56-2.56-2.56-2.55 3.87-3.87-3.87-3.86.33-5.38a12.77 12.77 0 0 0 7.27-11.46c0-.85-.06-1.64-.26-2.5a24.45 24.45 0 0 1 11.8 20.78A24.23 24.23 0 0 1 32 56.14z" style="display:inline;fill:#fcfcfc;stroke-width:.492719"/><g style="display:inline;stroke-width:1;stroke:#34220a;stroke-opacity:1"><g style="display:inline;stroke:#34220a;stroke-width:1;stroke-opacity:1" stroke="#0c0c0c" stroke-opacity=".8"><rect x="34.5" y="22.82" width="24" height="34" ry="3.73" display="inline" fill="#e54835" stroke="none" style="display:inline;stroke:#4b110a;stroke-width:2;stroke-dasharray:none;stroke-opacity:1;paint-order:stroke fill markers" transform="translate(4.5 6.18)"/><path d="M48.3 49.53v-1.07c0-.93.2-1.74.59-2.43a7.8 7.8 0 0 1 2.18-2.2 8.93 8.93 0 0 0 2-1.77c.33-.46.5-.97.5-1.53 0-.63-.23-1.1-.7-1.44a3.32 3.32 0 0 0-1.95-.5c-1.45 0-3.1.48-4.97 1.43l-1.58-3.18a13.83 13.83 0 0 1 6.87-1.82c2 0 3.58.48 4.75 1.44a4.7 4.7 0 0 1 1.78 3.84c0 1.07-.24 1.99-.73 2.76-.48.78-1.4 1.65-2.76 2.62a8.77 8.77 0 0 0-1.77 1.57 2.5 2.5 0 0 0-.37 1.41v.87zm-.47 4.98c0-.82.22-1.43.65-1.85.44-.42 1.07-.62 1.9-.62.81 0 1.43.2 1.87.64.44.42.66 1.03.66 1.83a2.5 2.5 0 0 1-.66 1.82c-.45.43-1.07.65-1.86.65-.82 0-1.45-.21-1.9-.64a2.45 2.45 0 0 1-.66-1.83Z" display="inline" fill="#fff" stroke="#fff" stroke-linecap="round" style="display:inline;stroke:#fff;stroke-width:.869436;stroke-opacity:1"/></g></g></svg>
