<svg height="64" width="64" viewBox="0 0 64 64" xml:space="preserve" xmlns="http://www.w3.org/2000/svg"><path d="M32 2C15.46 2 2 15.46 2 32s13.46 30 30 30 30-13.46 30-30S48.54 2 32 2Zm-4.2 7.25c1.38-.25 2.82-.38 4.2-.38a18.7 18.7 0 0 1 4.2.38 4.33 4.33 0 1 1-8.52.94c0-.32.06-.63.12-.94zm2.5 19.1v17.34h-1.74V28.34ZM32 56.13a24.23 24.23 0 0 1-12.45-45.01c-.13.85-.26 1.64-.26 2.49 0 5.04 2.95 9.43 7.27 11.46v23L32 53.52l5.44-5.44-.33-4.78 2.56-2.56-2.56-2.55 3.87-3.87-3.87-3.86.33-5.38a12.77 12.77 0 0 0 7.27-11.46c0-.85-.06-1.64-.26-2.5a24.45 24.45 0 0 1 11.8 20.78A24.23 24.23 0 0 1 32 56.14z" style="display:inline;opacity:.5;fill:#fcfcfc;stroke-width:.492719"/><g style="display:inline;stroke-width:1;stroke:#34220a;stroke-opacity:1"><g style="display:inline;stroke:#34220a;stroke-width:1;stroke-opacity:1" stroke="#0c0c0c" stroke-opacity=".8"><path d="M56.18 36.38v-2.74c0-7.24-7.55-12.7-15.22-8.96a9.3 9.3 0 0 0-5.14 8.4v3.3A4.52 4.52 0 0 0 32 40.79v14.76c0 1.9 1.54 3.44 3.44 3.44h21.12c1.9 0 3.44-1.54 3.44-3.44V40.8c0-2.2-1.68-4.08-3.82-4.41zm-6.23 0h-7.83v-4a3 3 0 0 1 1.4-2.54c3.23-2 6.43.3 6.43 3.2v3.34z" display="inline" fill="#eaa74b" stroke="none" style="display:inline;stroke:#34220a;stroke-width:1.99999;stroke-linecap:round;stroke-linejoin:round;stroke-dasharray:none;stroke-opacity:1;paint-order:stroke fill markers"/></g></g></svg>
