<svg xml:space="preserve" viewBox="0 0 100 100" xmlns="http://www.w3.org/2000/svg"><g stroke-width=".74" style="display:inline"><path d="M51.89 7.3a45.13 45.13 0 0 0-4.6.24l-.97.13-1.28.16-.5.1a44.57 44.57 0 0 0-3.92.82l-.23.06a44.48 44.48 0 0 0-6.07 2.1l.02.09c.65 2.23 1.27 4.48 1.8 6.2.27.86.51 1.6.7 2.08.02.06.04.08.07.13l.09.05c.47.17 1.19.4 2.03.65 1.69.49 3.9 1.06 6.09 1.66l.8.23a6.39 6.39 0 0 1-.49-2.46c0-.47.1-.94.19-1.4a34.9 34.9 0 0 1 6.27-.57 20.09 20.09 0 0 1 3.55.17c.9.1 1.81.23 2.71.4.1.46.19.93.19 1.4 0 .4-.05.78-.12 1.16l-.08.34a5.4 5.4 0 0 1-.24.78l-.13.34c-.15.32-.31.64-.5.93l-.2.25a6.5 6.5 0 0 1-1.29 1.3c-.14.11-.28.23-.43.32-.2.14-.43.25-.65.36l-.18.1.17.15c.4.43.95 1.21.92 2.34a3.23 3.23 0 0 1-.97 2.21c-.4.41-.76.65-1.12.87-.73.44-1.5.77-2.4 1.1a82.7 82.7 0 0 1-6.21 2c-2.24.64-4.48 1.27-6.2 1.8-.7.2-1.22.39-1.69.56l.02.01A19.1 19.1 0 0 0 40 39.43l.12.1c.51.4 1.04.78 1.6 1.13l.32.2c.56.33 1.13.65 1.72.93v34.36l8.13 8.12L56 80.15v-21.3a4.52 4.52 0 0 1 4.53-4.54H64l-4.5-4.5.5-8.02a19.07 19.07 0 0 0 10.86-17.12c0-1.28-.1-2.45-.4-3.72A36.53 36.53 0 0 1 88 54.29v.02h4.41c1.76 0 3.27 1 4.02 2.47a45.7 45.7 0 0 0 .24-4.66 44.86 44.86 0 0 0-44.8-44.81zm-40.9 26.56v.01c-.3.68-.6 1.37-.86 2.06l-.04.08c-.25.67-.5 1.35-.72 2.03l-.06.17c-.22.68-.43 1.37-.62 2.07l-.04.14c-.18.64-.33 1.3-.48 1.95l-.09.37c-.13.6-.24 1.22-.34 1.83l-.09.48c-.09.55-.16 1.11-.22 1.67l-.1.7c-.05.5-.08 1.01-.12 1.52l-.06.83a44.86 44.86 0 0 0 47.27 47.1l.71-.06c.64-.05 1.28-.1 1.92-.18l.56-.07c.69-.09 1.38-.19 2.06-.31l.41-.07c.78-.15 1.56-.31 2.32-.5l.07-.01h-1.93a4.52 4.52 0 0 1-4.53-4.54v-3.18c-.67.07-1.34.13-2.02.17h-.03a36.19 36.19 0 0 1-38.2-38.4c0-.23.04-.47.06-.7.03-.5.08-.98.14-1.46l.13-.92a35.97 35.97 0 0 1 1.29-5.58l.27-.85c.15-.44.32-.87.49-1.31l.27-.72c.27-.65.55-1.29.86-1.91l-.02-.03c-.04-.02-.04-.04-.08-.05-.47-.18-1.2-.4-2.04-.65-1.69-.5-3.9-1.07-6.08-1.67l-.06-.01zm35.75 12.8h2.62v25.91h-2.62z" fill="#fcfcfc" fill-opacity=".5"/><path d="M28.08 52.59c-1.96-.07-5.4-17.02-6.79-18.4-1.35-1.36-18.03-4.46-17.97-6.37.06-1.96 17.02-5.4 18.4-6.79C23.07 19.68 26.18 3 28.08 3.06c1.96.06 5.4 17.02 6.8 18.4 1.34 1.35 18.03 4.46 17.97 6.36-.07 1.96-17.02 5.4-18.41 6.8-1.35 1.34-4.45 18.03-6.36 17.97z" fill="#62c74d" style="paint-order:normal"/><rect x="57.08" y="55.17" width="35.04" height="35.39" ry="3.88" fill="#e54835" style="stroke-width:.54163" transform="translate(1.89 2.13)"/><path d="m66.1 64.6 20.76 20.79m0-20.8L66.1 85.4" fill="#fff" stroke="#fff" stroke-linecap="round" stroke-width="6.07"/></g></svg>
