<svg xml:space="preserve" viewBox="0 0 100 100" xmlns="http://www.w3.org/2000/svg"><g style="display:inline"><path d="M51.89 7.3a45.13 45.13 0 0 0-4.6.24l-.98.13-1.27.16-.5.1a44.57 44.57 0 0 0-3.92.82l-.23.06a44.53 44.53 0 0 0-6.07 2.1l.02.09c.65 2.23 1.27 4.48 1.8 6.2.27.86.51 1.6.7 2.08.02.06.04.08.07.13l.09.05c.47.17 1.19.4 2.03.65 1.69.49 3.9 1.06 6.09 1.66l.8.23a6.4 6.4 0 0 1-.47-2.31l-.02-.15c0-.24.03-.47.06-.7l.13-.7a34.9 34.9 0 0 1 6.27-.57c2.15-.09 4.2.2 6.26.56.1.47.19.94.19 1.4v.01c0 .4-.05.79-.12 1.17l-.07.32c-.07.27-.15.54-.26.8l-.12.33c-.15.32-.31.63-.5.93l-.22.28a6.51 6.51 0 0 1-1.27 1.27c-.14.11-.28.23-.43.32-.27.17-.54.33-.83.46l.17.15c.4.43.95 1.21.92 2.34a3.23 3.23 0 0 1-.97 2.21c-.4.41-.76.65-1.12.87-.73.43-1.5.76-2.4 1.1a82.72 82.72 0 0 1-6.21 2c-2.24.64-4.48 1.27-6.2 1.8-.7.2-1.22.39-1.69.56A19.1 19.1 0 0 0 40 39.43l.12.1c.52.41 1.06.8 1.62 1.15l.27.16c.56.34 1.15.67 1.75.95v34.36l4.1 4.09v-7.67h-1.12v-25.9h2.62v12.8a9.91 9.91 0 0 1 4.37-3.8v-2.93c0-6.62 3.75-12.73 9.56-15.57a21.86 21.86 0 0 1 4-1.5c.28-.37.53-.76.78-1.16l.05-.08c.23-.38.45-.77.65-1.17l.05-.1c.19-.37.37-.75.53-1.14l.1-.22a18.77 18.77 0 0 0 .82-2.47l.07-.28c.1-.36.16-.72.23-1.09l.07-.36.13-1.08c0-.13.03-.26.04-.38a16.04 16.04 0 0 0-.33-5.19l.1.06a36.4 36.4 0 0 1 5.11 3.77l.28.24c.75.68 1.47 1.4 2.17 2.13l.37.4c.62.69 1.22 1.39 1.79 2.11l.2.25a36.47 36.47 0 0 1 3.43 5.4l.09.17c1 1.93 1.81 3.95 2.45 6.04l.01.03a18.52 18.52 0 0 1 4.45 12.06v2.05a9.99 9.99 0 0 1 4.95 4.87c.13-.68.25-1.37.35-2.06v-.02c.1-.67.17-1.33.24-2l.05-.71c.04-.48.08-.95.1-1.44a44.63 44.63 0 0 0-2.67-17.57 44.89 44.89 0 0 0-4.94-9.64A45.2 45.2 0 0 0 65.2 9.33 44.38 44.38 0 0 0 51.9 7.3Zm-40.9 26.56v.01c-.3.68-.6 1.37-.86 2.06l-.04.08c-.26.67-.5 1.35-.72 2.03l-.06.17c-.23.68-.43 1.37-.62 2.07l-.04.14c-.18.64-.33 1.3-.48 1.95l-.09.37c-.13.6-.24 1.22-.34 1.83l-.09.48c-.09.55-.16 1.11-.22 1.67l-.1.7c-.05.5-.08 1.01-.12 1.52-.02.28-.05.55-.06.83a44.56 44.56 0 0 0 7.6 27.4 45.12 45.12 0 0 0 28.12 18.86 44.58 44.58 0 0 0 11.59.83c.27-.01.53-.04.8-.06.61-.05 1.22-.1 1.82-.17l.75-.1c.65-.08 1.28-.18 1.92-.3l.59-.1a43.7 43.7 0 0 0 2.27-.5c.05 0 .1-.02.14-.03H56.1a8.24 8.24 0 0 1-8.2-7.64 36 36 0 0 1-9.66-2.44l-.05-.03c-.6-.24-1.18-.53-1.76-.81-.48-.23-.96-.44-1.42-.68-.52-.28-1.02-.58-1.53-.88-.46-.28-.94-.55-1.4-.85-.46-.3-.91-.64-1.37-.97a34.2 34.2 0 0 1-1.36-1.01 36.16 36.16 0 0 1-2.53-2.22 36.28 36.28 0 0 1-4.41-5.11 36.1 36.1 0 0 1-1.84-2.87c-.32-.56-.65-1.1-.94-1.68l-.18-.35a35.97 35.97 0 0 1-2.27-5.8l-.13-.44a34 34 0 0 1-.68-2.86l-.08-.42c-.18-1-.33-1.99-.42-3l-.03-.32a36.73 36.73 0 0 1-.08-5.46l.07-.86c.04-.45.08-.9.14-1.34a36.04 36.04 0 0 1 .81-4.36l.23-.88c.12-.42.24-.84.38-1.26l.27-.85c.15-.44.32-.87.49-1.31l.27-.72c.27-.65.55-1.29.86-1.91l-.02-.03c-.04-.02-.04-.04-.08-.05-.47-.18-1.2-.4-2.04-.65-1.69-.5-3.9-1.07-6.08-1.66l-.06-.02Z" fill="#fcfcfc" fill-opacity=".5"/><path d="M28.08 52.59c-1.96-.07-5.4-17.02-6.79-18.4-1.35-1.36-18.04-4.46-17.97-6.37.06-1.96 17.02-5.4 18.4-6.79C23.07 19.68 26.18 3 28.08 3.06c1.96.06 5.4 17.02 6.8 18.4 1.34 1.35 18.03 4.46 17.97 6.36-.07 1.96-17.02 5.4-18.41 6.8-1.35 1.34-4.45 18.03-6.36 17.97z" fill="#62c74d" style="paint-order:normal"/><path d="M88 57.83v-4.22c0-11.15-11.62-19.56-23.42-13.8a14.34 14.34 0 0 0-7.9 12.93v5.1a6.96 6.96 0 0 0-5.88 6.8v22.72a5.3 5.3 0 0 0 5.3 5.3h32.47a5.3 5.3 0 0 0 5.3-5.3V64.63c0-3.4-2.58-6.28-5.88-6.8zm-9.59 0H66.36v-6.15a4.6 4.6 0 0 1 2.16-3.92c4.97-3.07 9.89.45 9.89 4.92v5.15z" fill="#eaa74b"/></g></svg>
