<svg xml:space="preserve" viewBox="0 0 100 100" xmlns="http://www.w3.org/2000/svg"><g stroke-width=".74" style="display:inline"><path d="M50.19 5.18c-24.7 0-44.8 20.1-44.8 44.82a44.86 44.86 0 0 0 44.8 44.82c5.2 0 10.2-.9 14.84-2.54a5.67 5.67 0 0 1-2.43-4.67v-3.73a36.19 36.19 0 0 1-31-65.06c-.2 1.27-.4 2.45-.4 3.72a18.9 18.9 0 0 0 10.87 17.13v34.35l8.12 8.13 8.12-8.13-.49-7.14 3.82-3.82-3.82-3.82 4.78-4.77v-2l-4.78-4.78.5-8.02a19.07 19.07 0 0 0 10.85-17.13c0-1.27-.1-2.44-.39-3.72a36.45 36.45 0 0 1 16.54 22.53h4.32c2.14 0 4 1.18 4.97 2.92A44.86 44.86 0 0 0 50.19 5.18Zm1.6 10.27c1.58.05 3.12.28 4.67.56.09.47.18.94.18 1.4 0 3.56-2.9 6.46-6.45 6.46a6.47 6.47 0 0 1-6.45-6.46c0-.46.1-.93.18-1.4 2.06-.37 4.21-.56 6.27-.56.54-.02 1.07-.02 1.6 0zm-6.74 29.09h2.61v25.9h-2.61z" fill="#fcfcfc"/><rect x="84.91" y="55.83" width="36.37" height="63.43" ry="6.95" fill="#e54835" style="paint-order:normal" transform="translate(3.1 2.9) scale(.73591)"/><path d="M82 73.45h-5.72l-1.2-22.9h8.1zm-7.01 8.01c0-1.3.35-2.3 1.05-2.97.7-.67 1.73-1.01 3.07-1.01 1.3 0 2.3.34 3 1.03.72.69 1.08 1.67 1.08 2.95 0 1.24-.36 2.22-1.08 2.93a4.1 4.1 0 0 1-3 1.06 4.23 4.23 0 0 1-3.05-1.03A3.94 3.94 0 0 1 75 81.46z" fill="#fff" stroke="#fff" stroke-width="1"/></g></svg>
