<svg xml:space="preserve" viewBox="0 0 100 100" xmlns="http://www.w3.org/2000/svg"><g style="display:inline"><g style="display:inline;stroke:#0c0c0c;stroke-width:.736003;stroke-dasharray:none;stroke-opacity:.8"><path style="display:inline;fill:#fcfcfc;stroke:none;stroke-width:.736003;stroke-dasharray:none;stroke-opacity:.8" d="M52.07 7.3a45.13 45.13 0 0 0-4.58.24l-.99.13-1.27.16-.5.1a44.57 44.57 0 0 0-3.92.82l-.24.06a44.49 44.49 0 0 0-6.06 2.1l.02.09c.65 2.23 1.27 4.48 1.8 6.2.27.86.51 1.6.7 2.08.02.06.04.08.07.13l.09.05c.47.17 1.19.4 2.03.65 1.69.49 3.9 1.06 6.09 1.66l.8.23a6.39 6.39 0 0 1-.49-2.46c0-.47.1-.94.19-1.4 2.06-.38 4.2-.57 6.26-.57a20.09 20.09 0 0 1 3.56.17c.9.1 1.8.23 2.71.4.1.46.19.93.19 1.4 0 .4-.05.78-.12 1.16l-.08.34a5.4 5.4 0 0 1-.24.78l-.13.34c-.15.32-.31.64-.51.93l-.2.25a6.5 6.5 0 0 1-1.28 1.3c-.14.11-.28.23-.43.32-.21.14-.43.25-.65.36l-.18.1.17.15c.4.43.95 1.21.92 2.34a3.23 3.23 0 0 1-.98 2.21c-.39.41-.75.65-1.11.87-.73.43-1.5.76-2.4 1.1a82.7 82.7 0 0 1-6.21 2c-2.24.64-4.48 1.27-6.2 1.8-.7.2-1.22.39-1.69.56l.02.01a19.1 19.1 0 0 0 2.96 2.97l.12.1c.51.4 1.04.78 1.6 1.13l.32.2c.56.33 1.13.65 1.72.93v34.36l8.12 8.12 8.13-8.12-.5-7.15 3.82-3.81-3.81-3.82 4.77-4.78v-2l-4.77-4.77.49-8.03a19.07 19.07 0 0 0 10.86-17.12c0-1.28-.1-2.45-.4-3.72.63.37 1.23.77 1.82 1.17l.51.37a36.22 36.22 0 0 1 2.88 2.28l.56.5c.48.44.95.89 1.4 1.35l.59.63a36.34 36.34 0 0 1 2.07 2.42l.7.9.35.5c.5.72.98 1.45 1.43 2.2l.26.4a36.7 36.7 0 0 1 1.6 3.05v.02l.04.08a36.6 36.6 0 0 1 1.82 4.79l.07.22.44 1.62v.03h4.32a5.68 5.68 0 0 1 4.97 2.88c-.09-.67-.19-1.33-.3-1.99v-.03l-.02-.03a44.59 44.59 0 0 0-7.69-18.25l-.14-.2a45.2 45.2 0 0 0-3.62-4.38l-.29-.3a45.3 45.3 0 0 0-1.1-1.12l-.37-.36-1.11-1.03-.38-.32-1.18-1-.34-.27c-.41-.33-.83-.66-1.26-.97v-.01l-.18-.13a44.95 44.95 0 0 0-3.12-2.1l-1.06-.61-.75-.44-.97-.5-.88-.46-1.01-.47-.9-.4c-.32-.15-.65-.28-.98-.41l-.99-.4-.96-.34a44.26 44.26 0 0 0-5.2-1.48l-.95-.2a44.7 44.7 0 0 0-1.18-.21l-.9-.15a44.7 44.7 0 0 0-1.38-.18l-.8-.1a45 45 0 0 0-1.57-.11c-.2-.01-.4-.04-.6-.04-.74-.04-1.49-.06-2.24-.06ZM11.18 33.87v.01c-.3.68-.6 1.37-.86 2.06l-.04.08c-.26.67-.5 1.35-.72 2.03l-.06.17c-.23.68-.43 1.37-.62 2.07l-.04.14c-.18.64-.33 1.3-.48 1.95l-.09.37c-.13.6-.24 1.22-.34 1.83l-.09.48c-.09.55-.16 1.11-.22 1.67l-.1.7c-.05.5-.08 1.01-.12 1.52-.02.28-.05.55-.06.83A44.86 44.86 0 0 0 55.58 96.8l.57-.04c1.14-.1 2.26-.25 3.36-.44l.44-.08a44.67 44.67 0 0 0 6.96-1.82 5.67 5.67 0 0 1-2.43-4.68v-3.72h-.01c-.9.33-1.83.62-2.76.87l-.29.08a36.06 36.06 0 0 1-5.96 1.06l-.41.03a36.19 36.19 0 0 1-39.1-38.33c0-.23.03-.47.05-.7.04-.5.09-.98.15-1.46a36.2 36.2 0 0 1 1.42-6.5l.27-.85c.15-.44.32-.87.49-1.31l.27-.72c.27-.65.55-1.29.86-1.91l-.02-.03c-.04-.02-.04-.04-.08-.05-.47-.18-1.2-.4-2.04-.65-1.69-.5-3.9-1.07-6.08-1.67l-.06-.01zm35.75 12.8h2.62v25.91h-2.62z" stroke="none"/><rect style="display:inline;fill:#e54835;fill-opacity:1;stroke:none;stroke-width:.928316;stroke-dasharray:none;stroke-opacity:.8;paint-order:normal" width="36.37" height="63.43" x="84.91" y="55.83" ry="6.95" transform="translate(4.98 5.03) scale(.7359)" stroke="none"/><path d="M83.88 75.57h-5.72l-1.2-22.9h8.11zm-7 8.02c0-1.31.34-2.3 1.05-2.98.7-.67 1.72-1 3.07-1 1.3 0 2.3.34 3 1.03.71.68 1.07 1.67 1.07 2.95A4 4 0 0 1 84 86.52a4.1 4.1 0 0 1-3 1.05 4.23 4.23 0 0 1-3.05-1.03 3.94 3.94 0 0 1-1.08-2.95z" style="font-weight:700;font-size:48px;font-family:'Open Sans';-inkscape-font-specification:'Open Sans, Bold';display:inline;fill:#fff;stroke:#fff;stroke-width:1;stroke-dasharray:none;stroke-opacity:1"/><path style="display:inline;fill:#62c74d;fill-opacity:1;stroke:none;stroke-width:.736003;stroke-linecap:round;stroke-linejoin:round;stroke-dasharray:none;stroke-opacity:.8;paint-order:normal" d="M28.27 52.59c-1.96-.07-5.4-17.02-6.79-18.4-1.35-1.36-18.04-4.46-17.97-6.37.06-1.96 17.02-5.4 18.4-6.79C23.26 19.68 26.37 3 28.27 3.06c1.96.06 5.4 17.02 6.8 18.4 1.34 1.35 18.03 4.46 17.97 6.36-.07 1.96-17.02 5.4-18.41 6.8-1.35 1.34-4.45 18.03-6.36 17.97z" stroke="none"/></g></g></svg>
