<svg xml:space="preserve" viewBox="0 0 100 100" xmlns="http://www.w3.org/2000/svg"><path d="M50 5.18C25.3 5.18 5.2 25.28 5.2 50A44.86 44.86 0 0 0 50 94.82c24.7 0 44.8-20.1 44.8-44.82A44.86 44.86 0 0 0 50 5.18Zm-6.27 10.83c2.06-.37 4.21-.56 6.27-.56 2.15-.1 4.2.19 6.27.56.09.47.18.94.18 1.4 0 3.56-2.9 6.46-6.45 6.46a6.47 6.47 0 0 1-6.45-6.46c0-.46.1-.93.18-1.4zm3.75 28.53v25.9h-2.62v-25.9ZM50 86.06a36.19 36.19 0 0 1-18.6-67.24c-.19 1.27-.38 2.45-.38 3.72 0 7.54 4.4 14.1 10.86 17.13v34.35L50 82.15l8.12-8.13-.49-7.14 3.82-3.82-3.82-3.82 5.78-5.77-5.78-5.78.5-8.02a19.07 19.07 0 0 0 10.85-17.13c0-1.27-.1-2.45-.39-3.72a36.53 36.53 0 0 1 17.62 31.03A36.19 36.19 0 0 1 50 86.06z" fill="#fcfcfc" style="display:inline"/></svg>
