<svg xml:space="preserve" viewBox="0 0 100 100" xmlns="http://www.w3.org/2000/svg"><g style="display:inline"><path d="M50.3 5.18C25.6 5.18 5.5 25.28 5.5 50a44.86 44.86 0 0 0 54.34 43.78 5.84 5.84 0 0 1-4.6-5.69v-2.37a36.19 36.19 0 0 1-23.54-66.9c-.2 1.28-.39 2.45-.39 3.72 0 7.54 4.4 14.1 10.86 17.13v34.35l8.12 8.13 4.95-4.95V46.48a5.82 5.82 0 0 1 3.07-5.13l.1-1.68a19.07 19.07 0 0 0 10.87-17.13c0-1.27-.1-2.44-.4-3.72a36.45 36.45 0 0 1 16.37 21.82h4.66c1.86 0 3.5.83 4.6 2.14a44.87 44.87 0 0 0-44.22-37.6Zm1.6 10.27c1.58.05 3.12.28 4.66.56.1.47.19.94.19 1.4 0 3.56-2.9 6.46-6.45 6.46a6.47 6.47 0 0 1-6.46-6.46c0-.46.1-.93.19-1.4 2.06-.37 4.2-.56 6.27-.56.53-.02 1.07-.02 1.6 0zm-6.75 29.09h2.62v25.9h-2.62z" fill="#fcfcfc"/><rect x="75.58" y="55.93" width="45.42" height="63.11" ry="6.92" fill="#e54835" transform="translate(3.2 2.9) scale(.73591)"/><path d="M71.13 73.26v-1.73c0-1.5.32-2.8.96-3.92a12.6 12.6 0 0 1 3.52-3.53 14.78 14.78 0 0 0 3.23-2.86c.53-.74.8-1.56.8-2.46 0-1.02-.38-1.8-1.13-2.33-.75-.53-1.8-.8-3.14-.8-2.34 0-5.01.77-8.01 2.3L64.8 52.8a22.33 22.33 0 0 1 11.09-2.93c3.22 0 5.77.78 7.66 2.32a7.56 7.56 0 0 1 2.86 6.19c0 1.72-.4 3.2-1.17 4.45-.78 1.25-2.27 2.66-4.46 4.22a14.14 14.14 0 0 0-2.85 2.53c-.4.58-.59 1.34-.59 2.28v1.4zm-.75 8.02c0-1.31.35-2.3 1.05-2.98.7-.67 1.73-1 3.07-1 1.3 0 2.3.34 3 1.03.72.68 1.08 1.67 1.08 2.95 0 1.23-.36 2.21-1.08 2.93a4.1 4.1 0 0 1-3 1.05 4.23 4.23 0 0 1-3.04-1.03 3.94 3.94 0 0 1-1.08-2.95z" fill="#fff" stroke="#fff" stroke-linecap="round"/></g></svg>
