<svg height="64" width="64" viewBox="0 0 64 64" xml:space="preserve" xmlns="http://www.w3.org/2000/svg"><path d="M32 2C15.46 2 2 15.46 2 32s13.46 30 30 30 30-13.46 30-30S48.54 2 32 2Zm-4.2 7.25c1.38-.25 2.82-.38 4.2-.38a18.7 18.7 0 0 1 4.2.38 4.33 4.33 0 1 1-8.52.94c0-.32.06-.63.12-.94zm2.5 19.1v17.34h-1.74V28.34ZM32 56.13a24.23 24.23 0 0 1-12.45-45.01c-.13.85-.26 1.64-.26 2.49 0 5.04 2.95 9.43 7.27 11.46v23L32 53.52l5.44-5.44-.33-4.78 2.56-2.56-2.56-2.55 3.87-3.87-3.87-3.86.33-5.38a12.77 12.77 0 0 0 7.27-11.46c0-.85-.06-1.64-.26-2.5a24.45 24.45 0 0 1 11.8 20.78A24.23 24.23 0 0 1 32 56.14z" style="display:inline;fill:#fcfcfc;stroke-width:.492719"/><g style="display:inline;stroke-width:1;stroke:#34220a;stroke-opacity:1"><g style="display:inline;stroke:#34220a;stroke-width:1;stroke-opacity:1" stroke="#0c0c0c" stroke-opacity=".8"><rect x="39.15" y="22.7" width="20" height="34.04" ry="3.73" display="inline" fill="#e54835" stroke="none" style="display:inline;stroke:#4b110a;stroke-width:2.0011;stroke-linecap:round;stroke-linejoin:round;stroke-dasharray:none;stroke-opacity:1;paint-order:stroke fill markers" transform="matrix(1 0 0 .9989 3.85 6.33)"/><path d="M54.81 49.44h-3.59l-.75-14.46h5.1zm-4.4 5.06c0-.83.23-1.45.67-1.88.44-.42 1.08-.63 1.92-.63.82 0 1.44.21 1.89.65.45.43.67 1.05.67 1.86 0 .78-.22 1.4-.67 1.85-.46.45-1.08.67-1.89.67-.82 0-1.46-.22-1.9-.65a2.5 2.5 0 0 1-.68-1.87z" display="inline" fill="#fff" stroke="#fff" style="display:inline;stroke:#fff;stroke-width:.868522;stroke-opacity:1"/></g></g></svg>
