<svg height="64" width="64" viewBox="0 0 64 64" xml:space="preserve" xmlns="http://www.w3.org/2000/svg"><path d="M32 2C15.46 2 2 15.46 2 32s13.46 30 30 30 30-13.46 30-30S48.54 2 32 2Zm-4.2 7.25c1.38-.25 2.82-.38 4.2-.38a18.7 18.7 0 0 1 4.2.38 4.33 4.33 0 1 1-8.52.94c0-.32.06-.63.12-.94zm2.5 19.1v17.34h-1.74V28.34ZM32 56.13a24.23 24.23 0 0 1-12.45-45.01c-.13.85-.26 1.64-.26 2.49 0 5.04 2.95 9.43 7.27 11.46v23L32 53.52l5.44-5.44-.33-4.78 2.56-2.56-2.56-2.55 3.87-3.87-3.87-3.86.33-5.38a12.77 12.77 0 0 0 7.27-11.46c0-.85-.06-1.64-.26-2.5a24.45 24.45 0 0 1 11.8 20.78A24.23 24.23 0 0 1 32 56.14z" style="display:inline;opacity:.5;fill:#fcfcfc;stroke-width:.492719"/><g style="display:inline;stroke-width:1;stroke:#34220a;stroke-opacity:1"><g style="display:inline;stroke:#34220a;stroke-width:1;stroke-opacity:1" stroke="#0c0c0c" stroke-opacity=".8"><rect x="35.68" y="35.68" width="28" height="28" ry="3.07" display="inline" fill="#e54835" stroke="none" style="display:inline;stroke:#4b110a;stroke-width:2;stroke-linecap:round;stroke-linejoin:round;stroke-dasharray:none;stroke-opacity:1;paint-order:stroke fill markers" transform="translate(-.68 -.68)"/><path d="m42.74 42.73 12.52 12.54m0-12.54L42.74 55.27" display="inline" fill="#fff" stroke="#fff" stroke-linecap="round" style="display:inline;stroke:#fff;stroke-width:4;stroke-dasharray:none;stroke-opacity:1"/></g></g></svg>
